<mxfile host="app.diagrams.net" modified="2024-04-23T20:06:03.881Z" agent="Mozilla/5.0 (Windows NT 10.0; Win64; x64) AppleWebKit/537.36 (KHTML, like Gecko) Chrome/123.0.0.0 Safari/537.36" etag="SLKlC5mDU0s1vV9BmxNZ" version="24.2.5" type="google">
  <diagram name="Página-1" id="7hdMY_nZfDSNjKhGaEF3">
    <mxGraphModel grid="1" page="1" gridSize="10" guides="1" tooltips="1" connect="1" arrows="1" fold="1" pageScale="1" pageWidth="827" pageHeight="1169" background="#ffffff" math="0" shadow="0">
      <root>
        <mxCell id="0" />
        <mxCell id="1" parent="0" />
        <mxCell id="Tmo01gcyuTr2t_pflfpj-2" style="edgeStyle=orthogonalEdgeStyle;rounded=0;orthogonalLoop=1;jettySize=auto;html=1;exitX=1;exitY=0.5;exitDx=0;exitDy=0;entryX=0;entryY=0.5;entryDx=0;entryDy=0;" edge="1" parent="1" source="ubrNMbJERg0ZYu2FDz6m-1" target="Tmo01gcyuTr2t_pflfpj-1">
          <mxGeometry relative="1" as="geometry" />
        </mxCell>
        <mxCell id="ubrNMbJERg0ZYu2FDz6m-1" value="Início: &lt;br&gt;Para quem é a scooter&amp;nbsp;" style="rounded=1;whiteSpace=wrap;html=1;" vertex="1" parent="1">
          <mxGeometry x="160" y="302" width="140" height="60" as="geometry" />
        </mxCell>
        <mxCell id="ubrNMbJERg0ZYu2FDz6m-32" style="edgeStyle=orthogonalEdgeStyle;rounded=0;orthogonalLoop=1;jettySize=auto;html=1;exitX=0.75;exitY=0;exitDx=0;exitDy=0;entryX=1;entryY=0.5;entryDx=0;entryDy=0;" edge="1" parent="1" source="ubrNMbJERg0ZYu2FDz6m-3" target="ubrNMbJERg0ZYu2FDz6m-22">
          <mxGeometry relative="1" as="geometry" />
        </mxCell>
        <mxCell id="ubrNMbJERg0ZYu2FDz6m-36" style="edgeStyle=orthogonalEdgeStyle;rounded=0;orthogonalLoop=1;jettySize=auto;html=1;exitX=0.75;exitY=0;exitDx=0;exitDy=0;entryX=1;entryY=0.5;entryDx=0;entryDy=0;" edge="1" parent="1" source="ubrNMbJERg0ZYu2FDz6m-3" target="ubrNMbJERg0ZYu2FDz6m-23">
          <mxGeometry relative="1" as="geometry" />
        </mxCell>
        <mxCell id="ubrNMbJERg0ZYu2FDz6m-52" style="edgeStyle=orthogonalEdgeStyle;rounded=0;orthogonalLoop=1;jettySize=auto;html=1;exitX=0;exitY=0.5;exitDx=0;exitDy=0;entryX=1;entryY=0.5;entryDx=0;entryDy=0;" edge="1" parent="1" source="ubrNMbJERg0ZYu2FDz6m-3" target="ubrNMbJERg0ZYu2FDz6m-13">
          <mxGeometry relative="1" as="geometry" />
        </mxCell>
        <mxCell id="Tmo01gcyuTr2t_pflfpj-5" style="edgeStyle=orthogonalEdgeStyle;rounded=0;orthogonalLoop=1;jettySize=auto;html=1;exitX=0.5;exitY=1;exitDx=0;exitDy=0;entryX=0.5;entryY=0;entryDx=0;entryDy=0;" edge="1" parent="1" source="ubrNMbJERg0ZYu2FDz6m-3" target="ubrNMbJERg0ZYu2FDz6m-58">
          <mxGeometry relative="1" as="geometry" />
        </mxCell>
        <mxCell id="ubrNMbJERg0ZYu2FDz6m-3" value="Interface" style="rounded=0;whiteSpace=wrap;html=1;" vertex="1" parent="1">
          <mxGeometry x="26" y="243" width="120" height="56" as="geometry" />
        </mxCell>
        <mxCell id="ubrNMbJERg0ZYu2FDz6m-39" style="edgeStyle=orthogonalEdgeStyle;rounded=0;orthogonalLoop=1;jettySize=auto;html=1;exitX=0.5;exitY=0;exitDx=0;exitDy=0;entryX=1;entryY=0.5;entryDx=0;entryDy=0;" edge="1" parent="1" source="ubrNMbJERg0ZYu2FDz6m-5" target="ubrNMbJERg0ZYu2FDz6m-21">
          <mxGeometry relative="1" as="geometry" />
        </mxCell>
        <mxCell id="ubrNMbJERg0ZYu2FDz6m-45" style="edgeStyle=orthogonalEdgeStyle;rounded=0;orthogonalLoop=1;jettySize=auto;html=1;exitX=0;exitY=0.5;exitDx=0;exitDy=0;entryX=1;entryY=0.5;entryDx=0;entryDy=0;" edge="1" parent="1" source="ubrNMbJERg0ZYu2FDz6m-5" target="ubrNMbJERg0ZYu2FDz6m-41">
          <mxGeometry relative="1" as="geometry" />
        </mxCell>
        <mxCell id="ubrNMbJERg0ZYu2FDz6m-5" value="Logotipo do Urban Scooter" style="rounded=0;whiteSpace=wrap;html=1;" vertex="1" parent="1">
          <mxGeometry x="-224" y="-20" width="158" height="30" as="geometry" />
        </mxCell>
        <mxCell id="ubrNMbJERg0ZYu2FDz6m-59" style="edgeStyle=orthogonalEdgeStyle;rounded=0;orthogonalLoop=1;jettySize=auto;html=1;exitX=0;exitY=0.5;exitDx=0;exitDy=0;entryX=1;entryY=0.5;entryDx=0;entryDy=0;" edge="1" parent="1" source="ubrNMbJERg0ZYu2FDz6m-13" target="ubrNMbJERg0ZYu2FDz6m-53">
          <mxGeometry relative="1" as="geometry" />
        </mxCell>
        <mxCell id="ubrNMbJERg0ZYu2FDz6m-60" style="edgeStyle=orthogonalEdgeStyle;rounded=0;orthogonalLoop=1;jettySize=auto;html=1;exitX=0;exitY=0.5;exitDx=0;exitDy=0;entryX=1;entryY=0.5;entryDx=0;entryDy=0;" edge="1" parent="1" source="ubrNMbJERg0ZYu2FDz6m-13" target="ubrNMbJERg0ZYu2FDz6m-54">
          <mxGeometry relative="1" as="geometry" />
        </mxCell>
        <mxCell id="ubrNMbJERg0ZYu2FDz6m-61" style="edgeStyle=orthogonalEdgeStyle;rounded=0;orthogonalLoop=1;jettySize=auto;html=1;exitX=0;exitY=0.5;exitDx=0;exitDy=0;entryX=1;entryY=0.5;entryDx=0;entryDy=0;" edge="1" parent="1" source="ubrNMbJERg0ZYu2FDz6m-13" target="ubrNMbJERg0ZYu2FDz6m-55">
          <mxGeometry relative="1" as="geometry" />
        </mxCell>
        <mxCell id="ubrNMbJERg0ZYu2FDz6m-62" style="edgeStyle=orthogonalEdgeStyle;rounded=0;orthogonalLoop=1;jettySize=auto;html=1;exitX=0;exitY=0.5;exitDx=0;exitDy=0;entryX=1;entryY=0.5;entryDx=0;entryDy=0;" edge="1" parent="1" source="ubrNMbJERg0ZYu2FDz6m-13" target="ubrNMbJERg0ZYu2FDz6m-57">
          <mxGeometry relative="1" as="geometry" />
        </mxCell>
        <mxCell id="ubrNMbJERg0ZYu2FDz6m-63" style="edgeStyle=orthogonalEdgeStyle;rounded=0;orthogonalLoop=1;jettySize=auto;html=1;exitX=0;exitY=0.5;exitDx=0;exitDy=0;entryX=1;entryY=0.5;entryDx=0;entryDy=0;" edge="1" parent="1" source="ubrNMbJERg0ZYu2FDz6m-13" target="ubrNMbJERg0ZYu2FDz6m-56">
          <mxGeometry relative="1" as="geometry" />
        </mxCell>
        <mxCell id="ubrNMbJERg0ZYu2FDz6m-13" value="Campos&amp;nbsp;" style="rounded=0;whiteSpace=wrap;html=1;" vertex="1" parent="1">
          <mxGeometry x="-214" y="240" width="148" height="62" as="geometry" />
        </mxCell>
        <mxCell id="ubrNMbJERg0ZYu2FDz6m-15" value="Sem Fundo&lt;br&gt;Letra cor Preto" style="rounded=0;whiteSpace=wrap;html=1;" vertex="1" parent="1">
          <mxGeometry x="-394" y="75" width="120" height="40" as="geometry" />
        </mxCell>
        <mxCell id="ubrNMbJERg0ZYu2FDz6m-167" style="edgeStyle=orthogonalEdgeStyle;rounded=0;orthogonalLoop=1;jettySize=auto;html=1;exitX=0;exitY=0.25;exitDx=0;exitDy=0;entryX=0;entryY=0.5;entryDx=0;entryDy=0;" edge="1" parent="1" source="ubrNMbJERg0ZYu2FDz6m-16" target="ubrNMbJERg0ZYu2FDz6m-18">
          <mxGeometry relative="1" as="geometry" />
        </mxCell>
        <mxCell id="ubrNMbJERg0ZYu2FDz6m-169" style="edgeStyle=orthogonalEdgeStyle;rounded=0;orthogonalLoop=1;jettySize=auto;html=1;exitX=1;exitY=0.25;exitDx=0;exitDy=0;entryX=0;entryY=0.5;entryDx=0;entryDy=0;" edge="1" parent="1" source="ubrNMbJERg0ZYu2FDz6m-16" target="ubrNMbJERg0ZYu2FDz6m-117">
          <mxGeometry relative="1" as="geometry">
            <Array as="points">
              <mxPoint x="1020" y="125" />
              <mxPoint x="1020" y="-247" />
            </Array>
          </mxGeometry>
        </mxCell>
        <mxCell id="ubrNMbJERg0ZYu2FDz6m-203" style="edgeStyle=orthogonalEdgeStyle;rounded=0;orthogonalLoop=1;jettySize=auto;html=1;exitX=1;exitY=0.5;exitDx=0;exitDy=0;entryX=0;entryY=0.5;entryDx=0;entryDy=0;" edge="1" parent="1" source="ubrNMbJERg0ZYu2FDz6m-16" target="ubrNMbJERg0ZYu2FDz6m-183">
          <mxGeometry relative="1" as="geometry">
            <Array as="points">
              <mxPoint x="940" y="140" />
              <mxPoint x="940" y="382" />
            </Array>
          </mxGeometry>
        </mxCell>
        <mxCell id="ubrNMbJERg0ZYu2FDz6m-212" style="edgeStyle=orthogonalEdgeStyle;rounded=0;orthogonalLoop=1;jettySize=auto;html=1;exitX=0.75;exitY=1;exitDx=0;exitDy=0;entryX=0.5;entryY=0;entryDx=0;entryDy=0;" edge="1" parent="1" source="ubrNMbJERg0ZYu2FDz6m-16" target="ubrNMbJERg0ZYu2FDz6m-211">
          <mxGeometry relative="1" as="geometry" />
        </mxCell>
        <mxCell id="ubrNMbJERg0ZYu2FDz6m-260" style="edgeStyle=orthogonalEdgeStyle;rounded=0;orthogonalLoop=1;jettySize=auto;html=1;exitX=0;exitY=0.5;exitDx=0;exitDy=0;entryX=0.25;entryY=0;entryDx=0;entryDy=0;" edge="1" parent="1" source="ubrNMbJERg0ZYu2FDz6m-16" target="ubrNMbJERg0ZYu2FDz6m-237">
          <mxGeometry relative="1" as="geometry">
            <Array as="points">
              <mxPoint x="480" y="140" />
              <mxPoint x="480" y="448" />
            </Array>
          </mxGeometry>
        </mxCell>
        <mxCell id="ubrNMbJERg0ZYu2FDz6m-16" value="Campos de Preenchimento Obrigatório" style="rounded=0;whiteSpace=wrap;html=1;" vertex="1" parent="1">
          <mxGeometry x="410" y="110" width="176" height="60" as="geometry" />
        </mxCell>
        <mxCell id="ubrNMbJERg0ZYu2FDz6m-17" value="Fundo Preto&amp;nbsp;&lt;br&gt;Letra cor Branco" style="rounded=0;whiteSpace=wrap;html=1;" vertex="1" parent="1">
          <mxGeometry x="-394" y="20" width="120" height="40" as="geometry" />
        </mxCell>
        <mxCell id="ubrNMbJERg0ZYu2FDz6m-152" style="edgeStyle=orthogonalEdgeStyle;rounded=0;orthogonalLoop=1;jettySize=auto;html=1;exitX=0.5;exitY=0;exitDx=0;exitDy=0;entryX=0;entryY=0.5;entryDx=0;entryDy=0;" edge="1" parent="1" source="ubrNMbJERg0ZYu2FDz6m-18" target="ubrNMbJERg0ZYu2FDz6m-75">
          <mxGeometry relative="1" as="geometry" />
        </mxCell>
        <mxCell id="ubrNMbJERg0ZYu2FDz6m-153" style="edgeStyle=orthogonalEdgeStyle;rounded=0;orthogonalLoop=1;jettySize=auto;html=1;exitX=0.5;exitY=0;exitDx=0;exitDy=0;entryX=0;entryY=0.5;entryDx=0;entryDy=0;" edge="1" parent="1" source="ubrNMbJERg0ZYu2FDz6m-18" target="ubrNMbJERg0ZYu2FDz6m-77">
          <mxGeometry relative="1" as="geometry" />
        </mxCell>
        <mxCell id="ubrNMbJERg0ZYu2FDz6m-154" style="edgeStyle=orthogonalEdgeStyle;rounded=0;orthogonalLoop=1;jettySize=auto;html=1;exitX=0.5;exitY=0;exitDx=0;exitDy=0;entryX=0;entryY=0.5;entryDx=0;entryDy=0;" edge="1" parent="1" source="ubrNMbJERg0ZYu2FDz6m-18" target="ubrNMbJERg0ZYu2FDz6m-78">
          <mxGeometry relative="1" as="geometry" />
        </mxCell>
        <mxCell id="ubrNMbJERg0ZYu2FDz6m-155" style="edgeStyle=orthogonalEdgeStyle;rounded=0;orthogonalLoop=1;jettySize=auto;html=1;exitX=0.5;exitY=0;exitDx=0;exitDy=0;entryX=0;entryY=0.5;entryDx=0;entryDy=0;" edge="1" parent="1" source="ubrNMbJERg0ZYu2FDz6m-18" target="ubrNMbJERg0ZYu2FDz6m-79">
          <mxGeometry relative="1" as="geometry" />
        </mxCell>
        <mxCell id="ubrNMbJERg0ZYu2FDz6m-156" style="edgeStyle=orthogonalEdgeStyle;rounded=0;orthogonalLoop=1;jettySize=auto;html=1;exitX=0.5;exitY=0;exitDx=0;exitDy=0;entryX=0;entryY=0.5;entryDx=0;entryDy=0;" edge="1" parent="1" source="ubrNMbJERg0ZYu2FDz6m-18" target="ubrNMbJERg0ZYu2FDz6m-84">
          <mxGeometry relative="1" as="geometry" />
        </mxCell>
        <mxCell id="ubrNMbJERg0ZYu2FDz6m-158" style="edgeStyle=orthogonalEdgeStyle;rounded=0;orthogonalLoop=1;jettySize=auto;html=1;exitX=0.75;exitY=0;exitDx=0;exitDy=0;" edge="1" parent="1" source="ubrNMbJERg0ZYu2FDz6m-18" target="ubrNMbJERg0ZYu2FDz6m-82">
          <mxGeometry relative="1" as="geometry" />
        </mxCell>
        <mxCell id="ubrNMbJERg0ZYu2FDz6m-159" style="edgeStyle=orthogonalEdgeStyle;rounded=0;orthogonalLoop=1;jettySize=auto;html=1;exitX=0.75;exitY=1;exitDx=0;exitDy=0;entryX=0;entryY=0.5;entryDx=0;entryDy=0;" edge="1" parent="1" source="ubrNMbJERg0ZYu2FDz6m-18" target="ubrNMbJERg0ZYu2FDz6m-85">
          <mxGeometry relative="1" as="geometry" />
        </mxCell>
        <mxCell id="ubrNMbJERg0ZYu2FDz6m-160" style="edgeStyle=orthogonalEdgeStyle;rounded=0;orthogonalLoop=1;jettySize=auto;html=1;exitX=0.75;exitY=1;exitDx=0;exitDy=0;entryX=0;entryY=0.5;entryDx=0;entryDy=0;" edge="1" parent="1" source="ubrNMbJERg0ZYu2FDz6m-18" target="ubrNMbJERg0ZYu2FDz6m-86">
          <mxGeometry relative="1" as="geometry" />
        </mxCell>
        <mxCell id="ubrNMbJERg0ZYu2FDz6m-161" style="edgeStyle=orthogonalEdgeStyle;rounded=0;orthogonalLoop=1;jettySize=auto;html=1;exitX=0.5;exitY=1;exitDx=0;exitDy=0;entryX=0;entryY=0.5;entryDx=0;entryDy=0;" edge="1" parent="1" source="ubrNMbJERg0ZYu2FDz6m-18" target="ubrNMbJERg0ZYu2FDz6m-87">
          <mxGeometry relative="1" as="geometry" />
        </mxCell>
        <mxCell id="ubrNMbJERg0ZYu2FDz6m-162" style="edgeStyle=orthogonalEdgeStyle;rounded=0;orthogonalLoop=1;jettySize=auto;html=1;exitX=0.5;exitY=1;exitDx=0;exitDy=0;entryX=0;entryY=0.5;entryDx=0;entryDy=0;" edge="1" parent="1" source="ubrNMbJERg0ZYu2FDz6m-18" target="ubrNMbJERg0ZYu2FDz6m-88">
          <mxGeometry relative="1" as="geometry" />
        </mxCell>
        <mxCell id="ubrNMbJERg0ZYu2FDz6m-163" style="edgeStyle=orthogonalEdgeStyle;rounded=0;orthogonalLoop=1;jettySize=auto;html=1;exitX=0.5;exitY=1;exitDx=0;exitDy=0;entryX=0;entryY=0.5;entryDx=0;entryDy=0;" edge="1" parent="1" source="ubrNMbJERg0ZYu2FDz6m-18" target="ubrNMbJERg0ZYu2FDz6m-89">
          <mxGeometry relative="1" as="geometry" />
        </mxCell>
        <mxCell id="ubrNMbJERg0ZYu2FDz6m-164" style="edgeStyle=orthogonalEdgeStyle;rounded=0;orthogonalLoop=1;jettySize=auto;html=1;exitX=0.5;exitY=1;exitDx=0;exitDy=0;entryX=0;entryY=0.5;entryDx=0;entryDy=0;" edge="1" parent="1" source="ubrNMbJERg0ZYu2FDz6m-18" target="ubrNMbJERg0ZYu2FDz6m-90">
          <mxGeometry relative="1" as="geometry" />
        </mxCell>
        <mxCell id="ubrNMbJERg0ZYu2FDz6m-165" style="edgeStyle=orthogonalEdgeStyle;rounded=0;orthogonalLoop=1;jettySize=auto;html=1;exitX=0.5;exitY=1;exitDx=0;exitDy=0;entryX=0;entryY=0.5;entryDx=0;entryDy=0;" edge="1" parent="1" source="ubrNMbJERg0ZYu2FDz6m-18" target="ubrNMbJERg0ZYu2FDz6m-91">
          <mxGeometry relative="1" as="geometry" />
        </mxCell>
        <mxCell id="ubrNMbJERg0ZYu2FDz6m-18" value="* Nome&amp;nbsp;" style="rounded=0;whiteSpace=wrap;html=1;" vertex="1" parent="1">
          <mxGeometry x="329" y="-270" width="120" height="30" as="geometry" />
        </mxCell>
        <mxCell id="ubrNMbJERg0ZYu2FDz6m-19" value="Cor Cinza" style="rounded=0;whiteSpace=wrap;html=1;" vertex="1" parent="1">
          <mxGeometry x="-564" y="-57.5" width="120" height="25" as="geometry" />
        </mxCell>
        <mxCell id="ubrNMbJERg0ZYu2FDz6m-20" value="Campos para preenchimento das informações&lt;div&gt;Espera&lt;br&gt;&amp;nbsp;Letra cinza claro, fundo branco&lt;br&gt;Quando preenchido&amp;nbsp;&lt;br&gt;Letra preta e fundo branco claro&amp;nbsp;&lt;/div&gt;" style="rounded=0;whiteSpace=wrap;html=1;" vertex="1" parent="1">
          <mxGeometry x="-827" y="170" width="273" height="110" as="geometry" />
        </mxCell>
        <mxCell id="ubrNMbJERg0ZYu2FDz6m-40" style="edgeStyle=orthogonalEdgeStyle;rounded=0;orthogonalLoop=1;jettySize=auto;html=1;exitX=0;exitY=0.5;exitDx=0;exitDy=0;entryX=1;entryY=0.5;entryDx=0;entryDy=0;" edge="1" parent="1" source="ubrNMbJERg0ZYu2FDz6m-21" target="ubrNMbJERg0ZYu2FDz6m-19">
          <mxGeometry relative="1" as="geometry" />
        </mxCell>
        <mxCell id="ubrNMbJERg0ZYu2FDz6m-21" value="Plataforma Interativa&amp;nbsp;" style="rounded=0;whiteSpace=wrap;html=1;" vertex="1" parent="1">
          <mxGeometry x="-394" y="-60" width="120" height="30" as="geometry" />
        </mxCell>
        <mxCell id="ubrNMbJERg0ZYu2FDz6m-33" style="edgeStyle=orthogonalEdgeStyle;rounded=0;orthogonalLoop=1;jettySize=auto;html=1;exitX=0;exitY=0.333;exitDx=0;exitDy=0;entryX=1;entryY=0.5;entryDx=0;entryDy=0;exitPerimeter=0;" edge="1" parent="1" target="ubrNMbJERg0ZYu2FDz6m-5">
          <mxGeometry relative="1" as="geometry">
            <mxPoint x="-26" y="34.99000000000001" as="sourcePoint" />
          </mxGeometry>
        </mxCell>
        <mxCell id="ubrNMbJERg0ZYu2FDz6m-34" style="edgeStyle=orthogonalEdgeStyle;rounded=0;orthogonalLoop=1;jettySize=auto;html=1;exitX=0;exitY=0.5;exitDx=0;exitDy=0;entryX=1;entryY=0.5;entryDx=0;entryDy=0;" edge="1" parent="1" target="ubrNMbJERg0ZYu2FDz6m-24">
          <mxGeometry relative="1" as="geometry">
            <mxPoint x="-26" y="40" as="sourcePoint" />
          </mxGeometry>
        </mxCell>
        <mxCell id="ubrNMbJERg0ZYu2FDz6m-35" style="edgeStyle=orthogonalEdgeStyle;rounded=0;orthogonalLoop=1;jettySize=auto;html=1;exitX=0;exitY=0.75;exitDx=0;exitDy=0;entryX=1;entryY=0.5;entryDx=0;entryDy=0;" edge="1" parent="1" target="ubrNMbJERg0ZYu2FDz6m-29">
          <mxGeometry relative="1" as="geometry">
            <mxPoint x="-26" y="47.5" as="sourcePoint" />
          </mxGeometry>
        </mxCell>
        <mxCell id="ubrNMbJERg0ZYu2FDz6m-22" value="Cabeçario" style="rounded=0;whiteSpace=wrap;html=1;" vertex="1" parent="1">
          <mxGeometry x="-26" y="25" width="120" height="30" as="geometry" />
        </mxCell>
        <mxCell id="ubrNMbJERg0ZYu2FDz6m-50" style="edgeStyle=orthogonalEdgeStyle;rounded=0;orthogonalLoop=1;jettySize=auto;html=1;exitX=0;exitY=0.5;exitDx=0;exitDy=0;entryX=1;entryY=0.5;entryDx=0;entryDy=0;" edge="1" parent="1" source="ubrNMbJERg0ZYu2FDz6m-23" target="ubrNMbJERg0ZYu2FDz6m-37">
          <mxGeometry relative="1" as="geometry" />
        </mxCell>
        <mxCell id="ubrNMbJERg0ZYu2FDz6m-23" value="Título&amp;nbsp;" style="rounded=0;whiteSpace=wrap;html=1;" vertex="1" parent="1">
          <mxGeometry x="-26" y="150" width="120" height="30" as="geometry" />
        </mxCell>
        <mxCell id="ubrNMbJERg0ZYu2FDz6m-47" style="edgeStyle=orthogonalEdgeStyle;rounded=0;orthogonalLoop=1;jettySize=auto;html=1;exitX=0;exitY=0.5;exitDx=0;exitDy=0;entryX=1;entryY=0.5;entryDx=0;entryDy=0;" edge="1" parent="1" source="ubrNMbJERg0ZYu2FDz6m-24" target="ubrNMbJERg0ZYu2FDz6m-17">
          <mxGeometry relative="1" as="geometry" />
        </mxCell>
        <mxCell id="ubrNMbJERg0ZYu2FDz6m-24" value="Botão Fazer pedido" style="rounded=0;whiteSpace=wrap;html=1;" vertex="1" parent="1">
          <mxGeometry x="-224" y="25" width="158" height="30" as="geometry" />
        </mxCell>
        <mxCell id="ubrNMbJERg0ZYu2FDz6m-49" style="edgeStyle=orthogonalEdgeStyle;rounded=0;orthogonalLoop=1;jettySize=auto;html=1;exitX=0;exitY=0.5;exitDx=0;exitDy=0;entryX=1;entryY=0.5;entryDx=0;entryDy=0;" edge="1" parent="1" source="ubrNMbJERg0ZYu2FDz6m-29" target="ubrNMbJERg0ZYu2FDz6m-15">
          <mxGeometry relative="1" as="geometry" />
        </mxCell>
        <mxCell id="ubrNMbJERg0ZYu2FDz6m-29" value="Botão Status do pedido" style="rounded=0;whiteSpace=wrap;html=1;" vertex="1" parent="1">
          <mxGeometry x="-224" y="80" width="158" height="30" as="geometry" />
        </mxCell>
        <mxCell id="ubrNMbJERg0ZYu2FDz6m-37" value="Para quem é a scooter" style="rounded=0;whiteSpace=wrap;html=1;" vertex="1" parent="1">
          <mxGeometry x="-224" y="150" width="158" height="30" as="geometry" />
        </mxCell>
        <mxCell id="ubrNMbJERg0ZYu2FDz6m-41" value="Cor Preto" style="rounded=0;whiteSpace=wrap;html=1;" vertex="1" parent="1">
          <mxGeometry x="-394" y="-17.5" width="120" height="25" as="geometry" />
        </mxCell>
        <mxCell id="ubrNMbJERg0ZYu2FDz6m-70" style="edgeStyle=orthogonalEdgeStyle;rounded=0;orthogonalLoop=1;jettySize=auto;html=1;exitX=0;exitY=0.5;exitDx=0;exitDy=0;entryX=0.5;entryY=0;entryDx=0;entryDy=0;" edge="1" parent="1" source="ubrNMbJERg0ZYu2FDz6m-53" target="ubrNMbJERg0ZYu2FDz6m-20">
          <mxGeometry relative="1" as="geometry">
            <mxPoint x="-546.9999999999995" y="137.5" as="targetPoint" />
          </mxGeometry>
        </mxCell>
        <mxCell id="ubrNMbJERg0ZYu2FDz6m-53" value="* Nome" style="rounded=0;whiteSpace=wrap;html=1;" vertex="1" parent="1">
          <mxGeometry x="-394" y="180" width="120" height="40" as="geometry" />
        </mxCell>
        <mxCell id="ubrNMbJERg0ZYu2FDz6m-71" style="edgeStyle=orthogonalEdgeStyle;rounded=0;orthogonalLoop=1;jettySize=auto;html=1;exitX=0;exitY=0.5;exitDx=0;exitDy=0;entryX=1;entryY=0.5;entryDx=0;entryDy=0;" edge="1" parent="1" source="ubrNMbJERg0ZYu2FDz6m-54" target="ubrNMbJERg0ZYu2FDz6m-20">
          <mxGeometry relative="1" as="geometry">
            <mxPoint x="-546.9999999999995" y="165" as="targetPoint" />
          </mxGeometry>
        </mxCell>
        <mxCell id="ubrNMbJERg0ZYu2FDz6m-54" value="* Sobrenome" style="rounded=0;whiteSpace=wrap;html=1;" vertex="1" parent="1">
          <mxGeometry x="-394" y="240" width="120" height="40" as="geometry" />
        </mxCell>
        <mxCell id="ubrNMbJERg0ZYu2FDz6m-67" style="edgeStyle=orthogonalEdgeStyle;rounded=0;orthogonalLoop=1;jettySize=auto;html=1;exitX=0;exitY=0.5;exitDx=0;exitDy=0;entryX=1;entryY=0.75;entryDx=0;entryDy=0;" edge="1" parent="1" source="ubrNMbJERg0ZYu2FDz6m-55" target="ubrNMbJERg0ZYu2FDz6m-20">
          <mxGeometry relative="1" as="geometry">
            <mxPoint x="-546.9999999999995" y="192.5" as="targetPoint" />
          </mxGeometry>
        </mxCell>
        <mxCell id="ubrNMbJERg0ZYu2FDz6m-55" value="* Endereço para onde levar a scooter" style="rounded=0;whiteSpace=wrap;html=1;" vertex="1" parent="1">
          <mxGeometry x="-494" y="302" width="220" height="40" as="geometry" />
        </mxCell>
        <mxCell id="ubrNMbJERg0ZYu2FDz6m-69" style="edgeStyle=orthogonalEdgeStyle;rounded=0;orthogonalLoop=1;jettySize=auto;html=1;exitX=0;exitY=0.5;exitDx=0;exitDy=0;entryX=0.5;entryY=1;entryDx=0;entryDy=0;" edge="1" parent="1" source="ubrNMbJERg0ZYu2FDz6m-56" target="ubrNMbJERg0ZYu2FDz6m-20">
          <mxGeometry relative="1" as="geometry">
            <mxPoint x="-683.5" y="220" as="targetPoint" />
          </mxGeometry>
        </mxCell>
        <mxCell id="ubrNMbJERg0ZYu2FDz6m-56" value="* Telefone: o entregador ligará para este número" style="rounded=0;whiteSpace=wrap;html=1;" vertex="1" parent="1">
          <mxGeometry x="-494" y="420" width="220" height="40" as="geometry" />
        </mxCell>
        <mxCell id="GoNkcsiwLbmAIzl6Nbj7-162" style="edgeStyle=orthogonalEdgeStyle;rounded=0;orthogonalLoop=1;jettySize=auto;html=1;exitX=0;exitY=0.5;exitDx=0;exitDy=0;" edge="1" parent="1" source="ubrNMbJERg0ZYu2FDz6m-57" target="GoNkcsiwLbmAIzl6Nbj7-160">
          <mxGeometry relative="1" as="geometry" />
        </mxCell>
        <mxCell id="ubrNMbJERg0ZYu2FDz6m-57" value="* Estação de metrô" style="rounded=0;whiteSpace=wrap;html=1;" vertex="1" parent="1">
          <mxGeometry x="-394" y="360" width="120" height="40" as="geometry" />
        </mxCell>
        <mxCell id="Tmo01gcyuTr2t_pflfpj-6" style="edgeStyle=orthogonalEdgeStyle;rounded=0;orthogonalLoop=1;jettySize=auto;html=1;exitX=0;exitY=0.5;exitDx=0;exitDy=0;entryX=0.5;entryY=0;entryDx=0;entryDy=0;" edge="1" parent="1" source="ubrNMbJERg0ZYu2FDz6m-58" target="ubrNMbJERg0ZYu2FDz6m-73">
          <mxGeometry relative="1" as="geometry" />
        </mxCell>
        <mxCell id="ubrNMbJERg0ZYu2FDz6m-58" value="Botão Avançar" style="rounded=0;whiteSpace=wrap;html=1;" vertex="1" parent="1">
          <mxGeometry x="-56" y="362" width="150" height="65" as="geometry" />
        </mxCell>
        <mxCell id="ubrNMbJERg0ZYu2FDz6m-73" value="Fundo Preto&amp;nbsp;&lt;br&gt;Letra cor Branco" style="rounded=0;whiteSpace=wrap;html=1;" vertex="1" parent="1">
          <mxGeometry x="-216" y="454" width="160" height="50" as="geometry" />
        </mxCell>
        <mxCell id="idY51j--czHx6IZsuclX-3" style="edgeStyle=orthogonalEdgeStyle;rounded=0;orthogonalLoop=1;jettySize=auto;html=1;exitX=1;exitY=0.5;exitDx=0;exitDy=0;entryX=0;entryY=0.5;entryDx=0;entryDy=0;" edge="1" parent="1" source="ubrNMbJERg0ZYu2FDz6m-75" target="idY51j--czHx6IZsuclX-2">
          <mxGeometry relative="1" as="geometry">
            <Array as="points">
              <mxPoint x="750" y="-475" />
              <mxPoint x="750" y="-330" />
            </Array>
          </mxGeometry>
        </mxCell>
        <mxCell id="ubrNMbJERg0ZYu2FDz6m-75" value="Letra Latinas" style="rounded=0;whiteSpace=wrap;html=1;" vertex="1" parent="1">
          <mxGeometry x="499" y="-490" width="120" height="30" as="geometry" />
        </mxCell>
        <mxCell id="idY51j--czHx6IZsuclX-5" style="edgeStyle=orthogonalEdgeStyle;rounded=0;orthogonalLoop=1;jettySize=auto;html=1;exitX=1;exitY=0.5;exitDx=0;exitDy=0;entryX=0;entryY=0.5;entryDx=0;entryDy=0;" edge="1" parent="1" source="ubrNMbJERg0ZYu2FDz6m-77" target="idY51j--czHx6IZsuclX-2">
          <mxGeometry relative="1" as="geometry">
            <Array as="points">
              <mxPoint x="750" y="-435" />
              <mxPoint x="750" y="-330" />
            </Array>
          </mxGeometry>
        </mxCell>
        <mxCell id="ubrNMbJERg0ZYu2FDz6m-77" value="Espaço&lt;span style=&quot;white-space: pre;&quot;&gt;&#x9;&lt;/span&gt;" style="rounded=0;whiteSpace=wrap;html=1;" vertex="1" parent="1">
          <mxGeometry x="499" y="-450" width="120" height="30" as="geometry" />
        </mxCell>
        <mxCell id="idY51j--czHx6IZsuclX-6" style="edgeStyle=orthogonalEdgeStyle;rounded=0;orthogonalLoop=1;jettySize=auto;html=1;exitX=1;exitY=0.5;exitDx=0;exitDy=0;entryX=0;entryY=0.5;entryDx=0;entryDy=0;" edge="1" parent="1" source="ubrNMbJERg0ZYu2FDz6m-78" target="idY51j--czHx6IZsuclX-2">
          <mxGeometry relative="1" as="geometry">
            <Array as="points">
              <mxPoint x="750" y="-395" />
              <mxPoint x="750" y="-330" />
            </Array>
          </mxGeometry>
        </mxCell>
        <mxCell id="ubrNMbJERg0ZYu2FDz6m-78" value="Traço" style="rounded=0;whiteSpace=wrap;html=1;" vertex="1" parent="1">
          <mxGeometry x="499" y="-410" width="120" height="30" as="geometry" />
        </mxCell>
        <mxCell id="idY51j--czHx6IZsuclX-7" style="edgeStyle=orthogonalEdgeStyle;rounded=0;orthogonalLoop=1;jettySize=auto;html=1;exitX=1;exitY=0.5;exitDx=0;exitDy=0;entryX=0;entryY=0.5;entryDx=0;entryDy=0;" edge="1" parent="1" source="ubrNMbJERg0ZYu2FDz6m-79" target="idY51j--czHx6IZsuclX-2">
          <mxGeometry relative="1" as="geometry">
            <Array as="points">
              <mxPoint x="730" y="-355" />
              <mxPoint x="730" y="-330" />
            </Array>
          </mxGeometry>
        </mxCell>
        <mxCell id="ubrNMbJERg0ZYu2FDz6m-79" value="Texto com 2 a 15 caracteres" style="rounded=0;whiteSpace=wrap;html=1;" vertex="1" parent="1">
          <mxGeometry x="499" y="-370" width="191" height="30" as="geometry" />
        </mxCell>
        <mxCell id="idY51j--czHx6IZsuclX-9" style="edgeStyle=orthogonalEdgeStyle;rounded=0;orthogonalLoop=1;jettySize=auto;html=1;exitX=1;exitY=0.5;exitDx=0;exitDy=0;entryX=0;entryY=0.5;entryDx=0;entryDy=0;" edge="1" parent="1" source="ubrNMbJERg0ZYu2FDz6m-82" target="idY51j--czHx6IZsuclX-2">
          <mxGeometry relative="1" as="geometry" />
        </mxCell>
        <mxCell id="ubrNMbJERg0ZYu2FDz6m-82" value="Texto com 3 caracteres" style="rounded=0;whiteSpace=wrap;html=1;" vertex="1" parent="1">
          <mxGeometry x="499" y="-290" width="150" height="30" as="geometry" />
        </mxCell>
        <mxCell id="idY51j--czHx6IZsuclX-8" style="edgeStyle=orthogonalEdgeStyle;rounded=0;orthogonalLoop=1;jettySize=auto;html=1;exitX=1;exitY=0.5;exitDx=0;exitDy=0;entryX=0;entryY=0.5;entryDx=0;entryDy=0;" edge="1" parent="1" source="ubrNMbJERg0ZYu2FDz6m-84" target="idY51j--czHx6IZsuclX-2">
          <mxGeometry relative="1" as="geometry" />
        </mxCell>
        <mxCell id="ubrNMbJERg0ZYu2FDz6m-84" value="Texto com 2 caracteres" style="rounded=0;whiteSpace=wrap;html=1;" vertex="1" parent="1">
          <mxGeometry x="499" y="-330" width="150" height="30" as="geometry" />
        </mxCell>
        <mxCell id="idY51j--czHx6IZsuclX-10" style="edgeStyle=orthogonalEdgeStyle;rounded=0;orthogonalLoop=1;jettySize=auto;html=1;exitX=1;exitY=0.5;exitDx=0;exitDy=0;entryX=0;entryY=0.5;entryDx=0;entryDy=0;" edge="1" parent="1" source="ubrNMbJERg0ZYu2FDz6m-85" target="idY51j--czHx6IZsuclX-2">
          <mxGeometry relative="1" as="geometry" />
        </mxCell>
        <mxCell id="ubrNMbJERg0ZYu2FDz6m-85" value="Texto com 14 caracteres" style="rounded=0;whiteSpace=wrap;html=1;" vertex="1" parent="1">
          <mxGeometry x="499" y="-250" width="150" height="30" as="geometry" />
        </mxCell>
        <mxCell id="idY51j--czHx6IZsuclX-11" style="edgeStyle=orthogonalEdgeStyle;rounded=0;orthogonalLoop=1;jettySize=auto;html=1;exitX=1;exitY=0.5;exitDx=0;exitDy=0;entryX=0;entryY=0.5;entryDx=0;entryDy=0;" edge="1" parent="1" source="ubrNMbJERg0ZYu2FDz6m-86" target="idY51j--czHx6IZsuclX-2">
          <mxGeometry relative="1" as="geometry" />
        </mxCell>
        <mxCell id="ubrNMbJERg0ZYu2FDz6m-86" value="Texto com 15 caracteres" style="rounded=0;whiteSpace=wrap;html=1;" vertex="1" parent="1">
          <mxGeometry x="499" y="-210" width="150" height="30" as="geometry" />
        </mxCell>
        <mxCell id="ubrNMbJERg0ZYu2FDz6m-107" style="edgeStyle=orthogonalEdgeStyle;rounded=0;orthogonalLoop=1;jettySize=auto;html=1;exitX=1;exitY=0.5;exitDx=0;exitDy=0;entryX=0.25;entryY=0;entryDx=0;entryDy=0;" edge="1" parent="1" source="ubrNMbJERg0ZYu2FDz6m-87" target="ubrNMbJERg0ZYu2FDz6m-106">
          <mxGeometry relative="1" as="geometry" />
        </mxCell>
        <mxCell id="ubrNMbJERg0ZYu2FDz6m-87" value="Texto com 1 caracteres" style="rounded=0;whiteSpace=wrap;html=1;" vertex="1" parent="1">
          <mxGeometry x="499" y="-170" width="150" height="30" as="geometry" />
        </mxCell>
        <mxCell id="ubrNMbJERg0ZYu2FDz6m-109" style="edgeStyle=orthogonalEdgeStyle;rounded=0;orthogonalLoop=1;jettySize=auto;html=1;exitX=1;exitY=0.5;exitDx=0;exitDy=0;entryX=0;entryY=0.25;entryDx=0;entryDy=0;" edge="1" parent="1" source="ubrNMbJERg0ZYu2FDz6m-88" target="ubrNMbJERg0ZYu2FDz6m-106">
          <mxGeometry relative="1" as="geometry" />
        </mxCell>
        <mxCell id="ubrNMbJERg0ZYu2FDz6m-88" value="Texto com 16 caracteres" style="rounded=0;whiteSpace=wrap;html=1;" vertex="1" parent="1">
          <mxGeometry x="499" y="-130" width="150" height="30" as="geometry" />
        </mxCell>
        <mxCell id="ubrNMbJERg0ZYu2FDz6m-111" style="edgeStyle=orthogonalEdgeStyle;rounded=0;orthogonalLoop=1;jettySize=auto;html=1;exitX=1;exitY=0.5;exitDx=0;exitDy=0;entryX=0;entryY=0.5;entryDx=0;entryDy=0;" edge="1" parent="1" source="ubrNMbJERg0ZYu2FDz6m-89" target="ubrNMbJERg0ZYu2FDz6m-106">
          <mxGeometry relative="1" as="geometry" />
        </mxCell>
        <mxCell id="ubrNMbJERg0ZYu2FDz6m-89" value="Vazio" style="rounded=0;whiteSpace=wrap;html=1;" vertex="1" parent="1">
          <mxGeometry x="499" y="-90" width="150" height="30" as="geometry" />
        </mxCell>
        <mxCell id="ubrNMbJERg0ZYu2FDz6m-115" style="edgeStyle=orthogonalEdgeStyle;rounded=0;orthogonalLoop=1;jettySize=auto;html=1;exitX=1;exitY=0.25;exitDx=0;exitDy=0;entryX=0;entryY=0.75;entryDx=0;entryDy=0;" edge="1" parent="1" source="ubrNMbJERg0ZYu2FDz6m-90" target="ubrNMbJERg0ZYu2FDz6m-106">
          <mxGeometry relative="1" as="geometry" />
        </mxCell>
        <mxCell id="ubrNMbJERg0ZYu2FDz6m-90" value="Texto com caracteres especiais" style="rounded=0;whiteSpace=wrap;html=1;" vertex="1" parent="1">
          <mxGeometry x="499" y="-50" width="180" height="30" as="geometry" />
        </mxCell>
        <mxCell id="ubrNMbJERg0ZYu2FDz6m-116" style="edgeStyle=orthogonalEdgeStyle;rounded=0;orthogonalLoop=1;jettySize=auto;html=1;exitX=1;exitY=0.5;exitDx=0;exitDy=0;entryX=0.25;entryY=1;entryDx=0;entryDy=0;" edge="1" parent="1" source="ubrNMbJERg0ZYu2FDz6m-91" target="ubrNMbJERg0ZYu2FDz6m-106">
          <mxGeometry relative="1" as="geometry" />
        </mxCell>
        <mxCell id="ubrNMbJERg0ZYu2FDz6m-91" value="Texto com números" style="rounded=0;whiteSpace=wrap;html=1;" vertex="1" parent="1">
          <mxGeometry x="499" y="-10" width="150" height="30" as="geometry" />
        </mxCell>
        <mxCell id="ubrNMbJERg0ZYu2FDz6m-106" value="Testes Negativos&amp;nbsp;&lt;div&gt;Borada e Texto ficam vermelhos e é apresentado a frase de erro: &quot;Digite o nome correto&quot;&lt;/div&gt;" style="rounded=0;whiteSpace=wrap;html=1;" vertex="1" parent="1">
          <mxGeometry x="790" y="-125" width="180" height="100" as="geometry" />
        </mxCell>
        <mxCell id="ubrNMbJERg0ZYu2FDz6m-137" style="edgeStyle=orthogonalEdgeStyle;rounded=0;orthogonalLoop=1;jettySize=auto;html=1;exitX=0.5;exitY=0;exitDx=0;exitDy=0;entryX=0;entryY=0.5;entryDx=0;entryDy=0;" edge="1" parent="1" source="ubrNMbJERg0ZYu2FDz6m-117" target="ubrNMbJERg0ZYu2FDz6m-118">
          <mxGeometry relative="1" as="geometry" />
        </mxCell>
        <mxCell id="ubrNMbJERg0ZYu2FDz6m-138" style="edgeStyle=orthogonalEdgeStyle;rounded=0;orthogonalLoop=1;jettySize=auto;html=1;exitX=0.5;exitY=0;exitDx=0;exitDy=0;entryX=0;entryY=0.5;entryDx=0;entryDy=0;" edge="1" parent="1" source="ubrNMbJERg0ZYu2FDz6m-117" target="ubrNMbJERg0ZYu2FDz6m-119">
          <mxGeometry relative="1" as="geometry" />
        </mxCell>
        <mxCell id="ubrNMbJERg0ZYu2FDz6m-139" style="edgeStyle=orthogonalEdgeStyle;rounded=0;orthogonalLoop=1;jettySize=auto;html=1;exitX=0.5;exitY=0;exitDx=0;exitDy=0;entryX=0;entryY=0.5;entryDx=0;entryDy=0;" edge="1" parent="1" source="ubrNMbJERg0ZYu2FDz6m-117" target="ubrNMbJERg0ZYu2FDz6m-120">
          <mxGeometry relative="1" as="geometry" />
        </mxCell>
        <mxCell id="ubrNMbJERg0ZYu2FDz6m-140" style="edgeStyle=orthogonalEdgeStyle;rounded=0;orthogonalLoop=1;jettySize=auto;html=1;exitX=0.5;exitY=0;exitDx=0;exitDy=0;entryX=0;entryY=0.5;entryDx=0;entryDy=0;" edge="1" parent="1" source="ubrNMbJERg0ZYu2FDz6m-117" target="ubrNMbJERg0ZYu2FDz6m-121">
          <mxGeometry relative="1" as="geometry" />
        </mxCell>
        <mxCell id="ubrNMbJERg0ZYu2FDz6m-141" style="edgeStyle=orthogonalEdgeStyle;rounded=0;orthogonalLoop=1;jettySize=auto;html=1;exitX=0.5;exitY=0;exitDx=0;exitDy=0;entryX=0;entryY=0.5;entryDx=0;entryDy=0;" edge="1" parent="1" source="ubrNMbJERg0ZYu2FDz6m-117" target="ubrNMbJERg0ZYu2FDz6m-123">
          <mxGeometry relative="1" as="geometry" />
        </mxCell>
        <mxCell id="ubrNMbJERg0ZYu2FDz6m-142" style="edgeStyle=orthogonalEdgeStyle;rounded=0;orthogonalLoop=1;jettySize=auto;html=1;exitX=0.5;exitY=0;exitDx=0;exitDy=0;entryX=0;entryY=0.5;entryDx=0;entryDy=0;" edge="1" parent="1" source="ubrNMbJERg0ZYu2FDz6m-117" target="ubrNMbJERg0ZYu2FDz6m-122">
          <mxGeometry relative="1" as="geometry" />
        </mxCell>
        <mxCell id="ubrNMbJERg0ZYu2FDz6m-143" style="edgeStyle=orthogonalEdgeStyle;rounded=0;orthogonalLoop=1;jettySize=auto;html=1;exitX=1;exitY=0.5;exitDx=0;exitDy=0;entryX=0;entryY=0.5;entryDx=0;entryDy=0;" edge="1" parent="1" source="ubrNMbJERg0ZYu2FDz6m-117" target="ubrNMbJERg0ZYu2FDz6m-124">
          <mxGeometry relative="1" as="geometry" />
        </mxCell>
        <mxCell id="ubrNMbJERg0ZYu2FDz6m-144" style="edgeStyle=orthogonalEdgeStyle;rounded=0;orthogonalLoop=1;jettySize=auto;html=1;exitX=1;exitY=0.5;exitDx=0;exitDy=0;entryX=0;entryY=0.75;entryDx=0;entryDy=0;" edge="1" parent="1" source="ubrNMbJERg0ZYu2FDz6m-117" target="ubrNMbJERg0ZYu2FDz6m-125">
          <mxGeometry relative="1" as="geometry" />
        </mxCell>
        <mxCell id="ubrNMbJERg0ZYu2FDz6m-145" style="edgeStyle=orthogonalEdgeStyle;rounded=0;orthogonalLoop=1;jettySize=auto;html=1;exitX=0.5;exitY=1;exitDx=0;exitDy=0;entryX=0;entryY=0.5;entryDx=0;entryDy=0;" edge="1" parent="1" source="ubrNMbJERg0ZYu2FDz6m-117" target="ubrNMbJERg0ZYu2FDz6m-127">
          <mxGeometry relative="1" as="geometry" />
        </mxCell>
        <mxCell id="ubrNMbJERg0ZYu2FDz6m-146" style="edgeStyle=orthogonalEdgeStyle;rounded=0;orthogonalLoop=1;jettySize=auto;html=1;exitX=0.5;exitY=1;exitDx=0;exitDy=0;entryX=0;entryY=0.5;entryDx=0;entryDy=0;" edge="1" parent="1" source="ubrNMbJERg0ZYu2FDz6m-117" target="ubrNMbJERg0ZYu2FDz6m-129">
          <mxGeometry relative="1" as="geometry" />
        </mxCell>
        <mxCell id="ubrNMbJERg0ZYu2FDz6m-147" style="edgeStyle=orthogonalEdgeStyle;rounded=0;orthogonalLoop=1;jettySize=auto;html=1;exitX=0.5;exitY=1;exitDx=0;exitDy=0;entryX=0;entryY=0.5;entryDx=0;entryDy=0;" edge="1" parent="1" source="ubrNMbJERg0ZYu2FDz6m-117" target="ubrNMbJERg0ZYu2FDz6m-131">
          <mxGeometry relative="1" as="geometry" />
        </mxCell>
        <mxCell id="ubrNMbJERg0ZYu2FDz6m-148" style="edgeStyle=orthogonalEdgeStyle;rounded=0;orthogonalLoop=1;jettySize=auto;html=1;exitX=0.5;exitY=1;exitDx=0;exitDy=0;entryX=0;entryY=0.5;entryDx=0;entryDy=0;" edge="1" parent="1" source="ubrNMbJERg0ZYu2FDz6m-117" target="ubrNMbJERg0ZYu2FDz6m-133">
          <mxGeometry relative="1" as="geometry" />
        </mxCell>
        <mxCell id="ubrNMbJERg0ZYu2FDz6m-149" style="edgeStyle=orthogonalEdgeStyle;rounded=0;orthogonalLoop=1;jettySize=auto;html=1;exitX=0.5;exitY=1;exitDx=0;exitDy=0;entryX=0;entryY=0.5;entryDx=0;entryDy=0;" edge="1" parent="1" source="ubrNMbJERg0ZYu2FDz6m-117" target="ubrNMbJERg0ZYu2FDz6m-135">
          <mxGeometry relative="1" as="geometry" />
        </mxCell>
        <mxCell id="ubrNMbJERg0ZYu2FDz6m-117" value="* Sobrenome&amp;nbsp;" style="rounded=0;whiteSpace=wrap;html=1;" vertex="1" parent="1">
          <mxGeometry x="1019.5" y="-300" width="120" height="30" as="geometry" />
        </mxCell>
        <mxCell id="idY51j--czHx6IZsuclX-13" style="edgeStyle=orthogonalEdgeStyle;rounded=0;orthogonalLoop=1;jettySize=auto;html=1;exitX=1;exitY=0.5;exitDx=0;exitDy=0;entryX=0;entryY=0.5;entryDx=0;entryDy=0;" edge="1" parent="1" source="ubrNMbJERg0ZYu2FDz6m-118" target="idY51j--czHx6IZsuclX-12">
          <mxGeometry relative="1" as="geometry" />
        </mxCell>
        <mxCell id="ubrNMbJERg0ZYu2FDz6m-118" value="Letra Latinas" style="rounded=0;whiteSpace=wrap;html=1;" vertex="1" parent="1">
          <mxGeometry x="1189.5" y="-520" width="120" height="30" as="geometry" />
        </mxCell>
        <mxCell id="idY51j--czHx6IZsuclX-14" style="edgeStyle=orthogonalEdgeStyle;rounded=0;orthogonalLoop=1;jettySize=auto;html=1;exitX=1;exitY=0.5;exitDx=0;exitDy=0;entryX=0;entryY=0.5;entryDx=0;entryDy=0;" edge="1" parent="1" source="ubrNMbJERg0ZYu2FDz6m-119" target="idY51j--czHx6IZsuclX-12">
          <mxGeometry relative="1" as="geometry" />
        </mxCell>
        <mxCell id="ubrNMbJERg0ZYu2FDz6m-119" value="Espaço&lt;span style=&quot;white-space: pre;&quot;&gt;&#x9;&lt;/span&gt;" style="rounded=0;whiteSpace=wrap;html=1;" vertex="1" parent="1">
          <mxGeometry x="1189.5" y="-480" width="120" height="30" as="geometry" />
        </mxCell>
        <mxCell id="idY51j--czHx6IZsuclX-15" style="edgeStyle=orthogonalEdgeStyle;rounded=0;orthogonalLoop=1;jettySize=auto;html=1;exitX=1;exitY=0.5;exitDx=0;exitDy=0;entryX=0;entryY=0.5;entryDx=0;entryDy=0;" edge="1" parent="1" source="ubrNMbJERg0ZYu2FDz6m-120" target="idY51j--czHx6IZsuclX-12">
          <mxGeometry relative="1" as="geometry" />
        </mxCell>
        <mxCell id="ubrNMbJERg0ZYu2FDz6m-120" value="Traço" style="rounded=0;whiteSpace=wrap;html=1;" vertex="1" parent="1">
          <mxGeometry x="1189.5" y="-440" width="120" height="30" as="geometry" />
        </mxCell>
        <mxCell id="idY51j--czHx6IZsuclX-16" style="edgeStyle=orthogonalEdgeStyle;rounded=0;orthogonalLoop=1;jettySize=auto;html=1;exitX=1;exitY=0.5;exitDx=0;exitDy=0;entryX=0;entryY=0.5;entryDx=0;entryDy=0;" edge="1" parent="1" source="ubrNMbJERg0ZYu2FDz6m-121" target="idY51j--czHx6IZsuclX-12">
          <mxGeometry relative="1" as="geometry" />
        </mxCell>
        <mxCell id="ubrNMbJERg0ZYu2FDz6m-121" value="Texto com 2 a 15 caracteres" style="rounded=0;whiteSpace=wrap;html=1;" vertex="1" parent="1">
          <mxGeometry x="1189.5" y="-400" width="170.5" height="30" as="geometry" />
        </mxCell>
        <mxCell id="idY51j--czHx6IZsuclX-18" style="edgeStyle=orthogonalEdgeStyle;rounded=0;orthogonalLoop=1;jettySize=auto;html=1;exitX=1;exitY=0.5;exitDx=0;exitDy=0;entryX=0;entryY=0.5;entryDx=0;entryDy=0;" edge="1" parent="1" source="ubrNMbJERg0ZYu2FDz6m-122" target="idY51j--czHx6IZsuclX-12">
          <mxGeometry relative="1" as="geometry" />
        </mxCell>
        <mxCell id="ubrNMbJERg0ZYu2FDz6m-122" value="Texto com 3 caracteres" style="rounded=0;whiteSpace=wrap;html=1;" vertex="1" parent="1">
          <mxGeometry x="1189.5" y="-320" width="150" height="30" as="geometry" />
        </mxCell>
        <mxCell id="idY51j--czHx6IZsuclX-17" style="edgeStyle=orthogonalEdgeStyle;rounded=0;orthogonalLoop=1;jettySize=auto;html=1;exitX=1;exitY=0.5;exitDx=0;exitDy=0;entryX=0;entryY=0.5;entryDx=0;entryDy=0;" edge="1" parent="1" source="ubrNMbJERg0ZYu2FDz6m-123" target="idY51j--czHx6IZsuclX-12">
          <mxGeometry relative="1" as="geometry" />
        </mxCell>
        <mxCell id="ubrNMbJERg0ZYu2FDz6m-123" value="Texto com 2 caracteres" style="rounded=0;whiteSpace=wrap;html=1;" vertex="1" parent="1">
          <mxGeometry x="1189.5" y="-360" width="150" height="30" as="geometry" />
        </mxCell>
        <mxCell id="idY51j--czHx6IZsuclX-19" style="edgeStyle=orthogonalEdgeStyle;rounded=0;orthogonalLoop=1;jettySize=auto;html=1;exitX=1;exitY=0.5;exitDx=0;exitDy=0;entryX=0;entryY=0.5;entryDx=0;entryDy=0;" edge="1" parent="1" source="ubrNMbJERg0ZYu2FDz6m-124" target="idY51j--czHx6IZsuclX-12">
          <mxGeometry relative="1" as="geometry" />
        </mxCell>
        <mxCell id="ubrNMbJERg0ZYu2FDz6m-124" value="Texto com 14 caracteres" style="rounded=0;whiteSpace=wrap;html=1;" vertex="1" parent="1">
          <mxGeometry x="1189.5" y="-280" width="150" height="30" as="geometry" />
        </mxCell>
        <mxCell id="idY51j--czHx6IZsuclX-20" style="edgeStyle=orthogonalEdgeStyle;rounded=0;orthogonalLoop=1;jettySize=auto;html=1;exitX=1;exitY=0.5;exitDx=0;exitDy=0;entryX=0;entryY=0.5;entryDx=0;entryDy=0;" edge="1" parent="1" source="ubrNMbJERg0ZYu2FDz6m-125" target="idY51j--czHx6IZsuclX-12">
          <mxGeometry relative="1" as="geometry" />
        </mxCell>
        <mxCell id="ubrNMbJERg0ZYu2FDz6m-125" value="Texto com 15 caracteres" style="rounded=0;whiteSpace=wrap;html=1;" vertex="1" parent="1">
          <mxGeometry x="1189.5" y="-240" width="150" height="30" as="geometry" />
        </mxCell>
        <mxCell id="ubrNMbJERg0ZYu2FDz6m-126" style="edgeStyle=orthogonalEdgeStyle;rounded=0;orthogonalLoop=1;jettySize=auto;html=1;exitX=1;exitY=0.5;exitDx=0;exitDy=0;entryX=0.25;entryY=0;entryDx=0;entryDy=0;" edge="1" parent="1" source="ubrNMbJERg0ZYu2FDz6m-127" target="ubrNMbJERg0ZYu2FDz6m-136">
          <mxGeometry relative="1" as="geometry" />
        </mxCell>
        <mxCell id="ubrNMbJERg0ZYu2FDz6m-127" value="Texto com 1 caracteres" style="rounded=0;whiteSpace=wrap;html=1;" vertex="1" parent="1">
          <mxGeometry x="1189.5" y="-200" width="150" height="30" as="geometry" />
        </mxCell>
        <mxCell id="ubrNMbJERg0ZYu2FDz6m-128" style="edgeStyle=orthogonalEdgeStyle;rounded=0;orthogonalLoop=1;jettySize=auto;html=1;exitX=1;exitY=0.5;exitDx=0;exitDy=0;entryX=0;entryY=0.25;entryDx=0;entryDy=0;" edge="1" parent="1" source="ubrNMbJERg0ZYu2FDz6m-129" target="ubrNMbJERg0ZYu2FDz6m-136">
          <mxGeometry relative="1" as="geometry" />
        </mxCell>
        <mxCell id="ubrNMbJERg0ZYu2FDz6m-129" value="Texto com 16 caracteres" style="rounded=0;whiteSpace=wrap;html=1;" vertex="1" parent="1">
          <mxGeometry x="1189.5" y="-160" width="150" height="30" as="geometry" />
        </mxCell>
        <mxCell id="ubrNMbJERg0ZYu2FDz6m-130" style="edgeStyle=orthogonalEdgeStyle;rounded=0;orthogonalLoop=1;jettySize=auto;html=1;exitX=1;exitY=0.5;exitDx=0;exitDy=0;entryX=0;entryY=0.5;entryDx=0;entryDy=0;" edge="1" parent="1" source="ubrNMbJERg0ZYu2FDz6m-131" target="ubrNMbJERg0ZYu2FDz6m-136">
          <mxGeometry relative="1" as="geometry" />
        </mxCell>
        <mxCell id="ubrNMbJERg0ZYu2FDz6m-131" value="Vazio" style="rounded=0;whiteSpace=wrap;html=1;" vertex="1" parent="1">
          <mxGeometry x="1189.5" y="-120" width="150" height="30" as="geometry" />
        </mxCell>
        <mxCell id="ubrNMbJERg0ZYu2FDz6m-132" style="edgeStyle=orthogonalEdgeStyle;rounded=0;orthogonalLoop=1;jettySize=auto;html=1;exitX=1;exitY=0.25;exitDx=0;exitDy=0;entryX=0;entryY=0.75;entryDx=0;entryDy=0;" edge="1" parent="1" source="ubrNMbJERg0ZYu2FDz6m-133" target="ubrNMbJERg0ZYu2FDz6m-136">
          <mxGeometry relative="1" as="geometry" />
        </mxCell>
        <mxCell id="ubrNMbJERg0ZYu2FDz6m-133" value="Texto com caracteres especiais" style="rounded=0;whiteSpace=wrap;html=1;" vertex="1" parent="1">
          <mxGeometry x="1189.5" y="-80" width="180" height="30" as="geometry" />
        </mxCell>
        <mxCell id="ubrNMbJERg0ZYu2FDz6m-134" style="edgeStyle=orthogonalEdgeStyle;rounded=0;orthogonalLoop=1;jettySize=auto;html=1;exitX=1;exitY=0.5;exitDx=0;exitDy=0;entryX=0.25;entryY=1;entryDx=0;entryDy=0;" edge="1" parent="1" source="ubrNMbJERg0ZYu2FDz6m-135" target="ubrNMbJERg0ZYu2FDz6m-136">
          <mxGeometry relative="1" as="geometry" />
        </mxCell>
        <mxCell id="ubrNMbJERg0ZYu2FDz6m-135" value="Texto com números" style="rounded=0;whiteSpace=wrap;html=1;" vertex="1" parent="1">
          <mxGeometry x="1189.5" y="-40" width="150" height="30" as="geometry" />
        </mxCell>
        <mxCell id="ubrNMbJERg0ZYu2FDz6m-136" value="Borada e Texto ficam vermelhos e é apresentado a frase de erro: &quot;Insira um sobrenome válido&quot;" style="rounded=0;whiteSpace=wrap;html=1;" vertex="1" parent="1">
          <mxGeometry x="1460" y="-155" width="180" height="100" as="geometry" />
        </mxCell>
        <mxCell id="ubrNMbJERg0ZYu2FDz6m-170" style="edgeStyle=orthogonalEdgeStyle;rounded=0;orthogonalLoop=1;jettySize=auto;html=1;exitX=0.5;exitY=0;exitDx=0;exitDy=0;entryX=0;entryY=0.5;entryDx=0;entryDy=0;" edge="1" parent="1" source="ubrNMbJERg0ZYu2FDz6m-183" target="ubrNMbJERg0ZYu2FDz6m-184">
          <mxGeometry relative="1" as="geometry" />
        </mxCell>
        <mxCell id="ubrNMbJERg0ZYu2FDz6m-171" style="edgeStyle=orthogonalEdgeStyle;rounded=0;orthogonalLoop=1;jettySize=auto;html=1;exitX=0.5;exitY=0;exitDx=0;exitDy=0;entryX=0;entryY=0.5;entryDx=0;entryDy=0;" edge="1" parent="1" source="ubrNMbJERg0ZYu2FDz6m-183" target="ubrNMbJERg0ZYu2FDz6m-185">
          <mxGeometry relative="1" as="geometry" />
        </mxCell>
        <mxCell id="ubrNMbJERg0ZYu2FDz6m-172" style="edgeStyle=orthogonalEdgeStyle;rounded=0;orthogonalLoop=1;jettySize=auto;html=1;exitX=0.5;exitY=0;exitDx=0;exitDy=0;entryX=0;entryY=0.5;entryDx=0;entryDy=0;" edge="1" parent="1" source="ubrNMbJERg0ZYu2FDz6m-183" target="ubrNMbJERg0ZYu2FDz6m-186">
          <mxGeometry relative="1" as="geometry" />
        </mxCell>
        <mxCell id="ubrNMbJERg0ZYu2FDz6m-173" style="edgeStyle=orthogonalEdgeStyle;rounded=0;orthogonalLoop=1;jettySize=auto;html=1;exitX=0.5;exitY=0;exitDx=0;exitDy=0;entryX=0;entryY=0.5;entryDx=0;entryDy=0;" edge="1" parent="1" source="ubrNMbJERg0ZYu2FDz6m-183" target="ubrNMbJERg0ZYu2FDz6m-201">
          <mxGeometry relative="1" as="geometry" />
        </mxCell>
        <mxCell id="ubrNMbJERg0ZYu2FDz6m-176" style="edgeStyle=orthogonalEdgeStyle;rounded=0;orthogonalLoop=1;jettySize=auto;html=1;exitX=1;exitY=0.5;exitDx=0;exitDy=0;entryX=0;entryY=0.5;entryDx=0;entryDy=0;" edge="1" parent="1" source="ubrNMbJERg0ZYu2FDz6m-183" target="ubrNMbJERg0ZYu2FDz6m-190">
          <mxGeometry relative="1" as="geometry" />
        </mxCell>
        <mxCell id="ubrNMbJERg0ZYu2FDz6m-177" style="edgeStyle=orthogonalEdgeStyle;rounded=0;orthogonalLoop=1;jettySize=auto;html=1;exitX=1;exitY=0.5;exitDx=0;exitDy=0;entryX=0;entryY=0.75;entryDx=0;entryDy=0;" edge="1" parent="1" source="ubrNMbJERg0ZYu2FDz6m-183" target="ubrNMbJERg0ZYu2FDz6m-191">
          <mxGeometry relative="1" as="geometry" />
        </mxCell>
        <mxCell id="ubrNMbJERg0ZYu2FDz6m-178" style="edgeStyle=orthogonalEdgeStyle;rounded=0;orthogonalLoop=1;jettySize=auto;html=1;exitX=0.5;exitY=1;exitDx=0;exitDy=0;entryX=0;entryY=0.5;entryDx=0;entryDy=0;" edge="1" parent="1" source="ubrNMbJERg0ZYu2FDz6m-183" target="ubrNMbJERg0ZYu2FDz6m-193">
          <mxGeometry relative="1" as="geometry">
            <Array as="points">
              <mxPoint x="1070" y="397" />
              <mxPoint x="1070" y="559" />
            </Array>
          </mxGeometry>
        </mxCell>
        <mxCell id="ubrNMbJERg0ZYu2FDz6m-179" style="edgeStyle=orthogonalEdgeStyle;rounded=0;orthogonalLoop=1;jettySize=auto;html=1;exitX=0.5;exitY=1;exitDx=0;exitDy=0;entryX=0;entryY=0.5;entryDx=0;entryDy=0;" edge="1" parent="1" source="ubrNMbJERg0ZYu2FDz6m-183" target="ubrNMbJERg0ZYu2FDz6m-195">
          <mxGeometry relative="1" as="geometry">
            <Array as="points">
              <mxPoint x="1070" y="397" />
              <mxPoint x="1070" y="599" />
            </Array>
          </mxGeometry>
        </mxCell>
        <mxCell id="ubrNMbJERg0ZYu2FDz6m-180" style="edgeStyle=orthogonalEdgeStyle;rounded=0;orthogonalLoop=1;jettySize=auto;html=1;exitX=0.5;exitY=1;exitDx=0;exitDy=0;entryX=0;entryY=0.5;entryDx=0;entryDy=0;" edge="1" parent="1" source="ubrNMbJERg0ZYu2FDz6m-183" target="ubrNMbJERg0ZYu2FDz6m-197">
          <mxGeometry relative="1" as="geometry">
            <Array as="points">
              <mxPoint x="1070" y="397" />
              <mxPoint x="1070" y="639" />
            </Array>
          </mxGeometry>
        </mxCell>
        <mxCell id="ubrNMbJERg0ZYu2FDz6m-181" style="edgeStyle=orthogonalEdgeStyle;rounded=0;orthogonalLoop=1;jettySize=auto;html=1;exitX=0.5;exitY=1;exitDx=0;exitDy=0;entryX=0;entryY=0.5;entryDx=0;entryDy=0;" edge="1" parent="1" source="ubrNMbJERg0ZYu2FDz6m-183" target="ubrNMbJERg0ZYu2FDz6m-199">
          <mxGeometry relative="1" as="geometry">
            <Array as="points">
              <mxPoint x="1070" y="397" />
              <mxPoint x="1070" y="679" />
            </Array>
          </mxGeometry>
        </mxCell>
        <mxCell id="ubrNMbJERg0ZYu2FDz6m-207" style="edgeStyle=orthogonalEdgeStyle;rounded=0;orthogonalLoop=1;jettySize=auto;html=1;exitX=0.5;exitY=0;exitDx=0;exitDy=0;entryX=0;entryY=0.5;entryDx=0;entryDy=0;" edge="1" parent="1" source="ubrNMbJERg0ZYu2FDz6m-183" target="ubrNMbJERg0ZYu2FDz6m-204">
          <mxGeometry relative="1" as="geometry" />
        </mxCell>
        <mxCell id="ubrNMbJERg0ZYu2FDz6m-208" style="edgeStyle=orthogonalEdgeStyle;rounded=0;orthogonalLoop=1;jettySize=auto;html=1;exitX=0.5;exitY=0;exitDx=0;exitDy=0;entryX=0;entryY=0.5;entryDx=0;entryDy=0;" edge="1" parent="1" source="ubrNMbJERg0ZYu2FDz6m-183" target="ubrNMbJERg0ZYu2FDz6m-205">
          <mxGeometry relative="1" as="geometry" />
        </mxCell>
        <mxCell id="ubrNMbJERg0ZYu2FDz6m-209" style="edgeStyle=orthogonalEdgeStyle;rounded=0;orthogonalLoop=1;jettySize=auto;html=1;exitX=0.5;exitY=0;exitDx=0;exitDy=0;entryX=0;entryY=0.5;entryDx=0;entryDy=0;" edge="1" parent="1" source="ubrNMbJERg0ZYu2FDz6m-183" target="ubrNMbJERg0ZYu2FDz6m-206">
          <mxGeometry relative="1" as="geometry" />
        </mxCell>
        <mxCell id="ubrNMbJERg0ZYu2FDz6m-312" style="edgeStyle=orthogonalEdgeStyle;rounded=0;orthogonalLoop=1;jettySize=auto;html=1;exitX=1;exitY=0.5;exitDx=0;exitDy=0;entryX=0;entryY=0.5;entryDx=0;entryDy=0;" edge="1" parent="1" source="ubrNMbJERg0ZYu2FDz6m-183" target="ubrNMbJERg0ZYu2FDz6m-187">
          <mxGeometry relative="1" as="geometry" />
        </mxCell>
        <mxCell id="ubrNMbJERg0ZYu2FDz6m-313" style="edgeStyle=orthogonalEdgeStyle;rounded=0;orthogonalLoop=1;jettySize=auto;html=1;exitX=1;exitY=0.5;exitDx=0;exitDy=0;entryX=0;entryY=0.5;entryDx=0;entryDy=0;" edge="1" parent="1" source="ubrNMbJERg0ZYu2FDz6m-183" target="ubrNMbJERg0ZYu2FDz6m-189">
          <mxGeometry relative="1" as="geometry" />
        </mxCell>
        <mxCell id="ubrNMbJERg0ZYu2FDz6m-314" style="edgeStyle=orthogonalEdgeStyle;rounded=0;orthogonalLoop=1;jettySize=auto;html=1;exitX=1;exitY=0.5;exitDx=0;exitDy=0;entryX=0;entryY=0.5;entryDx=0;entryDy=0;" edge="1" parent="1" source="ubrNMbJERg0ZYu2FDz6m-183" target="ubrNMbJERg0ZYu2FDz6m-188">
          <mxGeometry relative="1" as="geometry" />
        </mxCell>
        <mxCell id="ubrNMbJERg0ZYu2FDz6m-317" style="edgeStyle=orthogonalEdgeStyle;rounded=0;orthogonalLoop=1;jettySize=auto;html=1;exitX=0.5;exitY=1;exitDx=0;exitDy=0;entryX=0;entryY=0.5;entryDx=0;entryDy=0;" edge="1" parent="1" source="ubrNMbJERg0ZYu2FDz6m-183" target="ubrNMbJERg0ZYu2FDz6m-315">
          <mxGeometry relative="1" as="geometry">
            <Array as="points">
              <mxPoint x="1070" y="397" />
              <mxPoint x="1070" y="719" />
            </Array>
          </mxGeometry>
        </mxCell>
        <mxCell id="ubrNMbJERg0ZYu2FDz6m-183" value="* Endereço&amp;nbsp;" style="rounded=0;whiteSpace=wrap;html=1;" vertex="1" parent="1">
          <mxGeometry x="990" y="367" width="120" height="30" as="geometry" />
        </mxCell>
        <mxCell id="idY51j--czHx6IZsuclX-22" style="edgeStyle=orthogonalEdgeStyle;rounded=0;orthogonalLoop=1;jettySize=auto;html=1;exitX=1;exitY=0.5;exitDx=0;exitDy=0;entryX=0.5;entryY=0;entryDx=0;entryDy=0;" edge="1" parent="1" source="ubrNMbJERg0ZYu2FDz6m-184" target="idY51j--czHx6IZsuclX-21">
          <mxGeometry relative="1" as="geometry" />
        </mxCell>
        <mxCell id="ubrNMbJERg0ZYu2FDz6m-184" value="Letra Latinas" style="rounded=0;whiteSpace=wrap;html=1;" vertex="1" parent="1">
          <mxGeometry x="1189.5" y="55" width="120" height="30" as="geometry" />
        </mxCell>
        <mxCell id="idY51j--czHx6IZsuclX-23" style="edgeStyle=orthogonalEdgeStyle;rounded=0;orthogonalLoop=1;jettySize=auto;html=1;exitX=1;exitY=0.25;exitDx=0;exitDy=0;" edge="1" parent="1" source="ubrNMbJERg0ZYu2FDz6m-185">
          <mxGeometry relative="1" as="geometry">
            <mxPoint x="1550" y="210" as="targetPoint" />
          </mxGeometry>
        </mxCell>
        <mxCell id="ubrNMbJERg0ZYu2FDz6m-185" value="Espaço&lt;span style=&quot;white-space: pre;&quot;&gt;&#x9;&lt;/span&gt;" style="rounded=0;whiteSpace=wrap;html=1;" vertex="1" parent="1">
          <mxGeometry x="1189.5" y="95" width="120" height="30" as="geometry" />
        </mxCell>
        <mxCell id="idY51j--czHx6IZsuclX-24" style="edgeStyle=orthogonalEdgeStyle;rounded=0;orthogonalLoop=1;jettySize=auto;html=1;exitX=1;exitY=0.5;exitDx=0;exitDy=0;" edge="1" parent="1" source="ubrNMbJERg0ZYu2FDz6m-186">
          <mxGeometry relative="1" as="geometry">
            <mxPoint x="1550" y="210" as="targetPoint" />
          </mxGeometry>
        </mxCell>
        <mxCell id="ubrNMbJERg0ZYu2FDz6m-186" value="Traço" style="rounded=0;whiteSpace=wrap;html=1;" vertex="1" parent="1">
          <mxGeometry x="1189.5" y="135" width="120" height="30" as="geometry" />
        </mxCell>
        <mxCell id="idY51j--czHx6IZsuclX-29" style="edgeStyle=orthogonalEdgeStyle;rounded=0;orthogonalLoop=1;jettySize=auto;html=1;exitX=1;exitY=0.5;exitDx=0;exitDy=0;entryX=0.5;entryY=1;entryDx=0;entryDy=0;" edge="1" parent="1" source="ubrNMbJERg0ZYu2FDz6m-187" target="idY51j--czHx6IZsuclX-21">
          <mxGeometry relative="1" as="geometry" />
        </mxCell>
        <mxCell id="ubrNMbJERg0ZYu2FDz6m-187" value="Texto de 5 a 50 caracteres" style="rounded=0;whiteSpace=wrap;html=1;" vertex="1" parent="1">
          <mxGeometry x="1189.5" y="344" width="150" height="30" as="geometry" />
        </mxCell>
        <mxCell id="idY51j--czHx6IZsuclX-31" style="edgeStyle=orthogonalEdgeStyle;rounded=0;orthogonalLoop=1;jettySize=auto;html=1;exitX=1;exitY=0.5;exitDx=0;exitDy=0;entryX=0.5;entryY=1;entryDx=0;entryDy=0;" edge="1" parent="1" source="ubrNMbJERg0ZYu2FDz6m-188" target="idY51j--czHx6IZsuclX-21">
          <mxGeometry relative="1" as="geometry" />
        </mxCell>
        <mxCell id="ubrNMbJERg0ZYu2FDz6m-188" value="Texto com 4 caracteres" style="rounded=0;whiteSpace=wrap;html=1;" vertex="1" parent="1">
          <mxGeometry x="1189.5" y="424" width="150" height="30" as="geometry" />
        </mxCell>
        <mxCell id="idY51j--czHx6IZsuclX-30" style="edgeStyle=orthogonalEdgeStyle;rounded=0;orthogonalLoop=1;jettySize=auto;html=1;exitX=1;exitY=0.5;exitDx=0;exitDy=0;entryX=0.5;entryY=1;entryDx=0;entryDy=0;" edge="1" parent="1" source="ubrNMbJERg0ZYu2FDz6m-189" target="idY51j--czHx6IZsuclX-21">
          <mxGeometry relative="1" as="geometry" />
        </mxCell>
        <mxCell id="ubrNMbJERg0ZYu2FDz6m-189" value="Texto com 5 caracteres" style="rounded=0;whiteSpace=wrap;html=1;" vertex="1" parent="1">
          <mxGeometry x="1189.5" y="384" width="150" height="30" as="geometry" />
        </mxCell>
        <mxCell id="idY51j--czHx6IZsuclX-32" style="edgeStyle=orthogonalEdgeStyle;rounded=0;orthogonalLoop=1;jettySize=auto;html=1;exitX=1;exitY=0.25;exitDx=0;exitDy=0;entryX=0.5;entryY=1;entryDx=0;entryDy=0;" edge="1" parent="1" source="ubrNMbJERg0ZYu2FDz6m-190" target="idY51j--czHx6IZsuclX-21">
          <mxGeometry relative="1" as="geometry">
            <Array as="points">
              <mxPoint x="1340" y="479" />
              <mxPoint x="1550" y="479" />
            </Array>
          </mxGeometry>
        </mxCell>
        <mxCell id="ubrNMbJERg0ZYu2FDz6m-190" value="Texto com 49 caracteres" style="rounded=0;whiteSpace=wrap;html=1;" vertex="1" parent="1">
          <mxGeometry x="1189.5" y="464" width="150" height="30" as="geometry" />
        </mxCell>
        <mxCell id="idY51j--czHx6IZsuclX-33" style="edgeStyle=orthogonalEdgeStyle;rounded=0;orthogonalLoop=1;jettySize=auto;html=1;exitX=1;exitY=0.5;exitDx=0;exitDy=0;entryX=0.5;entryY=1;entryDx=0;entryDy=0;" edge="1" parent="1" source="ubrNMbJERg0ZYu2FDz6m-191" target="idY51j--czHx6IZsuclX-21">
          <mxGeometry relative="1" as="geometry" />
        </mxCell>
        <mxCell id="ubrNMbJERg0ZYu2FDz6m-191" value="Texto com 50 caracteres" style="rounded=0;whiteSpace=wrap;html=1;" vertex="1" parent="1">
          <mxGeometry x="1189.5" y="504" width="150" height="30" as="geometry" />
        </mxCell>
        <mxCell id="ubrNMbJERg0ZYu2FDz6m-192" style="edgeStyle=orthogonalEdgeStyle;rounded=0;orthogonalLoop=1;jettySize=auto;html=1;exitX=1;exitY=0.5;exitDx=0;exitDy=0;entryX=0.25;entryY=0;entryDx=0;entryDy=0;" edge="1" parent="1" source="ubrNMbJERg0ZYu2FDz6m-193" target="ubrNMbJERg0ZYu2FDz6m-202">
          <mxGeometry relative="1" as="geometry" />
        </mxCell>
        <mxCell id="ubrNMbJERg0ZYu2FDz6m-193" value="Texto com 4 caracteres" style="rounded=0;whiteSpace=wrap;html=1;" vertex="1" parent="1">
          <mxGeometry x="1189.5" y="544" width="150" height="30" as="geometry" />
        </mxCell>
        <mxCell id="ubrNMbJERg0ZYu2FDz6m-194" style="edgeStyle=orthogonalEdgeStyle;rounded=0;orthogonalLoop=1;jettySize=auto;html=1;exitX=1;exitY=0.5;exitDx=0;exitDy=0;entryX=0;entryY=0.25;entryDx=0;entryDy=0;" edge="1" parent="1" source="ubrNMbJERg0ZYu2FDz6m-195" target="ubrNMbJERg0ZYu2FDz6m-202">
          <mxGeometry relative="1" as="geometry" />
        </mxCell>
        <mxCell id="ubrNMbJERg0ZYu2FDz6m-195" value="Texto com 51 caracteres" style="rounded=0;whiteSpace=wrap;html=1;" vertex="1" parent="1">
          <mxGeometry x="1189.5" y="584" width="150" height="30" as="geometry" />
        </mxCell>
        <mxCell id="ubrNMbJERg0ZYu2FDz6m-196" style="edgeStyle=orthogonalEdgeStyle;rounded=0;orthogonalLoop=1;jettySize=auto;html=1;exitX=1;exitY=0.5;exitDx=0;exitDy=0;entryX=0;entryY=0.5;entryDx=0;entryDy=0;" edge="1" parent="1" source="ubrNMbJERg0ZYu2FDz6m-197" target="ubrNMbJERg0ZYu2FDz6m-202">
          <mxGeometry relative="1" as="geometry" />
        </mxCell>
        <mxCell id="ubrNMbJERg0ZYu2FDz6m-197" value="Vazio" style="rounded=0;whiteSpace=wrap;html=1;" vertex="1" parent="1">
          <mxGeometry x="1189.5" y="624" width="150" height="30" as="geometry" />
        </mxCell>
        <mxCell id="ubrNMbJERg0ZYu2FDz6m-198" style="edgeStyle=orthogonalEdgeStyle;rounded=0;orthogonalLoop=1;jettySize=auto;html=1;exitX=1;exitY=0.25;exitDx=0;exitDy=0;entryX=0;entryY=0.75;entryDx=0;entryDy=0;" edge="1" parent="1" source="ubrNMbJERg0ZYu2FDz6m-199" target="ubrNMbJERg0ZYu2FDz6m-202">
          <mxGeometry relative="1" as="geometry" />
        </mxCell>
        <mxCell id="ubrNMbJERg0ZYu2FDz6m-199" value="Texto com caracteres especiais" style="rounded=0;whiteSpace=wrap;html=1;" vertex="1" parent="1">
          <mxGeometry x="1189.5" y="664" width="180" height="30" as="geometry" />
        </mxCell>
        <mxCell id="idY51j--czHx6IZsuclX-28" style="edgeStyle=orthogonalEdgeStyle;rounded=0;orthogonalLoop=1;jettySize=auto;html=1;exitX=1;exitY=0.5;exitDx=0;exitDy=0;entryX=0;entryY=0.5;entryDx=0;entryDy=0;" edge="1" parent="1" source="ubrNMbJERg0ZYu2FDz6m-201" target="idY51j--czHx6IZsuclX-21">
          <mxGeometry relative="1" as="geometry" />
        </mxCell>
        <mxCell id="ubrNMbJERg0ZYu2FDz6m-201" value="Texto com números" style="rounded=0;whiteSpace=wrap;html=1;" vertex="1" parent="1">
          <mxGeometry x="1189.5" y="299" width="150" height="30" as="geometry" />
        </mxCell>
        <mxCell id="ubrNMbJERg0ZYu2FDz6m-202" value="Borada e Texto ficam vermelhos&amp;nbsp;e é apresentado a frase de erro: &quot;Insira um endereço válido&quot;" style="rounded=0;whiteSpace=wrap;html=1;" vertex="1" parent="1">
          <mxGeometry x="1440" y="570" width="200" height="105" as="geometry" />
        </mxCell>
        <mxCell id="idY51j--czHx6IZsuclX-25" style="edgeStyle=orthogonalEdgeStyle;rounded=0;orthogonalLoop=1;jettySize=auto;html=1;exitX=1;exitY=0.5;exitDx=0;exitDy=0;entryX=0;entryY=0.5;entryDx=0;entryDy=0;" edge="1" parent="1" source="ubrNMbJERg0ZYu2FDz6m-204" target="idY51j--czHx6IZsuclX-21">
          <mxGeometry relative="1" as="geometry" />
        </mxCell>
        <mxCell id="ubrNMbJERg0ZYu2FDz6m-204" value="Barras" style="rounded=0;whiteSpace=wrap;html=1;" vertex="1" parent="1">
          <mxGeometry x="1189.5" y="175" width="120" height="30" as="geometry" />
        </mxCell>
        <mxCell id="idY51j--czHx6IZsuclX-26" style="edgeStyle=orthogonalEdgeStyle;rounded=0;orthogonalLoop=1;jettySize=auto;html=1;exitX=1;exitY=0.5;exitDx=0;exitDy=0;entryX=0;entryY=0.5;entryDx=0;entryDy=0;" edge="1" parent="1" source="ubrNMbJERg0ZYu2FDz6m-205" target="idY51j--czHx6IZsuclX-21">
          <mxGeometry relative="1" as="geometry">
            <mxPoint x="1460" y="290" as="targetPoint" />
          </mxGeometry>
        </mxCell>
        <mxCell id="ubrNMbJERg0ZYu2FDz6m-205" value="Pontos" style="rounded=0;whiteSpace=wrap;html=1;" vertex="1" parent="1">
          <mxGeometry x="1189.5" y="215" width="120" height="30" as="geometry" />
        </mxCell>
        <mxCell id="idY51j--czHx6IZsuclX-27" style="edgeStyle=orthogonalEdgeStyle;rounded=0;orthogonalLoop=1;jettySize=auto;html=1;exitX=1;exitY=0.5;exitDx=0;exitDy=0;entryX=0;entryY=0.5;entryDx=0;entryDy=0;" edge="1" parent="1" source="ubrNMbJERg0ZYu2FDz6m-206" target="idY51j--czHx6IZsuclX-21">
          <mxGeometry relative="1" as="geometry" />
        </mxCell>
        <mxCell id="ubrNMbJERg0ZYu2FDz6m-206" value="Vírgulas" style="rounded=0;whiteSpace=wrap;html=1;" vertex="1" parent="1">
          <mxGeometry x="1189.5" y="255" width="120" height="30" as="geometry" />
        </mxCell>
        <mxCell id="ubrNMbJERg0ZYu2FDz6m-261" style="edgeStyle=orthogonalEdgeStyle;rounded=0;orthogonalLoop=1;jettySize=auto;html=1;exitX=0.75;exitY=0;exitDx=0;exitDy=0;entryX=0;entryY=0.5;entryDx=0;entryDy=0;" edge="1" parent="1" source="ubrNMbJERg0ZYu2FDz6m-211" target="ubrNMbJERg0ZYu2FDz6m-213">
          <mxGeometry relative="1" as="geometry" />
        </mxCell>
        <mxCell id="ubrNMbJERg0ZYu2FDz6m-211" value="* Estação de mêtro" style="rounded=0;whiteSpace=wrap;html=1;" vertex="1" parent="1">
          <mxGeometry x="499" y="299" width="130" height="30" as="geometry" />
        </mxCell>
        <mxCell id="ubrNMbJERg0ZYu2FDz6m-220" style="edgeStyle=orthogonalEdgeStyle;rounded=0;orthogonalLoop=1;jettySize=auto;html=1;exitX=0.5;exitY=1;exitDx=0;exitDy=0;entryX=0.5;entryY=0;entryDx=0;entryDy=0;" edge="1" parent="1" source="ubrNMbJERg0ZYu2FDz6m-213" target="ubrNMbJERg0ZYu2FDz6m-215">
          <mxGeometry relative="1" as="geometry" />
        </mxCell>
        <mxCell id="ubrNMbJERg0ZYu2FDz6m-309" style="edgeStyle=orthogonalEdgeStyle;rounded=0;orthogonalLoop=1;jettySize=auto;html=1;exitX=1;exitY=0.5;exitDx=0;exitDy=0;entryX=0;entryY=0.5;entryDx=0;entryDy=0;" edge="1" parent="1" source="ubrNMbJERg0ZYu2FDz6m-213" target="ubrNMbJERg0ZYu2FDz6m-308">
          <mxGeometry relative="1" as="geometry" />
        </mxCell>
        <mxCell id="ubrNMbJERg0ZYu2FDz6m-321" style="edgeStyle=orthogonalEdgeStyle;rounded=0;orthogonalLoop=1;jettySize=auto;html=1;exitX=1;exitY=0.5;exitDx=0;exitDy=0;entryX=0;entryY=0.5;entryDx=0;entryDy=0;" edge="1" parent="1" source="ubrNMbJERg0ZYu2FDz6m-213" target="ubrNMbJERg0ZYu2FDz6m-318">
          <mxGeometry relative="1" as="geometry" />
        </mxCell>
        <mxCell id="ubrNMbJERg0ZYu2FDz6m-322" style="edgeStyle=orthogonalEdgeStyle;rounded=0;orthogonalLoop=1;jettySize=auto;html=1;exitX=1;exitY=0.5;exitDx=0;exitDy=0;entryX=0;entryY=0.5;entryDx=0;entryDy=0;" edge="1" parent="1" source="ubrNMbJERg0ZYu2FDz6m-213" target="ubrNMbJERg0ZYu2FDz6m-319">
          <mxGeometry relative="1" as="geometry" />
        </mxCell>
        <mxCell id="ubrNMbJERg0ZYu2FDz6m-323" style="edgeStyle=orthogonalEdgeStyle;rounded=0;orthogonalLoop=1;jettySize=auto;html=1;exitX=1;exitY=0.5;exitDx=0;exitDy=0;entryX=0;entryY=0.5;entryDx=0;entryDy=0;" edge="1" parent="1" source="ubrNMbJERg0ZYu2FDz6m-213" target="ubrNMbJERg0ZYu2FDz6m-320">
          <mxGeometry relative="1" as="geometry" />
        </mxCell>
        <mxCell id="ubrNMbJERg0ZYu2FDz6m-213" value="Campo com seleção Suspensa" style="rounded=0;whiteSpace=wrap;html=1;" vertex="1" parent="1">
          <mxGeometry x="629" y="150" width="130" height="50" as="geometry" />
        </mxCell>
        <mxCell id="ubrNMbJERg0ZYu2FDz6m-219" value="" style="edgeStyle=orthogonalEdgeStyle;rounded=0;orthogonalLoop=1;jettySize=auto;html=1;" edge="1" parent="1" source="ubrNMbJERg0ZYu2FDz6m-215" target="ubrNMbJERg0ZYu2FDz6m-216">
          <mxGeometry relative="1" as="geometry" />
        </mxCell>
        <mxCell id="ubrNMbJERg0ZYu2FDz6m-215" value="Lista das estações de Los Angeles" style="rounded=0;whiteSpace=wrap;html=1;" vertex="1" parent="1">
          <mxGeometry x="629" y="220" width="130" height="50" as="geometry" />
        </mxCell>
        <mxCell id="ubrNMbJERg0ZYu2FDz6m-216" value="Amazenadas no Back-end da (API)" style="rounded=0;whiteSpace=wrap;html=1;" vertex="1" parent="1">
          <mxGeometry x="644" y="299" width="130" height="50" as="geometry" />
        </mxCell>
        <mxCell id="ubrNMbJERg0ZYu2FDz6m-224" style="edgeStyle=orthogonalEdgeStyle;rounded=0;orthogonalLoop=1;jettySize=auto;html=1;exitX=0.5;exitY=0;exitDx=0;exitDy=0;entryX=0;entryY=0.5;entryDx=0;entryDy=0;" edge="1" parent="1" source="ubrNMbJERg0ZYu2FDz6m-237" target="ubrNMbJERg0ZYu2FDz6m-241">
          <mxGeometry relative="1" as="geometry" />
        </mxCell>
        <mxCell id="ubrNMbJERg0ZYu2FDz6m-225" style="edgeStyle=orthogonalEdgeStyle;rounded=0;orthogonalLoop=1;jettySize=auto;html=1;exitX=0.5;exitY=0;exitDx=0;exitDy=0;entryX=0;entryY=0.5;entryDx=0;entryDy=0;" edge="1" parent="1" source="ubrNMbJERg0ZYu2FDz6m-237" target="ubrNMbJERg0ZYu2FDz6m-243">
          <mxGeometry relative="1" as="geometry" />
        </mxCell>
        <mxCell id="ubrNMbJERg0ZYu2FDz6m-226" style="edgeStyle=orthogonalEdgeStyle;rounded=0;orthogonalLoop=1;jettySize=auto;html=1;exitX=0.5;exitY=0;exitDx=0;exitDy=0;entryX=0;entryY=0.5;entryDx=0;entryDy=0;" edge="1" parent="1" source="ubrNMbJERg0ZYu2FDz6m-237" target="ubrNMbJERg0ZYu2FDz6m-242">
          <mxGeometry relative="1" as="geometry" />
        </mxCell>
        <mxCell id="ubrNMbJERg0ZYu2FDz6m-227" style="edgeStyle=orthogonalEdgeStyle;rounded=0;orthogonalLoop=1;jettySize=auto;html=1;exitX=0.75;exitY=0;exitDx=0;exitDy=0;entryX=0;entryY=0.5;entryDx=0;entryDy=0;" edge="1" parent="1" source="ubrNMbJERg0ZYu2FDz6m-237" target="ubrNMbJERg0ZYu2FDz6m-244">
          <mxGeometry relative="1" as="geometry" />
        </mxCell>
        <mxCell id="ubrNMbJERg0ZYu2FDz6m-228" style="edgeStyle=orthogonalEdgeStyle;rounded=0;orthogonalLoop=1;jettySize=auto;html=1;exitX=0.75;exitY=0;exitDx=0;exitDy=0;entryX=0;entryY=0.75;entryDx=0;entryDy=0;" edge="1" parent="1" source="ubrNMbJERg0ZYu2FDz6m-237" target="ubrNMbJERg0ZYu2FDz6m-245">
          <mxGeometry relative="1" as="geometry" />
        </mxCell>
        <mxCell id="ubrNMbJERg0ZYu2FDz6m-229" style="edgeStyle=orthogonalEdgeStyle;rounded=0;orthogonalLoop=1;jettySize=auto;html=1;exitX=0.75;exitY=0;exitDx=0;exitDy=0;entryX=0;entryY=0.5;entryDx=0;entryDy=0;" edge="1" parent="1" source="ubrNMbJERg0ZYu2FDz6m-237" target="ubrNMbJERg0ZYu2FDz6m-247">
          <mxGeometry relative="1" as="geometry" />
        </mxCell>
        <mxCell id="ubrNMbJERg0ZYu2FDz6m-230" style="edgeStyle=orthogonalEdgeStyle;rounded=0;orthogonalLoop=1;jettySize=auto;html=1;exitX=0.75;exitY=0;exitDx=0;exitDy=0;entryX=0;entryY=0.5;entryDx=0;entryDy=0;" edge="1" parent="1" source="ubrNMbJERg0ZYu2FDz6m-237" target="ubrNMbJERg0ZYu2FDz6m-249">
          <mxGeometry relative="1" as="geometry" />
        </mxCell>
        <mxCell id="ubrNMbJERg0ZYu2FDz6m-231" style="edgeStyle=orthogonalEdgeStyle;rounded=0;orthogonalLoop=1;jettySize=auto;html=1;exitX=1;exitY=0.5;exitDx=0;exitDy=0;entryX=0;entryY=0.5;entryDx=0;entryDy=0;" edge="1" parent="1" source="ubrNMbJERg0ZYu2FDz6m-237" target="ubrNMbJERg0ZYu2FDz6m-251">
          <mxGeometry relative="1" as="geometry" />
        </mxCell>
        <mxCell id="ubrNMbJERg0ZYu2FDz6m-232" style="edgeStyle=orthogonalEdgeStyle;rounded=0;orthogonalLoop=1;jettySize=auto;html=1;exitX=1;exitY=0.5;exitDx=0;exitDy=0;entryX=0;entryY=0.5;entryDx=0;entryDy=0;" edge="1" parent="1" source="ubrNMbJERg0ZYu2FDz6m-237" target="ubrNMbJERg0ZYu2FDz6m-253">
          <mxGeometry relative="1" as="geometry" />
        </mxCell>
        <mxCell id="ubrNMbJERg0ZYu2FDz6m-263" style="edgeStyle=orthogonalEdgeStyle;rounded=0;orthogonalLoop=1;jettySize=auto;html=1;exitX=0.75;exitY=0;exitDx=0;exitDy=0;entryX=0;entryY=0.25;entryDx=0;entryDy=0;" edge="1" parent="1" source="ubrNMbJERg0ZYu2FDz6m-237" target="ubrNMbJERg0ZYu2FDz6m-262">
          <mxGeometry relative="1" as="geometry" />
        </mxCell>
        <mxCell id="ubrNMbJERg0ZYu2FDz6m-268" style="edgeStyle=orthogonalEdgeStyle;rounded=0;orthogonalLoop=1;jettySize=auto;html=1;exitX=0.5;exitY=1;exitDx=0;exitDy=0;entryX=0;entryY=0.5;entryDx=0;entryDy=0;" edge="1" parent="1" source="ubrNMbJERg0ZYu2FDz6m-237" target="ubrNMbJERg0ZYu2FDz6m-238">
          <mxGeometry relative="1" as="geometry" />
        </mxCell>
        <mxCell id="ubrNMbJERg0ZYu2FDz6m-269" style="edgeStyle=orthogonalEdgeStyle;rounded=0;orthogonalLoop=1;jettySize=auto;html=1;exitX=0.5;exitY=1;exitDx=0;exitDy=0;entryX=0;entryY=0.5;entryDx=0;entryDy=0;" edge="1" parent="1" source="ubrNMbJERg0ZYu2FDz6m-237" target="ubrNMbJERg0ZYu2FDz6m-239">
          <mxGeometry relative="1" as="geometry" />
        </mxCell>
        <mxCell id="ubrNMbJERg0ZYu2FDz6m-270" style="edgeStyle=orthogonalEdgeStyle;rounded=0;orthogonalLoop=1;jettySize=auto;html=1;exitX=0.5;exitY=1;exitDx=0;exitDy=0;entryX=0;entryY=0.5;entryDx=0;entryDy=0;" edge="1" parent="1" source="ubrNMbJERg0ZYu2FDz6m-237" target="ubrNMbJERg0ZYu2FDz6m-240">
          <mxGeometry relative="1" as="geometry" />
        </mxCell>
        <mxCell id="ubrNMbJERg0ZYu2FDz6m-271" style="edgeStyle=orthogonalEdgeStyle;rounded=0;orthogonalLoop=1;jettySize=auto;html=1;exitX=0.5;exitY=1;exitDx=0;exitDy=0;entryX=0;entryY=0.5;entryDx=0;entryDy=0;" edge="1" parent="1" source="ubrNMbJERg0ZYu2FDz6m-237" target="ubrNMbJERg0ZYu2FDz6m-257">
          <mxGeometry relative="1" as="geometry" />
        </mxCell>
        <mxCell id="ubrNMbJERg0ZYu2FDz6m-237" value="* Telefone" style="rounded=0;whiteSpace=wrap;html=1;" vertex="1" parent="1">
          <mxGeometry x="449" y="726" width="120" height="30" as="geometry" />
        </mxCell>
        <mxCell id="ubrNMbJERg0ZYu2FDz6m-264" style="edgeStyle=orthogonalEdgeStyle;rounded=0;orthogonalLoop=1;jettySize=auto;html=1;exitX=1;exitY=0.5;exitDx=0;exitDy=0;entryX=0.5;entryY=1;entryDx=0;entryDy=0;" edge="1" parent="1" source="ubrNMbJERg0ZYu2FDz6m-238" target="ubrNMbJERg0ZYu2FDz6m-256">
          <mxGeometry relative="1" as="geometry" />
        </mxCell>
        <mxCell id="ubrNMbJERg0ZYu2FDz6m-238" value="Letra Latinas" style="rounded=0;whiteSpace=wrap;html=1;" vertex="1" parent="1">
          <mxGeometry x="649" y="810" width="120" height="30" as="geometry" />
        </mxCell>
        <mxCell id="ubrNMbJERg0ZYu2FDz6m-265" style="edgeStyle=orthogonalEdgeStyle;rounded=0;orthogonalLoop=1;jettySize=auto;html=1;exitX=1;exitY=0.5;exitDx=0;exitDy=0;entryX=0.5;entryY=1;entryDx=0;entryDy=0;" edge="1" parent="1" source="ubrNMbJERg0ZYu2FDz6m-239" target="ubrNMbJERg0ZYu2FDz6m-256">
          <mxGeometry relative="1" as="geometry" />
        </mxCell>
        <mxCell id="ubrNMbJERg0ZYu2FDz6m-239" value="Espaço&lt;span style=&quot;white-space: pre;&quot;&gt;&#x9;&lt;/span&gt;" style="rounded=0;whiteSpace=wrap;html=1;" vertex="1" parent="1">
          <mxGeometry x="649" y="850" width="120" height="30" as="geometry" />
        </mxCell>
        <mxCell id="ubrNMbJERg0ZYu2FDz6m-266" style="edgeStyle=orthogonalEdgeStyle;rounded=0;orthogonalLoop=1;jettySize=auto;html=1;exitX=1;exitY=0.5;exitDx=0;exitDy=0;entryX=0.5;entryY=1;entryDx=0;entryDy=0;" edge="1" parent="1" source="ubrNMbJERg0ZYu2FDz6m-240" target="ubrNMbJERg0ZYu2FDz6m-256">
          <mxGeometry relative="1" as="geometry">
            <mxPoint x="1030" y="750" as="targetPoint" />
          </mxGeometry>
        </mxCell>
        <mxCell id="ubrNMbJERg0ZYu2FDz6m-240" value="Traço" style="rounded=0;whiteSpace=wrap;html=1;" vertex="1" parent="1">
          <mxGeometry x="649" y="890" width="120" height="30" as="geometry" />
        </mxCell>
        <mxCell id="idY51j--czHx6IZsuclX-35" style="edgeStyle=orthogonalEdgeStyle;rounded=0;orthogonalLoop=1;jettySize=auto;html=1;exitX=1;exitY=0.5;exitDx=0;exitDy=0;entryX=0.5;entryY=0;entryDx=0;entryDy=0;" edge="1" parent="1" source="ubrNMbJERg0ZYu2FDz6m-241" target="idY51j--czHx6IZsuclX-34">
          <mxGeometry relative="1" as="geometry" />
        </mxCell>
        <mxCell id="ubrNMbJERg0ZYu2FDz6m-241" value="Números" style="rounded=0;whiteSpace=wrap;html=1;" vertex="1" parent="1">
          <mxGeometry x="649" y="414" width="150" height="30" as="geometry" />
        </mxCell>
        <mxCell id="idY51j--czHx6IZsuclX-37" style="edgeStyle=orthogonalEdgeStyle;rounded=0;orthogonalLoop=1;jettySize=auto;html=1;exitX=1;exitY=0.5;exitDx=0;exitDy=0;entryX=0;entryY=0.5;entryDx=0;entryDy=0;" edge="1" parent="1" source="ubrNMbJERg0ZYu2FDz6m-242" target="idY51j--czHx6IZsuclX-34">
          <mxGeometry relative="1" as="geometry" />
        </mxCell>
        <mxCell id="ubrNMbJERg0ZYu2FDz6m-242" value="Texto de 10 a 12 digitos" style="rounded=0;whiteSpace=wrap;html=1;" vertex="1" parent="1">
          <mxGeometry x="649" y="494" width="150" height="30" as="geometry" />
        </mxCell>
        <mxCell id="idY51j--czHx6IZsuclX-36" style="edgeStyle=orthogonalEdgeStyle;rounded=0;orthogonalLoop=1;jettySize=auto;html=1;exitX=1;exitY=0.5;exitDx=0;exitDy=0;entryX=0.5;entryY=0;entryDx=0;entryDy=0;" edge="1" parent="1" source="ubrNMbJERg0ZYu2FDz6m-243" target="idY51j--czHx6IZsuclX-34">
          <mxGeometry relative="1" as="geometry" />
        </mxCell>
        <mxCell id="ubrNMbJERg0ZYu2FDz6m-243" value="Caractere +" style="rounded=0;whiteSpace=wrap;html=1;" vertex="1" parent="1">
          <mxGeometry x="649" y="454" width="150" height="30" as="geometry" />
        </mxCell>
        <mxCell id="idY51j--czHx6IZsuclX-38" style="edgeStyle=orthogonalEdgeStyle;rounded=0;orthogonalLoop=1;jettySize=auto;html=1;exitX=1;exitY=0.5;exitDx=0;exitDy=0;entryX=0;entryY=0.5;entryDx=0;entryDy=0;" edge="1" parent="1" source="ubrNMbJERg0ZYu2FDz6m-244" target="idY51j--czHx6IZsuclX-34">
          <mxGeometry relative="1" as="geometry" />
        </mxCell>
        <mxCell id="ubrNMbJERg0ZYu2FDz6m-244" value="Texto de 10 digitos" style="rounded=0;whiteSpace=wrap;html=1;" vertex="1" parent="1">
          <mxGeometry x="649" y="534" width="150" height="30" as="geometry" />
        </mxCell>
        <mxCell id="idY51j--czHx6IZsuclX-39" style="edgeStyle=orthogonalEdgeStyle;rounded=0;orthogonalLoop=1;jettySize=auto;html=1;exitX=1;exitY=0.5;exitDx=0;exitDy=0;entryX=0.5;entryY=1;entryDx=0;entryDy=0;" edge="1" parent="1" source="ubrNMbJERg0ZYu2FDz6m-245" target="idY51j--czHx6IZsuclX-34">
          <mxGeometry relative="1" as="geometry" />
        </mxCell>
        <mxCell id="ubrNMbJERg0ZYu2FDz6m-245" value="Texto de 11 digitos" style="rounded=0;whiteSpace=wrap;html=1;" vertex="1" parent="1">
          <mxGeometry x="649" y="574" width="150" height="30" as="geometry" />
        </mxCell>
        <mxCell id="idY51j--czHx6IZsuclX-40" style="edgeStyle=orthogonalEdgeStyle;rounded=0;orthogonalLoop=1;jettySize=auto;html=1;exitX=1;exitY=0.5;exitDx=0;exitDy=0;entryX=0.5;entryY=1;entryDx=0;entryDy=0;" edge="1" parent="1" source="ubrNMbJERg0ZYu2FDz6m-247" target="idY51j--czHx6IZsuclX-34">
          <mxGeometry relative="1" as="geometry" />
        </mxCell>
        <mxCell id="ubrNMbJERg0ZYu2FDz6m-247" value="Texto de 12 digitos" style="rounded=0;whiteSpace=wrap;html=1;" vertex="1" parent="1">
          <mxGeometry x="649" y="614" width="150" height="30" as="geometry" />
        </mxCell>
        <mxCell id="ubrNMbJERg0ZYu2FDz6m-248" style="edgeStyle=orthogonalEdgeStyle;rounded=0;orthogonalLoop=1;jettySize=auto;html=1;exitX=1;exitY=0.5;exitDx=0;exitDy=0;entryX=0;entryY=0.25;entryDx=0;entryDy=0;" edge="1" parent="1" source="ubrNMbJERg0ZYu2FDz6m-249" target="ubrNMbJERg0ZYu2FDz6m-256">
          <mxGeometry relative="1" as="geometry" />
        </mxCell>
        <mxCell id="ubrNMbJERg0ZYu2FDz6m-249" value="Texto de 9 digitos" style="rounded=0;whiteSpace=wrap;html=1;" vertex="1" parent="1">
          <mxGeometry x="649" y="654" width="150" height="30" as="geometry" />
        </mxCell>
        <mxCell id="ubrNMbJERg0ZYu2FDz6m-250" style="edgeStyle=orthogonalEdgeStyle;rounded=0;orthogonalLoop=1;jettySize=auto;html=1;exitX=1;exitY=0.5;exitDx=0;exitDy=0;entryX=0;entryY=0.5;entryDx=0;entryDy=0;" edge="1" parent="1" source="ubrNMbJERg0ZYu2FDz6m-251" target="ubrNMbJERg0ZYu2FDz6m-256">
          <mxGeometry relative="1" as="geometry" />
        </mxCell>
        <mxCell id="ubrNMbJERg0ZYu2FDz6m-251" value="Vazio" style="rounded=0;whiteSpace=wrap;html=1;" vertex="1" parent="1">
          <mxGeometry x="647" y="730" width="150" height="30" as="geometry" />
        </mxCell>
        <mxCell id="ubrNMbJERg0ZYu2FDz6m-252" style="edgeStyle=orthogonalEdgeStyle;rounded=0;orthogonalLoop=1;jettySize=auto;html=1;exitX=1;exitY=0.25;exitDx=0;exitDy=0;entryX=0;entryY=0.75;entryDx=0;entryDy=0;" edge="1" parent="1" source="ubrNMbJERg0ZYu2FDz6m-253" target="ubrNMbJERg0ZYu2FDz6m-256">
          <mxGeometry relative="1" as="geometry" />
        </mxCell>
        <mxCell id="ubrNMbJERg0ZYu2FDz6m-253" value="Texto com caracteres especiais" style="rounded=0;whiteSpace=wrap;html=1;" vertex="1" parent="1">
          <mxGeometry x="647" y="770" width="180" height="30" as="geometry" />
        </mxCell>
        <mxCell id="ubrNMbJERg0ZYu2FDz6m-256" value="Texto fica vermelho e é apresentado a frase de erro: &quot;Insira um endereço válido&quot;" style="rounded=0;whiteSpace=wrap;html=1;" vertex="1" parent="1">
          <mxGeometry x="880" y="700" width="180" height="100" as="geometry" />
        </mxCell>
        <mxCell id="ubrNMbJERg0ZYu2FDz6m-267" style="edgeStyle=orthogonalEdgeStyle;rounded=0;orthogonalLoop=1;jettySize=auto;html=1;exitX=1;exitY=0.5;exitDx=0;exitDy=0;entryX=0.5;entryY=1;entryDx=0;entryDy=0;" edge="1" parent="1" source="ubrNMbJERg0ZYu2FDz6m-257" target="ubrNMbJERg0ZYu2FDz6m-256">
          <mxGeometry relative="1" as="geometry" />
        </mxCell>
        <mxCell id="ubrNMbJERg0ZYu2FDz6m-257" value="Barras" style="rounded=0;whiteSpace=wrap;html=1;" vertex="1" parent="1">
          <mxGeometry x="649" y="930" width="120" height="30" as="geometry" />
        </mxCell>
        <mxCell id="ubrNMbJERg0ZYu2FDz6m-262" value="Texto de 13 digitos" style="rounded=0;whiteSpace=wrap;html=1;" vertex="1" parent="1">
          <mxGeometry x="647" y="694" width="150" height="30" as="geometry" />
        </mxCell>
        <mxCell id="ubrNMbJERg0ZYu2FDz6m-280" style="edgeStyle=orthogonalEdgeStyle;rounded=0;orthogonalLoop=1;jettySize=auto;html=1;exitX=0;exitY=0.5;exitDx=0;exitDy=0;entryX=1;entryY=0.5;entryDx=0;entryDy=0;" edge="1" parent="1" source="ubrNMbJERg0ZYu2FDz6m-273" target="ubrNMbJERg0ZYu2FDz6m-276">
          <mxGeometry relative="1" as="geometry" />
        </mxCell>
        <mxCell id="ubrNMbJERg0ZYu2FDz6m-281" style="edgeStyle=orthogonalEdgeStyle;rounded=0;orthogonalLoop=1;jettySize=auto;html=1;exitX=0.5;exitY=1;exitDx=0;exitDy=0;entryX=1;entryY=0.5;entryDx=0;entryDy=0;" edge="1" parent="1" source="ubrNMbJERg0ZYu2FDz6m-273" target="ubrNMbJERg0ZYu2FDz6m-277">
          <mxGeometry relative="1" as="geometry" />
        </mxCell>
        <mxCell id="ubrNMbJERg0ZYu2FDz6m-282" style="edgeStyle=orthogonalEdgeStyle;rounded=0;orthogonalLoop=1;jettySize=auto;html=1;exitX=0.5;exitY=1;exitDx=0;exitDy=0;entryX=1;entryY=0.5;entryDx=0;entryDy=0;" edge="1" parent="1" source="ubrNMbJERg0ZYu2FDz6m-273" target="ubrNMbJERg0ZYu2FDz6m-278">
          <mxGeometry relative="1" as="geometry" />
        </mxCell>
        <mxCell id="ubrNMbJERg0ZYu2FDz6m-302" style="edgeStyle=orthogonalEdgeStyle;rounded=0;orthogonalLoop=1;jettySize=auto;html=1;exitX=0.5;exitY=1;exitDx=0;exitDy=0;entryX=1;entryY=0.5;entryDx=0;entryDy=0;" edge="1" parent="1" source="ubrNMbJERg0ZYu2FDz6m-273" target="ubrNMbJERg0ZYu2FDz6m-300">
          <mxGeometry relative="1" as="geometry" />
        </mxCell>
        <mxCell id="ubrNMbJERg0ZYu2FDz6m-273" value="Botões&amp;nbsp;" style="rounded=0;whiteSpace=wrap;html=1;" vertex="1" parent="1">
          <mxGeometry x="340" y="624" width="124" height="46" as="geometry" />
        </mxCell>
        <mxCell id="ubrNMbJERg0ZYu2FDz6m-285" style="edgeStyle=orthogonalEdgeStyle;rounded=0;orthogonalLoop=1;jettySize=auto;html=1;exitX=0;exitY=0.5;exitDx=0;exitDy=0;entryX=1;entryY=0.5;entryDx=0;entryDy=0;" edge="1" parent="1" source="ubrNMbJERg0ZYu2FDz6m-276" target="ubrNMbJERg0ZYu2FDz6m-284">
          <mxGeometry relative="1" as="geometry" />
        </mxCell>
        <mxCell id="ubrNMbJERg0ZYu2FDz6m-297" style="edgeStyle=orthogonalEdgeStyle;rounded=0;orthogonalLoop=1;jettySize=auto;html=1;exitX=0;exitY=0.5;exitDx=0;exitDy=0;entryX=1;entryY=0.5;entryDx=0;entryDy=0;" edge="1" parent="1" source="ubrNMbJERg0ZYu2FDz6m-276" target="ubrNMbJERg0ZYu2FDz6m-290">
          <mxGeometry relative="1" as="geometry" />
        </mxCell>
        <mxCell id="ubrNMbJERg0ZYu2FDz6m-276" value="Fazer pedido" style="rounded=0;whiteSpace=wrap;html=1;" vertex="1" parent="1">
          <mxGeometry x="150" y="694" width="124" height="46" as="geometry" />
        </mxCell>
        <mxCell id="ubrNMbJERg0ZYu2FDz6m-288" style="edgeStyle=orthogonalEdgeStyle;rounded=0;orthogonalLoop=1;jettySize=auto;html=1;exitX=0;exitY=0.25;exitDx=0;exitDy=0;entryX=1;entryY=0.5;entryDx=0;entryDy=0;" edge="1" parent="1" source="ubrNMbJERg0ZYu2FDz6m-277" target="ubrNMbJERg0ZYu2FDz6m-284">
          <mxGeometry relative="1" as="geometry" />
        </mxCell>
        <mxCell id="ubrNMbJERg0ZYu2FDz6m-277" value="Status do pedido" style="rounded=0;whiteSpace=wrap;html=1;" vertex="1" parent="1">
          <mxGeometry x="150" y="769" width="124" height="46" as="geometry" />
        </mxCell>
        <mxCell id="ubrNMbJERg0ZYu2FDz6m-293" value="" style="edgeStyle=orthogonalEdgeStyle;rounded=0;orthogonalLoop=1;jettySize=auto;html=1;" edge="1" parent="1" source="ubrNMbJERg0ZYu2FDz6m-278" target="ubrNMbJERg0ZYu2FDz6m-292">
          <mxGeometry relative="1" as="geometry" />
        </mxCell>
        <mxCell id="GoNkcsiwLbmAIzl6Nbj7-4" style="edgeStyle=orthogonalEdgeStyle;rounded=0;orthogonalLoop=1;jettySize=auto;html=1;exitX=0.5;exitY=0;exitDx=0;exitDy=0;entryX=1;entryY=0.5;entryDx=0;entryDy=0;" edge="1" parent="1" source="ubrNMbJERg0ZYu2FDz6m-278" target="GoNkcsiwLbmAIzl6Nbj7-2">
          <mxGeometry relative="1" as="geometry" />
        </mxCell>
        <mxCell id="ubrNMbJERg0ZYu2FDz6m-278" value="Avançar" style="rounded=0;whiteSpace=wrap;html=1;" vertex="1" parent="1">
          <mxGeometry x="150" y="920" width="124" height="46" as="geometry" />
        </mxCell>
        <mxCell id="ubrNMbJERg0ZYu2FDz6m-283" value="Abre um pop-up com o número do pedido NNNNN" style="rounded=0;whiteSpace=wrap;html=1;" vertex="1" parent="1">
          <mxGeometry x="-240" y="706" width="124" height="46" as="geometry" />
        </mxCell>
        <mxCell id="ubrNMbJERg0ZYu2FDz6m-286" style="edgeStyle=orthogonalEdgeStyle;rounded=0;orthogonalLoop=1;jettySize=auto;html=1;exitX=0;exitY=0.5;exitDx=0;exitDy=0;entryX=1;entryY=0.5;entryDx=0;entryDy=0;" edge="1" parent="1" source="ubrNMbJERg0ZYu2FDz6m-284" target="ubrNMbJERg0ZYu2FDz6m-283">
          <mxGeometry relative="1" as="geometry" />
        </mxCell>
        <mxCell id="ubrNMbJERg0ZYu2FDz6m-289" style="edgeStyle=orthogonalEdgeStyle;rounded=0;orthogonalLoop=1;jettySize=auto;html=1;exitX=0;exitY=0.5;exitDx=0;exitDy=0;entryX=1;entryY=0.5;entryDx=0;entryDy=0;" edge="1" parent="1" source="ubrNMbJERg0ZYu2FDz6m-284" target="ubrNMbJERg0ZYu2FDz6m-287">
          <mxGeometry relative="1" as="geometry" />
        </mxCell>
        <mxCell id="ubrNMbJERg0ZYu2FDz6m-284" value="Campos obrigatórios preenchidos" style="rounded=0;whiteSpace=wrap;html=1;" vertex="1" parent="1">
          <mxGeometry x="-40" y="734" width="124" height="46" as="geometry" />
        </mxCell>
        <mxCell id="ubrNMbJERg0ZYu2FDz6m-287" value="Informações do Pedido" style="rounded=0;whiteSpace=wrap;html=1;" vertex="1" parent="1">
          <mxGeometry x="-240" y="762" width="124" height="46" as="geometry" />
        </mxCell>
        <mxCell id="ubrNMbJERg0ZYu2FDz6m-299" value="" style="edgeStyle=orthogonalEdgeStyle;rounded=0;orthogonalLoop=1;jettySize=auto;html=1;" edge="1" parent="1" source="ubrNMbJERg0ZYu2FDz6m-290" target="ubrNMbJERg0ZYu2FDz6m-298">
          <mxGeometry relative="1" as="geometry" />
        </mxCell>
        <mxCell id="ubrNMbJERg0ZYu2FDz6m-290" value="Campos obrigatórios não preenchidos" style="rounded=0;whiteSpace=wrap;html=1;" vertex="1" parent="1">
          <mxGeometry x="-66" y="638" width="150" height="50" as="geometry" />
        </mxCell>
        <mxCell id="ubrNMbJERg0ZYu2FDz6m-295" value="" style="edgeStyle=orthogonalEdgeStyle;rounded=0;orthogonalLoop=1;jettySize=auto;html=1;" edge="1" parent="1" source="ubrNMbJERg0ZYu2FDz6m-292" target="ubrNMbJERg0ZYu2FDz6m-294">
          <mxGeometry relative="1" as="geometry" />
        </mxCell>
        <mxCell id="ubrNMbJERg0ZYu2FDz6m-292" value="Campos obrigatórios preenchidos" style="rounded=0;whiteSpace=wrap;html=1;" vertex="1" parent="1">
          <mxGeometry x="-20" y="920" width="124" height="46" as="geometry" />
        </mxCell>
        <mxCell id="GoNkcsiwLbmAIzl6Nbj7-159" style="edgeStyle=orthogonalEdgeStyle;rounded=0;orthogonalLoop=1;jettySize=auto;html=1;exitX=0.5;exitY=1;exitDx=0;exitDy=0;" edge="1" parent="1" source="ubrNMbJERg0ZYu2FDz6m-294" target="GoNkcsiwLbmAIzl6Nbj7-10">
          <mxGeometry relative="1" as="geometry">
            <Array as="points">
              <mxPoint x="-178" y="1160" />
              <mxPoint x="378" y="1160" />
            </Array>
          </mxGeometry>
        </mxCell>
        <mxCell id="ubrNMbJERg0ZYu2FDz6m-294" value="Abre a pagina Locação para continuar o cadastro = página Locação" style="rounded=0;whiteSpace=wrap;html=1;" vertex="1" parent="1">
          <mxGeometry x="-320" y="920" width="224" height="80" as="geometry" />
        </mxCell>
        <mxCell id="ubrNMbJERg0ZYu2FDz6m-298" value="Erro &quot;Insira o &amp;lt;nome no campo&amp;gt;" style="rounded=0;whiteSpace=wrap;html=1;" vertex="1" parent="1">
          <mxGeometry x="-330" y="638" width="184" height="50" as="geometry" />
        </mxCell>
        <mxCell id="ubrNMbJERg0ZYu2FDz6m-304" value="" style="edgeStyle=orthogonalEdgeStyle;rounded=0;orthogonalLoop=1;jettySize=auto;html=1;" edge="1" parent="1" source="ubrNMbJERg0ZYu2FDz6m-300" target="ubrNMbJERg0ZYu2FDz6m-303">
          <mxGeometry relative="1" as="geometry" />
        </mxCell>
        <mxCell id="ubrNMbJERg0ZYu2FDz6m-300" value="Voltar" style="whiteSpace=wrap;html=1;rounded=0;" vertex="1" parent="1">
          <mxGeometry x="154" y="984" width="120" height="50" as="geometry" />
        </mxCell>
        <mxCell id="ubrNMbJERg0ZYu2FDz6m-303" value="Volta a pagina anterior" style="whiteSpace=wrap;html=1;rounded=0;" vertex="1" parent="1">
          <mxGeometry x="-16" y="984" width="120" height="50" as="geometry" />
        </mxCell>
        <mxCell id="Tmo01gcyuTr2t_pflfpj-3" style="edgeStyle=orthogonalEdgeStyle;rounded=0;orthogonalLoop=1;jettySize=auto;html=1;exitX=0.5;exitY=0;exitDx=0;exitDy=0;entryX=0.25;entryY=1;entryDx=0;entryDy=0;" edge="1" parent="1" source="Tmo01gcyuTr2t_pflfpj-1" target="ubrNMbJERg0ZYu2FDz6m-16">
          <mxGeometry relative="1" as="geometry" />
        </mxCell>
        <mxCell id="Tmo01gcyuTr2t_pflfpj-4" style="edgeStyle=orthogonalEdgeStyle;rounded=0;orthogonalLoop=1;jettySize=auto;html=1;exitX=0.5;exitY=1;exitDx=0;exitDy=0;entryX=0.5;entryY=0;entryDx=0;entryDy=0;" edge="1" parent="1" source="Tmo01gcyuTr2t_pflfpj-1" target="ubrNMbJERg0ZYu2FDz6m-273">
          <mxGeometry relative="1" as="geometry">
            <mxPoint x="401.8571428571431" y="630" as="targetPoint" />
          </mxGeometry>
        </mxCell>
        <mxCell id="Tmo01gcyuTr2t_pflfpj-1" value="Funcionabilidade" style="rounded=0;whiteSpace=wrap;html=1;" vertex="1" parent="1">
          <mxGeometry x="342" y="304" width="120" height="56" as="geometry" />
        </mxCell>
        <mxCell id="ubrNMbJERg0ZYu2FDz6m-306" value="&lt;h4&gt;&lt;font style=&quot;font-size: 14px;&quot;&gt;&lt;b&gt;Página: Para quem é a scooter&lt;/b&gt;&lt;/font&gt;&lt;/h4&gt;" style="rounded=1;whiteSpace=wrap;html=1;strokeColor=#0F37FF;" vertex="1" parent="1">
          <mxGeometry x="174" y="215" width="220" height="45" as="geometry" />
        </mxCell>
        <mxCell id="ubrNMbJERg0ZYu2FDz6m-308" value="Estação Existente" style="rounded=0;whiteSpace=wrap;html=1;" vertex="1" parent="1">
          <mxGeometry x="800" y="150" width="120" height="30" as="geometry" />
        </mxCell>
        <mxCell id="ubrNMbJERg0ZYu2FDz6m-316" style="edgeStyle=orthogonalEdgeStyle;rounded=0;orthogonalLoop=1;jettySize=auto;html=1;exitX=1;exitY=0.5;exitDx=0;exitDy=0;entryX=0.5;entryY=1;entryDx=0;entryDy=0;" edge="1" parent="1" source="ubrNMbJERg0ZYu2FDz6m-315" target="ubrNMbJERg0ZYu2FDz6m-202">
          <mxGeometry relative="1" as="geometry" />
        </mxCell>
        <mxCell id="ubrNMbJERg0ZYu2FDz6m-315" value="Endereço inxesistente" style="rounded=0;whiteSpace=wrap;html=1;" vertex="1" parent="1">
          <mxGeometry x="1189.5" y="704" width="180" height="30" as="geometry" />
        </mxCell>
        <mxCell id="ubrNMbJERg0ZYu2FDz6m-318" value="Campo Obrigatório" style="rounded=0;whiteSpace=wrap;html=1;" vertex="1" parent="1">
          <mxGeometry x="800" y="190" width="120" height="30" as="geometry" />
        </mxCell>
        <mxCell id="ubrNMbJERg0ZYu2FDz6m-319" value="Campo Vázio" style="rounded=0;whiteSpace=wrap;html=1;" vertex="1" parent="1">
          <mxGeometry x="800" y="230" width="120" height="30" as="geometry" />
        </mxCell>
        <mxCell id="ubrNMbJERg0ZYu2FDz6m-320" value="Estação Inexistente" style="rounded=0;whiteSpace=wrap;html=1;" vertex="1" parent="1">
          <mxGeometry x="800" y="269" width="120" height="30" as="geometry" />
        </mxCell>
        <mxCell id="GoNkcsiwLbmAIzl6Nbj7-1" value="" style="edgeStyle=orthogonalEdgeStyle;rounded=0;orthogonalLoop=1;jettySize=auto;html=1;" edge="1" parent="1" source="GoNkcsiwLbmAIzl6Nbj7-2" target="GoNkcsiwLbmAIzl6Nbj7-3">
          <mxGeometry relative="1" as="geometry" />
        </mxCell>
        <mxCell id="GoNkcsiwLbmAIzl6Nbj7-2" value="Campos obrigatórios não preenchidos" style="rounded=0;whiteSpace=wrap;html=1;" vertex="1" parent="1">
          <mxGeometry x="-46" y="830" width="150" height="50" as="geometry" />
        </mxCell>
        <mxCell id="GoNkcsiwLbmAIzl6Nbj7-3" value="Erro &quot;Insira o &amp;lt;nome no campo&amp;gt;" style="rounded=0;whiteSpace=wrap;html=1;" vertex="1" parent="1">
          <mxGeometry x="-310" y="830" width="184" height="50" as="geometry" />
        </mxCell>
        <mxCell id="GoNkcsiwLbmAIzl6Nbj7-7" value="&lt;h4&gt;&lt;font style=&quot;font-size: 14px;&quot;&gt;&lt;b&gt;Página: Locação&lt;/b&gt;&lt;/font&gt;&lt;/h4&gt;" style="rounded=1;whiteSpace=wrap;html=1;strokeColor=#0F37FF;" vertex="1" parent="1">
          <mxGeometry x="174" y="1212.5" width="180" height="45" as="geometry" />
        </mxCell>
        <mxCell id="GoNkcsiwLbmAIzl6Nbj7-8" style="edgeStyle=orthogonalEdgeStyle;rounded=0;orthogonalLoop=1;jettySize=auto;html=1;exitX=0;exitY=0.5;exitDx=0;exitDy=0;entryX=1;entryY=0.5;entryDx=0;entryDy=0;" edge="1" parent="1" source="GoNkcsiwLbmAIzl6Nbj7-10" target="GoNkcsiwLbmAIzl6Nbj7-15">
          <mxGeometry relative="1" as="geometry" />
        </mxCell>
        <mxCell id="GoNkcsiwLbmAIzl6Nbj7-9" style="edgeStyle=orthogonalEdgeStyle;rounded=0;orthogonalLoop=1;jettySize=auto;html=1;exitX=1;exitY=0.5;exitDx=0;exitDy=0;entryX=0;entryY=0.5;entryDx=0;entryDy=0;" edge="1" parent="1" source="GoNkcsiwLbmAIzl6Nbj7-10" target="GoNkcsiwLbmAIzl6Nbj7-18">
          <mxGeometry relative="1" as="geometry" />
        </mxCell>
        <mxCell id="GoNkcsiwLbmAIzl6Nbj7-10" value="Início: Locação" style="rounded=1;whiteSpace=wrap;html=1;" vertex="1" parent="1">
          <mxGeometry x="318" y="1600.5" width="120" height="60" as="geometry" />
        </mxCell>
        <mxCell id="GoNkcsiwLbmAIzl6Nbj7-11" style="edgeStyle=orthogonalEdgeStyle;rounded=0;orthogonalLoop=1;jettySize=auto;html=1;exitX=0.75;exitY=0;exitDx=0;exitDy=0;entryX=1;entryY=0.5;entryDx=0;entryDy=0;" edge="1" parent="1" source="GoNkcsiwLbmAIzl6Nbj7-15" target="GoNkcsiwLbmAIzl6Nbj7-30">
          <mxGeometry relative="1" as="geometry" />
        </mxCell>
        <mxCell id="GoNkcsiwLbmAIzl6Nbj7-12" style="edgeStyle=orthogonalEdgeStyle;rounded=0;orthogonalLoop=1;jettySize=auto;html=1;exitX=0.75;exitY=0;exitDx=0;exitDy=0;entryX=1;entryY=0.5;entryDx=0;entryDy=0;" edge="1" parent="1" source="GoNkcsiwLbmAIzl6Nbj7-15" target="GoNkcsiwLbmAIzl6Nbj7-37">
          <mxGeometry relative="1" as="geometry" />
        </mxCell>
        <mxCell id="GoNkcsiwLbmAIzl6Nbj7-13" style="edgeStyle=orthogonalEdgeStyle;rounded=0;orthogonalLoop=1;jettySize=auto;html=1;exitX=0.75;exitY=0;exitDx=0;exitDy=0;entryX=1;entryY=0.5;entryDx=0;entryDy=0;" edge="1" parent="1" source="GoNkcsiwLbmAIzl6Nbj7-15" target="GoNkcsiwLbmAIzl6Nbj7-43">
          <mxGeometry relative="1" as="geometry" />
        </mxCell>
        <mxCell id="GoNkcsiwLbmAIzl6Nbj7-14" style="edgeStyle=orthogonalEdgeStyle;rounded=0;orthogonalLoop=1;jettySize=auto;html=1;exitX=0;exitY=0.5;exitDx=0;exitDy=0;" edge="1" parent="1" source="GoNkcsiwLbmAIzl6Nbj7-15" target="GoNkcsiwLbmAIzl6Nbj7-62">
          <mxGeometry relative="1" as="geometry" />
        </mxCell>
        <mxCell id="GoNkcsiwLbmAIzl6Nbj7-15" value="Interface" style="rounded=0;whiteSpace=wrap;html=1;" vertex="1" parent="1">
          <mxGeometry x="146" y="1602.5" width="120" height="56" as="geometry" />
        </mxCell>
        <mxCell id="GoNkcsiwLbmAIzl6Nbj7-16" style="edgeStyle=orthogonalEdgeStyle;rounded=0;orthogonalLoop=1;jettySize=auto;html=1;exitX=0.25;exitY=0;exitDx=0;exitDy=0;entryX=0;entryY=0.5;entryDx=0;entryDy=0;" edge="1" parent="1" source="GoNkcsiwLbmAIzl6Nbj7-18" target="GoNkcsiwLbmAIzl6Nbj7-73">
          <mxGeometry relative="1" as="geometry" />
        </mxCell>
        <mxCell id="GoNkcsiwLbmAIzl6Nbj7-17" style="edgeStyle=orthogonalEdgeStyle;rounded=0;orthogonalLoop=1;jettySize=auto;html=1;exitX=0.5;exitY=1;exitDx=0;exitDy=0;" edge="1" parent="1" source="GoNkcsiwLbmAIzl6Nbj7-18" target="GoNkcsiwLbmAIzl6Nbj7-136">
          <mxGeometry relative="1" as="geometry" />
        </mxCell>
        <mxCell id="GoNkcsiwLbmAIzl6Nbj7-18" value="Funcionabilidade" style="rounded=0;whiteSpace=wrap;html=1;" vertex="1" parent="1">
          <mxGeometry x="486" y="1602.5" width="120" height="56" as="geometry" />
        </mxCell>
        <mxCell id="GoNkcsiwLbmAIzl6Nbj7-19" style="edgeStyle=orthogonalEdgeStyle;rounded=0;orthogonalLoop=1;jettySize=auto;html=1;exitX=0.5;exitY=0;exitDx=0;exitDy=0;entryX=1;entryY=0.5;entryDx=0;entryDy=0;" edge="1" parent="1" source="GoNkcsiwLbmAIzl6Nbj7-21" target="GoNkcsiwLbmAIzl6Nbj7-26">
          <mxGeometry relative="1" as="geometry" />
        </mxCell>
        <mxCell id="GoNkcsiwLbmAIzl6Nbj7-20" style="edgeStyle=orthogonalEdgeStyle;rounded=0;orthogonalLoop=1;jettySize=auto;html=1;exitX=0;exitY=0.5;exitDx=0;exitDy=0;entryX=1;entryY=0.5;entryDx=0;entryDy=0;" edge="1" parent="1" source="GoNkcsiwLbmAIzl6Nbj7-21" target="GoNkcsiwLbmAIzl6Nbj7-35">
          <mxGeometry relative="1" as="geometry" />
        </mxCell>
        <mxCell id="GoNkcsiwLbmAIzl6Nbj7-21" value="Logotipo do Urban Scooter" style="rounded=0;whiteSpace=wrap;html=1;" vertex="1" parent="1">
          <mxGeometry x="-280" y="1232.5" width="158" height="30" as="geometry" />
        </mxCell>
        <mxCell id="GoNkcsiwLbmAIzl6Nbj7-22" value="Sem Fundo&lt;br&gt;Letra cor Preto" style="rounded=0;whiteSpace=wrap;html=1;" vertex="1" parent="1">
          <mxGeometry x="-450" y="1327.5" width="120" height="40" as="geometry" />
        </mxCell>
        <mxCell id="GoNkcsiwLbmAIzl6Nbj7-23" value="Fundo Preto&amp;nbsp;&lt;br&gt;Letra cor Branco" style="rounded=0;whiteSpace=wrap;html=1;" vertex="1" parent="1">
          <mxGeometry x="-450" y="1272.5" width="120" height="40" as="geometry" />
        </mxCell>
        <mxCell id="GoNkcsiwLbmAIzl6Nbj7-24" value="Cor Cinza" style="rounded=0;whiteSpace=wrap;html=1;" vertex="1" parent="1">
          <mxGeometry x="-620" y="1195" width="120" height="25" as="geometry" />
        </mxCell>
        <mxCell id="GoNkcsiwLbmAIzl6Nbj7-25" style="edgeStyle=orthogonalEdgeStyle;rounded=0;orthogonalLoop=1;jettySize=auto;html=1;exitX=0;exitY=0.5;exitDx=0;exitDy=0;entryX=1;entryY=0.5;entryDx=0;entryDy=0;" edge="1" parent="1" source="GoNkcsiwLbmAIzl6Nbj7-26" target="GoNkcsiwLbmAIzl6Nbj7-24">
          <mxGeometry relative="1" as="geometry" />
        </mxCell>
        <mxCell id="GoNkcsiwLbmAIzl6Nbj7-26" value="Plataforma Interativa&amp;nbsp;" style="rounded=0;whiteSpace=wrap;html=1;" vertex="1" parent="1">
          <mxGeometry x="-450" y="1192.5" width="120" height="30" as="geometry" />
        </mxCell>
        <mxCell id="GoNkcsiwLbmAIzl6Nbj7-27" style="edgeStyle=orthogonalEdgeStyle;rounded=0;orthogonalLoop=1;jettySize=auto;html=1;exitX=0;exitY=0.333;exitDx=0;exitDy=0;entryX=1;entryY=0.5;entryDx=0;entryDy=0;exitPerimeter=0;" edge="1" parent="1" target="GoNkcsiwLbmAIzl6Nbj7-21">
          <mxGeometry relative="1" as="geometry">
            <mxPoint x="-82" y="1287.49" as="sourcePoint" />
          </mxGeometry>
        </mxCell>
        <mxCell id="GoNkcsiwLbmAIzl6Nbj7-28" style="edgeStyle=orthogonalEdgeStyle;rounded=0;orthogonalLoop=1;jettySize=auto;html=1;exitX=0;exitY=0.5;exitDx=0;exitDy=0;entryX=1;entryY=0.5;entryDx=0;entryDy=0;" edge="1" parent="1" target="GoNkcsiwLbmAIzl6Nbj7-32">
          <mxGeometry relative="1" as="geometry">
            <mxPoint x="-82" y="1292.5" as="sourcePoint" />
          </mxGeometry>
        </mxCell>
        <mxCell id="GoNkcsiwLbmAIzl6Nbj7-29" style="edgeStyle=orthogonalEdgeStyle;rounded=0;orthogonalLoop=1;jettySize=auto;html=1;exitX=0;exitY=0.75;exitDx=0;exitDy=0;entryX=1;entryY=0.5;entryDx=0;entryDy=0;" edge="1" parent="1" target="GoNkcsiwLbmAIzl6Nbj7-34">
          <mxGeometry relative="1" as="geometry">
            <mxPoint x="-82" y="1300" as="sourcePoint" />
          </mxGeometry>
        </mxCell>
        <mxCell id="GoNkcsiwLbmAIzl6Nbj7-30" value="Cabeçario" style="rounded=0;whiteSpace=wrap;html=1;" vertex="1" parent="1">
          <mxGeometry x="-82" y="1277.5" width="120" height="30" as="geometry" />
        </mxCell>
        <mxCell id="GoNkcsiwLbmAIzl6Nbj7-31" style="edgeStyle=orthogonalEdgeStyle;rounded=0;orthogonalLoop=1;jettySize=auto;html=1;exitX=0;exitY=0.5;exitDx=0;exitDy=0;entryX=1;entryY=0.5;entryDx=0;entryDy=0;" edge="1" parent="1" source="GoNkcsiwLbmAIzl6Nbj7-32" target="GoNkcsiwLbmAIzl6Nbj7-23">
          <mxGeometry relative="1" as="geometry" />
        </mxCell>
        <mxCell id="GoNkcsiwLbmAIzl6Nbj7-32" value="Botão Fazer pedido" style="rounded=0;whiteSpace=wrap;html=1;" vertex="1" parent="1">
          <mxGeometry x="-280" y="1277.5" width="158" height="30" as="geometry" />
        </mxCell>
        <mxCell id="GoNkcsiwLbmAIzl6Nbj7-33" style="edgeStyle=orthogonalEdgeStyle;rounded=0;orthogonalLoop=1;jettySize=auto;html=1;exitX=0;exitY=0.5;exitDx=0;exitDy=0;entryX=1;entryY=0.5;entryDx=0;entryDy=0;" edge="1" parent="1" source="GoNkcsiwLbmAIzl6Nbj7-34" target="GoNkcsiwLbmAIzl6Nbj7-22">
          <mxGeometry relative="1" as="geometry" />
        </mxCell>
        <mxCell id="GoNkcsiwLbmAIzl6Nbj7-34" value="Botão Status do pedido" style="rounded=0;whiteSpace=wrap;html=1;" vertex="1" parent="1">
          <mxGeometry x="-280" y="1332.5" width="158" height="30" as="geometry" />
        </mxCell>
        <mxCell id="GoNkcsiwLbmAIzl6Nbj7-35" value="Cor Preto" style="rounded=0;whiteSpace=wrap;html=1;" vertex="1" parent="1">
          <mxGeometry x="-450" y="1235" width="120" height="25" as="geometry" />
        </mxCell>
        <mxCell id="GoNkcsiwLbmAIzl6Nbj7-36" style="edgeStyle=orthogonalEdgeStyle;rounded=0;orthogonalLoop=1;jettySize=auto;html=1;exitX=0;exitY=0.5;exitDx=0;exitDy=0;entryX=1;entryY=0.5;entryDx=0;entryDy=0;" edge="1" parent="1" source="GoNkcsiwLbmAIzl6Nbj7-37" target="GoNkcsiwLbmAIzl6Nbj7-38">
          <mxGeometry relative="1" as="geometry" />
        </mxCell>
        <mxCell id="GoNkcsiwLbmAIzl6Nbj7-37" value="Título&amp;nbsp;" style="rounded=0;whiteSpace=wrap;html=1;" vertex="1" parent="1">
          <mxGeometry x="89" y="1332.5" width="110" height="30" as="geometry" />
        </mxCell>
        <mxCell id="GoNkcsiwLbmAIzl6Nbj7-38" value="Locação" style="rounded=0;whiteSpace=wrap;html=1;" vertex="1" parent="1">
          <mxGeometry x="-66" y="1332.5" width="98" height="30" as="geometry" />
        </mxCell>
        <mxCell id="GoNkcsiwLbmAIzl6Nbj7-39" style="edgeStyle=orthogonalEdgeStyle;rounded=0;orthogonalLoop=1;jettySize=auto;html=1;exitX=0;exitY=0.5;exitDx=0;exitDy=0;entryX=1;entryY=0.5;entryDx=0;entryDy=0;" edge="1" parent="1" source="GoNkcsiwLbmAIzl6Nbj7-43" target="GoNkcsiwLbmAIzl6Nbj7-46">
          <mxGeometry relative="1" as="geometry" />
        </mxCell>
        <mxCell id="GoNkcsiwLbmAIzl6Nbj7-40" style="edgeStyle=orthogonalEdgeStyle;rounded=0;orthogonalLoop=1;jettySize=auto;html=1;exitX=0.25;exitY=1;exitDx=0;exitDy=0;entryX=1;entryY=0.5;entryDx=0;entryDy=0;" edge="1" parent="1" source="GoNkcsiwLbmAIzl6Nbj7-43" target="GoNkcsiwLbmAIzl6Nbj7-48">
          <mxGeometry relative="1" as="geometry" />
        </mxCell>
        <mxCell id="GoNkcsiwLbmAIzl6Nbj7-41" style="edgeStyle=orthogonalEdgeStyle;rounded=0;orthogonalLoop=1;jettySize=auto;html=1;exitX=0.25;exitY=1;exitDx=0;exitDy=0;entryX=1;entryY=0.5;entryDx=0;entryDy=0;" edge="1" parent="1" source="GoNkcsiwLbmAIzl6Nbj7-43" target="GoNkcsiwLbmAIzl6Nbj7-52">
          <mxGeometry relative="1" as="geometry" />
        </mxCell>
        <mxCell id="GoNkcsiwLbmAIzl6Nbj7-42" style="edgeStyle=orthogonalEdgeStyle;rounded=0;orthogonalLoop=1;jettySize=auto;html=1;exitX=0.5;exitY=1;exitDx=0;exitDy=0;entryX=1;entryY=0.5;entryDx=0;entryDy=0;" edge="1" parent="1" source="GoNkcsiwLbmAIzl6Nbj7-43" target="GoNkcsiwLbmAIzl6Nbj7-54">
          <mxGeometry relative="1" as="geometry" />
        </mxCell>
        <mxCell id="GoNkcsiwLbmAIzl6Nbj7-43" value="Campos" style="rounded=0;whiteSpace=wrap;html=1;" vertex="1" parent="1">
          <mxGeometry x="84" y="1392.5" width="120" height="30" as="geometry" />
        </mxCell>
        <mxCell id="GoNkcsiwLbmAIzl6Nbj7-44" style="edgeStyle=orthogonalEdgeStyle;rounded=0;orthogonalLoop=1;jettySize=auto;html=1;exitX=0;exitY=0.5;exitDx=0;exitDy=0;entryX=1;entryY=0.25;entryDx=0;entryDy=0;" edge="1" parent="1" source="GoNkcsiwLbmAIzl6Nbj7-46" target="GoNkcsiwLbmAIzl6Nbj7-59">
          <mxGeometry relative="1" as="geometry">
            <Array as="points">
              <mxPoint x="-256" y="1407.5" />
              <mxPoint x="-256" y="1444.5" />
            </Array>
          </mxGeometry>
        </mxCell>
        <mxCell id="GoNkcsiwLbmAIzl6Nbj7-45" style="edgeStyle=orthogonalEdgeStyle;rounded=0;orthogonalLoop=1;jettySize=auto;html=1;exitX=0;exitY=0.25;exitDx=0;exitDy=0;entryX=1;entryY=0.5;entryDx=0;entryDy=0;" edge="1" parent="1" source="GoNkcsiwLbmAIzl6Nbj7-46" target="GoNkcsiwLbmAIzl6Nbj7-156">
          <mxGeometry relative="1" as="geometry">
            <Array as="points">
              <mxPoint x="-500" y="1400" />
              <mxPoint x="-500" y="1270" />
            </Array>
          </mxGeometry>
        </mxCell>
        <mxCell id="GoNkcsiwLbmAIzl6Nbj7-46" value="* Quando entregar a scooter" style="rounded=0;whiteSpace=wrap;html=1;" vertex="1" parent="1">
          <mxGeometry x="-106" y="1392.5" width="160" height="30" as="geometry" />
        </mxCell>
        <mxCell id="GoNkcsiwLbmAIzl6Nbj7-47" style="edgeStyle=orthogonalEdgeStyle;rounded=0;orthogonalLoop=1;jettySize=auto;html=1;exitX=0;exitY=0.5;exitDx=0;exitDy=0;entryX=1;entryY=0.25;entryDx=0;entryDy=0;" edge="1" parent="1" source="GoNkcsiwLbmAIzl6Nbj7-48" target="GoNkcsiwLbmAIzl6Nbj7-59">
          <mxGeometry relative="1" as="geometry">
            <mxPoint x="-156.00000000000023" y="1448.0294117647059" as="targetPoint" />
            <Array as="points">
              <mxPoint x="-256" y="1447.5" />
              <mxPoint x="-256" y="1444.5" />
            </Array>
          </mxGeometry>
        </mxCell>
        <mxCell id="GoNkcsiwLbmAIzl6Nbj7-48" value="* Pedido de locação" style="rounded=0;whiteSpace=wrap;html=1;" vertex="1" parent="1">
          <mxGeometry x="-106" y="1432.5" width="160" height="30" as="geometry" />
        </mxCell>
        <mxCell id="GoNkcsiwLbmAIzl6Nbj7-49" style="edgeStyle=orthogonalEdgeStyle;rounded=0;orthogonalLoop=1;jettySize=auto;html=1;exitX=0;exitY=0.5;exitDx=0;exitDy=0;entryX=1;entryY=0.5;entryDx=0;entryDy=0;" edge="1" parent="1" source="GoNkcsiwLbmAIzl6Nbj7-52" target="GoNkcsiwLbmAIzl6Nbj7-58">
          <mxGeometry relative="1" as="geometry" />
        </mxCell>
        <mxCell id="GoNkcsiwLbmAIzl6Nbj7-50" style="edgeStyle=orthogonalEdgeStyle;rounded=0;orthogonalLoop=1;jettySize=auto;html=1;exitX=0;exitY=0.5;exitDx=0;exitDy=0;" edge="1" parent="1" source="GoNkcsiwLbmAIzl6Nbj7-52" target="GoNkcsiwLbmAIzl6Nbj7-56">
          <mxGeometry relative="1" as="geometry" />
        </mxCell>
        <mxCell id="GoNkcsiwLbmAIzl6Nbj7-51" style="edgeStyle=orthogonalEdgeStyle;rounded=0;orthogonalLoop=1;jettySize=auto;html=1;exitX=0.5;exitY=1;exitDx=0;exitDy=0;entryX=1;entryY=0.75;entryDx=0;entryDy=0;" edge="1" parent="1" source="GoNkcsiwLbmAIzl6Nbj7-52" target="GoNkcsiwLbmAIzl6Nbj7-59">
          <mxGeometry relative="1" as="geometry">
            <Array as="points">
              <mxPoint x="-26" y="1522.5" />
              <mxPoint x="-296" y="1522.5" />
              <mxPoint x="-296" y="1500.5" />
            </Array>
          </mxGeometry>
        </mxCell>
        <mxCell id="GoNkcsiwLbmAIzl6Nbj7-52" value="A cor da scooter" style="rounded=0;whiteSpace=wrap;html=1;" vertex="1" parent="1">
          <mxGeometry x="-106" y="1472.5" width="160" height="30" as="geometry" />
        </mxCell>
        <mxCell id="GoNkcsiwLbmAIzl6Nbj7-53" style="edgeStyle=orthogonalEdgeStyle;rounded=0;orthogonalLoop=1;jettySize=auto;html=1;exitX=0;exitY=0.5;exitDx=0;exitDy=0;entryX=0.75;entryY=1;entryDx=0;entryDy=0;" edge="1" parent="1" source="GoNkcsiwLbmAIzl6Nbj7-54" target="GoNkcsiwLbmAIzl6Nbj7-59">
          <mxGeometry relative="1" as="geometry" />
        </mxCell>
        <mxCell id="GoNkcsiwLbmAIzl6Nbj7-54" value="Comentário para o entregador" style="rounded=0;whiteSpace=wrap;html=1;" vertex="1" parent="1">
          <mxGeometry x="-107" y="1532.5" width="180" height="30" as="geometry" />
        </mxCell>
        <mxCell id="GoNkcsiwLbmAIzl6Nbj7-55" style="edgeStyle=orthogonalEdgeStyle;rounded=0;orthogonalLoop=1;jettySize=auto;html=1;exitX=0;exitY=0.5;exitDx=0;exitDy=0;" edge="1" parent="1" source="GoNkcsiwLbmAIzl6Nbj7-56" target="GoNkcsiwLbmAIzl6Nbj7-59">
          <mxGeometry relative="1" as="geometry" />
        </mxCell>
        <mxCell id="GoNkcsiwLbmAIzl6Nbj7-56" value="🔲 preto" style="rounded=0;whiteSpace=wrap;html=1;" vertex="1" parent="1">
          <mxGeometry x="-216" y="1462.5" width="60" height="20" as="geometry" />
        </mxCell>
        <mxCell id="GoNkcsiwLbmAIzl6Nbj7-57" style="edgeStyle=orthogonalEdgeStyle;rounded=0;orthogonalLoop=1;jettySize=auto;html=1;exitX=0;exitY=0.5;exitDx=0;exitDy=0;entryX=1;entryY=0.5;entryDx=0;entryDy=0;" edge="1" parent="1" source="GoNkcsiwLbmAIzl6Nbj7-58" target="GoNkcsiwLbmAIzl6Nbj7-59">
          <mxGeometry relative="1" as="geometry" />
        </mxCell>
        <mxCell id="GoNkcsiwLbmAIzl6Nbj7-58" value="🔲 cinza" style="rounded=0;whiteSpace=wrap;html=1;" vertex="1" parent="1">
          <mxGeometry x="-216" y="1492.5" width="60" height="20" as="geometry" />
        </mxCell>
        <mxCell id="GoNkcsiwLbmAIzl6Nbj7-59" value="Campos para preenchimento das informações&lt;div&gt;Espera&lt;br&gt;&amp;nbsp;Letra cinza claro, fundo branco&lt;br&gt;Quando preenchido&amp;nbsp;&lt;br&gt;Letra preta e fundo branco claro&amp;nbsp;&lt;/div&gt;" style="rounded=0;whiteSpace=wrap;html=1;" vertex="1" parent="1">
          <mxGeometry x="-606" y="1417.5" width="273" height="110" as="geometry" />
        </mxCell>
        <mxCell id="GoNkcsiwLbmAIzl6Nbj7-60" style="edgeStyle=orthogonalEdgeStyle;rounded=0;orthogonalLoop=1;jettySize=auto;html=1;exitX=0;exitY=0.5;exitDx=0;exitDy=0;" edge="1" parent="1" source="GoNkcsiwLbmAIzl6Nbj7-62" target="GoNkcsiwLbmAIzl6Nbj7-65">
          <mxGeometry relative="1" as="geometry" />
        </mxCell>
        <mxCell id="GoNkcsiwLbmAIzl6Nbj7-61" style="edgeStyle=orthogonalEdgeStyle;rounded=0;orthogonalLoop=1;jettySize=auto;html=1;exitX=0.5;exitY=1;exitDx=0;exitDy=0;entryX=1;entryY=0.5;entryDx=0;entryDy=0;" edge="1" parent="1" source="GoNkcsiwLbmAIzl6Nbj7-62" target="GoNkcsiwLbmAIzl6Nbj7-67">
          <mxGeometry relative="1" as="geometry" />
        </mxCell>
        <mxCell id="GoNkcsiwLbmAIzl6Nbj7-62" value="Botões" style="rounded=0;whiteSpace=wrap;html=1;" vertex="1" parent="1">
          <mxGeometry x="-26" y="1611" width="99" height="39" as="geometry" />
        </mxCell>
        <mxCell id="GoNkcsiwLbmAIzl6Nbj7-63" value="Fundo Preto&amp;nbsp;&lt;br&gt;Letra cor Branco" style="rounded=0;whiteSpace=wrap;html=1;" vertex="1" parent="1">
          <mxGeometry x="-346" y="1608.5" width="110" height="44" as="geometry" />
        </mxCell>
        <mxCell id="GoNkcsiwLbmAIzl6Nbj7-64" style="edgeStyle=orthogonalEdgeStyle;rounded=0;orthogonalLoop=1;jettySize=auto;html=1;exitX=0;exitY=0.5;exitDx=0;exitDy=0;entryX=1;entryY=0.5;entryDx=0;entryDy=0;" edge="1" parent="1" source="GoNkcsiwLbmAIzl6Nbj7-65" target="GoNkcsiwLbmAIzl6Nbj7-63">
          <mxGeometry relative="1" as="geometry" />
        </mxCell>
        <mxCell id="GoNkcsiwLbmAIzl6Nbj7-65" value="Fazer pedido" style="rounded=0;whiteSpace=wrap;html=1;" vertex="1" parent="1">
          <mxGeometry x="-181" y="1611" width="99" height="39" as="geometry" />
        </mxCell>
        <mxCell id="GoNkcsiwLbmAIzl6Nbj7-66" style="edgeStyle=orthogonalEdgeStyle;rounded=0;orthogonalLoop=1;jettySize=auto;html=1;exitX=0;exitY=0.5;exitDx=0;exitDy=0;" edge="1" parent="1" source="GoNkcsiwLbmAIzl6Nbj7-67" target="GoNkcsiwLbmAIzl6Nbj7-68">
          <mxGeometry relative="1" as="geometry" />
        </mxCell>
        <mxCell id="GoNkcsiwLbmAIzl6Nbj7-67" value="Voltar" style="rounded=0;whiteSpace=wrap;html=1;" vertex="1" parent="1">
          <mxGeometry x="-181" y="1672.5" width="99" height="39" as="geometry" />
        </mxCell>
        <mxCell id="GoNkcsiwLbmAIzl6Nbj7-68" value="Fundo branco&amp;nbsp;&lt;br&gt;Letra cor Preta&lt;br&gt;Borda preta" style="rounded=0;whiteSpace=wrap;html=1;" vertex="1" parent="1">
          <mxGeometry x="-346" y="1665.75" width="110" height="52.5" as="geometry" />
        </mxCell>
        <mxCell id="GoNkcsiwLbmAIzl6Nbj7-69" style="edgeStyle=orthogonalEdgeStyle;rounded=0;orthogonalLoop=1;jettySize=auto;html=1;exitX=1;exitY=0.5;exitDx=0;exitDy=0;entryX=0;entryY=0.5;entryDx=0;entryDy=0;" edge="1" parent="1" source="GoNkcsiwLbmAIzl6Nbj7-73" target="GoNkcsiwLbmAIzl6Nbj7-77">
          <mxGeometry relative="1" as="geometry" />
        </mxCell>
        <mxCell id="GoNkcsiwLbmAIzl6Nbj7-70" style="edgeStyle=orthogonalEdgeStyle;rounded=0;orthogonalLoop=1;jettySize=auto;html=1;exitX=1;exitY=0.5;exitDx=0;exitDy=0;entryX=0;entryY=0.5;entryDx=0;entryDy=0;" edge="1" parent="1" source="GoNkcsiwLbmAIzl6Nbj7-73" target="GoNkcsiwLbmAIzl6Nbj7-79">
          <mxGeometry relative="1" as="geometry" />
        </mxCell>
        <mxCell id="GoNkcsiwLbmAIzl6Nbj7-71" style="edgeStyle=orthogonalEdgeStyle;rounded=0;orthogonalLoop=1;jettySize=auto;html=1;exitX=0.5;exitY=1;exitDx=0;exitDy=0;entryX=0;entryY=0.5;entryDx=0;entryDy=0;" edge="1" parent="1" source="GoNkcsiwLbmAIzl6Nbj7-73" target="GoNkcsiwLbmAIzl6Nbj7-81">
          <mxGeometry relative="1" as="geometry" />
        </mxCell>
        <mxCell id="GoNkcsiwLbmAIzl6Nbj7-72" style="edgeStyle=orthogonalEdgeStyle;rounded=0;orthogonalLoop=1;jettySize=auto;html=1;exitX=0.5;exitY=0;exitDx=0;exitDy=0;entryX=0;entryY=0.5;entryDx=0;entryDy=0;" edge="1" parent="1" source="GoNkcsiwLbmAIzl6Nbj7-73" target="GoNkcsiwLbmAIzl6Nbj7-75">
          <mxGeometry relative="1" as="geometry" />
        </mxCell>
        <mxCell id="GoNkcsiwLbmAIzl6Nbj7-73" value="Campos" style="rounded=0;whiteSpace=wrap;html=1;" vertex="1" parent="1">
          <mxGeometry x="584" y="1372.5" width="100" height="30" as="geometry" />
        </mxCell>
        <mxCell id="GoNkcsiwLbmAIzl6Nbj7-74" style="edgeStyle=orthogonalEdgeStyle;rounded=0;orthogonalLoop=1;jettySize=auto;html=1;exitX=1;exitY=0.5;exitDx=0;exitDy=0;entryX=0;entryY=0.5;entryDx=0;entryDy=0;" edge="1" parent="1" source="GoNkcsiwLbmAIzl6Nbj7-75" target="GoNkcsiwLbmAIzl6Nbj7-88">
          <mxGeometry relative="1" as="geometry" />
        </mxCell>
        <mxCell id="GoNkcsiwLbmAIzl6Nbj7-75" value="* Quando entregar a scooter" style="rounded=0;whiteSpace=wrap;html=1;" vertex="1" parent="1">
          <mxGeometry x="744" y="1247.5" width="160" height="30" as="geometry" />
        </mxCell>
        <mxCell id="GoNkcsiwLbmAIzl6Nbj7-76" style="edgeStyle=orthogonalEdgeStyle;rounded=0;orthogonalLoop=1;jettySize=auto;html=1;exitX=1;exitY=0.5;exitDx=0;exitDy=0;entryX=0;entryY=0.5;entryDx=0;entryDy=0;" edge="1" parent="1" source="GoNkcsiwLbmAIzl6Nbj7-77" target="GoNkcsiwLbmAIzl6Nbj7-101">
          <mxGeometry relative="1" as="geometry" />
        </mxCell>
        <mxCell id="GoNkcsiwLbmAIzl6Nbj7-77" value="* Pedido de locação" style="rounded=0;whiteSpace=wrap;html=1;" vertex="1" parent="1">
          <mxGeometry x="764" y="1372.5" width="140" height="30" as="geometry" />
        </mxCell>
        <mxCell id="GoNkcsiwLbmAIzl6Nbj7-78" style="edgeStyle=orthogonalEdgeStyle;rounded=0;orthogonalLoop=1;jettySize=auto;html=1;exitX=1;exitY=0.5;exitDx=0;exitDy=0;entryX=0;entryY=0.5;entryDx=0;entryDy=0;" edge="1" parent="1" source="GoNkcsiwLbmAIzl6Nbj7-79" target="GoNkcsiwLbmAIzl6Nbj7-113">
          <mxGeometry relative="1" as="geometry" />
        </mxCell>
        <mxCell id="GoNkcsiwLbmAIzl6Nbj7-79" value="A cor da scooter" style="rounded=0;whiteSpace=wrap;html=1;" vertex="1" parent="1">
          <mxGeometry x="764" y="1432" width="140" height="30" as="geometry" />
        </mxCell>
        <mxCell id="GoNkcsiwLbmAIzl6Nbj7-80" style="edgeStyle=orthogonalEdgeStyle;rounded=0;orthogonalLoop=1;jettySize=auto;html=1;exitX=0.5;exitY=1;exitDx=0;exitDy=0;entryX=0;entryY=0.5;entryDx=0;entryDy=0;" edge="1" parent="1" source="GoNkcsiwLbmAIzl6Nbj7-81" target="GoNkcsiwLbmAIzl6Nbj7-124">
          <mxGeometry relative="1" as="geometry" />
        </mxCell>
        <mxCell id="GoNkcsiwLbmAIzl6Nbj7-81" value="Comentário para o entregador" style="rounded=0;whiteSpace=wrap;html=1;" vertex="1" parent="1">
          <mxGeometry x="674" y="1527.5" width="110" height="40" as="geometry" />
        </mxCell>
        <mxCell id="GoNkcsiwLbmAIzl6Nbj7-82" style="edgeStyle=orthogonalEdgeStyle;rounded=0;orthogonalLoop=1;jettySize=auto;html=1;exitX=0.75;exitY=0;exitDx=0;exitDy=0;entryX=0;entryY=0.5;entryDx=0;entryDy=0;" edge="1" parent="1" source="GoNkcsiwLbmAIzl6Nbj7-88" target="GoNkcsiwLbmAIzl6Nbj7-90">
          <mxGeometry relative="1" as="geometry" />
        </mxCell>
        <mxCell id="GoNkcsiwLbmAIzl6Nbj7-83" style="edgeStyle=orthogonalEdgeStyle;rounded=0;orthogonalLoop=1;jettySize=auto;html=1;exitX=0.75;exitY=0;exitDx=0;exitDy=0;entryX=0;entryY=0.5;entryDx=0;entryDy=0;" edge="1" parent="1" source="GoNkcsiwLbmAIzl6Nbj7-88" target="GoNkcsiwLbmAIzl6Nbj7-89">
          <mxGeometry relative="1" as="geometry" />
        </mxCell>
        <mxCell id="GoNkcsiwLbmAIzl6Nbj7-84" style="edgeStyle=orthogonalEdgeStyle;rounded=0;orthogonalLoop=1;jettySize=auto;html=1;exitX=1;exitY=0.5;exitDx=0;exitDy=0;entryX=0;entryY=0.5;entryDx=0;entryDy=0;" edge="1" parent="1" source="GoNkcsiwLbmAIzl6Nbj7-88" target="GoNkcsiwLbmAIzl6Nbj7-91">
          <mxGeometry relative="1" as="geometry" />
        </mxCell>
        <mxCell id="GoNkcsiwLbmAIzl6Nbj7-85" style="edgeStyle=orthogonalEdgeStyle;rounded=0;orthogonalLoop=1;jettySize=auto;html=1;exitX=1;exitY=0.5;exitDx=0;exitDy=0;entryX=0;entryY=0.5;entryDx=0;entryDy=0;" edge="1" parent="1" source="GoNkcsiwLbmAIzl6Nbj7-88" target="GoNkcsiwLbmAIzl6Nbj7-92">
          <mxGeometry relative="1" as="geometry" />
        </mxCell>
        <mxCell id="GoNkcsiwLbmAIzl6Nbj7-87" style="edgeStyle=orthogonalEdgeStyle;rounded=0;orthogonalLoop=1;jettySize=auto;html=1;exitX=1;exitY=0.5;exitDx=0;exitDy=0;entryX=0;entryY=0.5;entryDx=0;entryDy=0;" edge="1" parent="1" source="GoNkcsiwLbmAIzl6Nbj7-88" target="GoNkcsiwLbmAIzl6Nbj7-150">
          <mxGeometry relative="1" as="geometry" />
        </mxCell>
        <mxCell id="idY51j--czHx6IZsuclX-45" style="edgeStyle=orthogonalEdgeStyle;rounded=0;orthogonalLoop=1;jettySize=auto;html=1;exitX=0.75;exitY=0;exitDx=0;exitDy=0;entryX=0;entryY=0.5;entryDx=0;entryDy=0;" edge="1" parent="1" source="GoNkcsiwLbmAIzl6Nbj7-88" target="idY51j--czHx6IZsuclX-42">
          <mxGeometry relative="1" as="geometry" />
        </mxCell>
        <mxCell id="idY51j--czHx6IZsuclX-46" style="edgeStyle=orthogonalEdgeStyle;rounded=0;orthogonalLoop=1;jettySize=auto;html=1;exitX=0.75;exitY=0;exitDx=0;exitDy=0;entryX=0;entryY=0.5;entryDx=0;entryDy=0;" edge="1" parent="1" source="GoNkcsiwLbmAIzl6Nbj7-88" target="idY51j--czHx6IZsuclX-44">
          <mxGeometry relative="1" as="geometry" />
        </mxCell>
        <mxCell id="GoNkcsiwLbmAIzl6Nbj7-88" value="calendário&amp;nbsp;suspenso.&lt;br&gt;Aparece quando o&amp;nbsp;usuário clica no&lt;br&gt;campo de entrada" style="rounded=0;whiteSpace=wrap;html=1;" vertex="1" parent="1">
          <mxGeometry x="944" y="1227.5" width="200" height="70" as="geometry" />
        </mxCell>
        <mxCell id="idY51j--czHx6IZsuclX-53" style="edgeStyle=orthogonalEdgeStyle;rounded=0;orthogonalLoop=1;jettySize=auto;html=1;exitX=1;exitY=0.5;exitDx=0;exitDy=0;entryX=0.5;entryY=0;entryDx=0;entryDy=0;" edge="1" parent="1" source="GoNkcsiwLbmAIzl6Nbj7-89" target="idY51j--czHx6IZsuclX-52">
          <mxGeometry relative="1" as="geometry" />
        </mxCell>
        <mxCell id="GoNkcsiwLbmAIzl6Nbj7-89" value="Data dia atual" style="rounded=0;whiteSpace=wrap;html=1;" vertex="1" parent="1">
          <mxGeometry x="1184" y="1172.5" width="160" height="30" as="geometry" />
        </mxCell>
        <mxCell id="idY51j--czHx6IZsuclX-51" style="edgeStyle=orthogonalEdgeStyle;rounded=0;orthogonalLoop=1;jettySize=auto;html=1;exitX=1;exitY=0.5;exitDx=0;exitDy=0;entryX=0.5;entryY=1;entryDx=0;entryDy=0;" edge="1" parent="1" source="GoNkcsiwLbmAIzl6Nbj7-90" target="idY51j--czHx6IZsuclX-48">
          <mxGeometry relative="1" as="geometry" />
        </mxCell>
        <mxCell id="GoNkcsiwLbmAIzl6Nbj7-90" value="Data a partir do dia seguite" style="rounded=0;whiteSpace=wrap;html=1;" vertex="1" parent="1">
          <mxGeometry x="1184" y="1130" width="160" height="30" as="geometry" />
        </mxCell>
        <mxCell id="idY51j--czHx6IZsuclX-54" style="edgeStyle=orthogonalEdgeStyle;rounded=0;orthogonalLoop=1;jettySize=auto;html=1;exitX=1;exitY=0.5;exitDx=0;exitDy=0;entryX=0;entryY=0.5;entryDx=0;entryDy=0;" edge="1" parent="1" source="GoNkcsiwLbmAIzl6Nbj7-91" target="idY51j--czHx6IZsuclX-52">
          <mxGeometry relative="1" as="geometry" />
        </mxCell>
        <mxCell id="GoNkcsiwLbmAIzl6Nbj7-91" value="Data dia anterior" style="rounded=0;whiteSpace=wrap;html=1;" vertex="1" parent="1">
          <mxGeometry x="1184" y="1212.5" width="160" height="30" as="geometry" />
        </mxCell>
        <mxCell id="idY51j--czHx6IZsuclX-55" style="edgeStyle=orthogonalEdgeStyle;rounded=0;orthogonalLoop=1;jettySize=auto;html=1;exitX=1;exitY=0.5;exitDx=0;exitDy=0;entryX=0;entryY=0.5;entryDx=0;entryDy=0;" edge="1" parent="1" source="GoNkcsiwLbmAIzl6Nbj7-92" target="idY51j--czHx6IZsuclX-52">
          <mxGeometry relative="1" as="geometry" />
        </mxCell>
        <mxCell id="GoNkcsiwLbmAIzl6Nbj7-92" value="Inserir Manualmente" style="rounded=0;whiteSpace=wrap;html=1;" vertex="1" parent="1">
          <mxGeometry x="1184" y="1257.5" width="160" height="30" as="geometry" />
        </mxCell>
        <mxCell id="GoNkcsiwLbmAIzl6Nbj7-94" style="edgeStyle=orthogonalEdgeStyle;rounded=0;orthogonalLoop=1;jettySize=auto;html=1;exitX=1;exitY=0.5;exitDx=0;exitDy=0;entryX=0;entryY=0.5;entryDx=0;entryDy=0;" edge="1" parent="1" source="GoNkcsiwLbmAIzl6Nbj7-101" target="GoNkcsiwLbmAIzl6Nbj7-102">
          <mxGeometry relative="1" as="geometry" />
        </mxCell>
        <mxCell id="GoNkcsiwLbmAIzl6Nbj7-95" style="edgeStyle=orthogonalEdgeStyle;rounded=0;orthogonalLoop=1;jettySize=auto;html=1;exitX=1;exitY=0.5;exitDx=0;exitDy=0;entryX=0;entryY=0.5;entryDx=0;entryDy=0;" edge="1" parent="1" source="GoNkcsiwLbmAIzl6Nbj7-101" target="GoNkcsiwLbmAIzl6Nbj7-104">
          <mxGeometry relative="1" as="geometry" />
        </mxCell>
        <mxCell id="GoNkcsiwLbmAIzl6Nbj7-96" style="edgeStyle=orthogonalEdgeStyle;rounded=0;orthogonalLoop=1;jettySize=auto;html=1;exitX=1;exitY=0.5;exitDx=0;exitDy=0;entryX=0;entryY=0.5;entryDx=0;entryDy=0;" edge="1" parent="1" source="GoNkcsiwLbmAIzl6Nbj7-101" target="GoNkcsiwLbmAIzl6Nbj7-105">
          <mxGeometry relative="1" as="geometry" />
        </mxCell>
        <mxCell id="GoNkcsiwLbmAIzl6Nbj7-97" style="edgeStyle=orthogonalEdgeStyle;rounded=0;orthogonalLoop=1;jettySize=auto;html=1;exitX=1;exitY=0.5;exitDx=0;exitDy=0;entryX=0;entryY=0.5;entryDx=0;entryDy=0;" edge="1" parent="1" source="GoNkcsiwLbmAIzl6Nbj7-101" target="GoNkcsiwLbmAIzl6Nbj7-106">
          <mxGeometry relative="1" as="geometry" />
        </mxCell>
        <mxCell id="GoNkcsiwLbmAIzl6Nbj7-98" style="edgeStyle=orthogonalEdgeStyle;rounded=0;orthogonalLoop=1;jettySize=auto;html=1;exitX=1;exitY=0.5;exitDx=0;exitDy=0;entryX=0;entryY=0.5;entryDx=0;entryDy=0;" edge="1" parent="1" source="GoNkcsiwLbmAIzl6Nbj7-101" target="GoNkcsiwLbmAIzl6Nbj7-107">
          <mxGeometry relative="1" as="geometry" />
        </mxCell>
        <mxCell id="GoNkcsiwLbmAIzl6Nbj7-99" style="edgeStyle=orthogonalEdgeStyle;rounded=0;orthogonalLoop=1;jettySize=auto;html=1;exitX=1;exitY=0.5;exitDx=0;exitDy=0;entryX=0;entryY=0.5;entryDx=0;entryDy=0;" edge="1" parent="1" source="GoNkcsiwLbmAIzl6Nbj7-101" target="GoNkcsiwLbmAIzl6Nbj7-103">
          <mxGeometry relative="1" as="geometry" />
        </mxCell>
        <mxCell id="GoNkcsiwLbmAIzl6Nbj7-100" style="edgeStyle=orthogonalEdgeStyle;rounded=0;orthogonalLoop=1;jettySize=auto;html=1;exitX=1;exitY=0.5;exitDx=0;exitDy=0;entryX=0;entryY=0.5;entryDx=0;entryDy=0;" edge="1" parent="1" source="GoNkcsiwLbmAIzl6Nbj7-101" target="GoNkcsiwLbmAIzl6Nbj7-108">
          <mxGeometry relative="1" as="geometry" />
        </mxCell>
        <mxCell id="GoNkcsiwLbmAIzl6Nbj7-101" value="Lista suspensa" style="rounded=0;whiteSpace=wrap;html=1;" vertex="1" parent="1">
          <mxGeometry x="964" y="1372.5" width="140" height="30" as="geometry" />
        </mxCell>
        <mxCell id="idY51j--czHx6IZsuclX-63" style="edgeStyle=orthogonalEdgeStyle;rounded=0;orthogonalLoop=1;jettySize=auto;html=1;exitX=1;exitY=0.5;exitDx=0;exitDy=0;entryX=0.5;entryY=0;entryDx=0;entryDy=0;" edge="1" parent="1" source="GoNkcsiwLbmAIzl6Nbj7-102" target="idY51j--czHx6IZsuclX-57">
          <mxGeometry relative="1" as="geometry" />
        </mxCell>
        <mxCell id="GoNkcsiwLbmAIzl6Nbj7-102" value="Escolher 1 a 7 dias" style="rounded=0;whiteSpace=wrap;html=1;" vertex="1" parent="1">
          <mxGeometry x="1380" y="1368" width="160" height="30" as="geometry" />
        </mxCell>
        <mxCell id="idY51j--czHx6IZsuclX-61" style="edgeStyle=orthogonalEdgeStyle;rounded=0;orthogonalLoop=1;jettySize=auto;html=1;exitX=1;exitY=0.5;exitDx=0;exitDy=0;entryX=0.5;entryY=1;entryDx=0;entryDy=0;" edge="1" parent="1" source="GoNkcsiwLbmAIzl6Nbj7-103" target="idY51j--czHx6IZsuclX-57">
          <mxGeometry relative="1" as="geometry" />
        </mxCell>
        <mxCell id="GoNkcsiwLbmAIzl6Nbj7-103" value="Escolher 0 dias" style="rounded=0;whiteSpace=wrap;html=1;" vertex="1" parent="1">
          <mxGeometry x="1380" y="1569.5" width="160" height="30" as="geometry" />
        </mxCell>
        <mxCell id="idY51j--czHx6IZsuclX-64" style="edgeStyle=orthogonalEdgeStyle;rounded=0;orthogonalLoop=1;jettySize=auto;html=1;exitX=1;exitY=0.5;exitDx=0;exitDy=0;entryX=0.5;entryY=0;entryDx=0;entryDy=0;" edge="1" parent="1" source="GoNkcsiwLbmAIzl6Nbj7-104" target="idY51j--czHx6IZsuclX-57">
          <mxGeometry relative="1" as="geometry" />
        </mxCell>
        <mxCell id="GoNkcsiwLbmAIzl6Nbj7-104" value="Escolher 1 dia" style="rounded=0;whiteSpace=wrap;html=1;" vertex="1" parent="1">
          <mxGeometry x="1380" y="1408" width="160" height="30" as="geometry" />
        </mxCell>
        <mxCell id="idY51j--czHx6IZsuclX-58" style="edgeStyle=orthogonalEdgeStyle;rounded=0;orthogonalLoop=1;jettySize=auto;html=1;exitX=1;exitY=0.5;exitDx=0;exitDy=0;entryX=0;entryY=0.5;entryDx=0;entryDy=0;" edge="1" parent="1" source="GoNkcsiwLbmAIzl6Nbj7-105" target="idY51j--czHx6IZsuclX-57">
          <mxGeometry relative="1" as="geometry" />
        </mxCell>
        <mxCell id="GoNkcsiwLbmAIzl6Nbj7-105" value="Escolher 2 dias" style="rounded=0;whiteSpace=wrap;html=1;" vertex="1" parent="1">
          <mxGeometry x="1380" y="1448" width="160" height="30" as="geometry" />
        </mxCell>
        <mxCell id="idY51j--czHx6IZsuclX-59" style="edgeStyle=orthogonalEdgeStyle;rounded=0;orthogonalLoop=1;jettySize=auto;html=1;exitX=1;exitY=0.5;exitDx=0;exitDy=0;" edge="1" parent="1" source="GoNkcsiwLbmAIzl6Nbj7-106" target="idY51j--czHx6IZsuclX-57">
          <mxGeometry relative="1" as="geometry" />
        </mxCell>
        <mxCell id="GoNkcsiwLbmAIzl6Nbj7-106" value="Escolher 6 dias" style="rounded=0;whiteSpace=wrap;html=1;" vertex="1" parent="1">
          <mxGeometry x="1380" y="1488.5" width="160" height="30" as="geometry" />
        </mxCell>
        <mxCell id="idY51j--czHx6IZsuclX-60" style="edgeStyle=orthogonalEdgeStyle;rounded=0;orthogonalLoop=1;jettySize=auto;html=1;exitX=1;exitY=0.5;exitDx=0;exitDy=0;entryX=0.25;entryY=1;entryDx=0;entryDy=0;" edge="1" parent="1" source="GoNkcsiwLbmAIzl6Nbj7-107" target="idY51j--czHx6IZsuclX-57">
          <mxGeometry relative="1" as="geometry" />
        </mxCell>
        <mxCell id="GoNkcsiwLbmAIzl6Nbj7-107" value="Escolher 7 dias" style="rounded=0;whiteSpace=wrap;html=1;" vertex="1" parent="1">
          <mxGeometry x="1380" y="1530.5" width="160" height="30" as="geometry" />
        </mxCell>
        <mxCell id="idY51j--czHx6IZsuclX-62" style="edgeStyle=orthogonalEdgeStyle;rounded=0;orthogonalLoop=1;jettySize=auto;html=1;exitX=1;exitY=0.5;exitDx=0;exitDy=0;entryX=0.5;entryY=1;entryDx=0;entryDy=0;" edge="1" parent="1" source="GoNkcsiwLbmAIzl6Nbj7-108" target="idY51j--czHx6IZsuclX-57">
          <mxGeometry relative="1" as="geometry" />
        </mxCell>
        <mxCell id="GoNkcsiwLbmAIzl6Nbj7-108" value="Escolher 8 dias" style="rounded=0;whiteSpace=wrap;html=1;" vertex="1" parent="1">
          <mxGeometry x="1380" y="1607" width="160" height="30" as="geometry" />
        </mxCell>
        <mxCell id="GoNkcsiwLbmAIzl6Nbj7-109" style="edgeStyle=orthogonalEdgeStyle;rounded=0;orthogonalLoop=1;jettySize=auto;html=1;exitX=1;exitY=0.5;exitDx=0;exitDy=0;entryX=0;entryY=0.5;entryDx=0;entryDy=0;" edge="1" parent="1" source="GoNkcsiwLbmAIzl6Nbj7-113" target="GoNkcsiwLbmAIzl6Nbj7-151">
          <mxGeometry relative="1" as="geometry" />
        </mxCell>
        <mxCell id="GoNkcsiwLbmAIzl6Nbj7-110" style="edgeStyle=orthogonalEdgeStyle;rounded=0;orthogonalLoop=1;jettySize=auto;html=1;exitX=1;exitY=0.5;exitDx=0;exitDy=0;entryX=0;entryY=0.5;entryDx=0;entryDy=0;" edge="1" parent="1" source="GoNkcsiwLbmAIzl6Nbj7-113" target="GoNkcsiwLbmAIzl6Nbj7-152">
          <mxGeometry relative="1" as="geometry" />
        </mxCell>
        <mxCell id="GoNkcsiwLbmAIzl6Nbj7-111" style="edgeStyle=orthogonalEdgeStyle;rounded=0;orthogonalLoop=1;jettySize=auto;html=1;exitX=1;exitY=0.5;exitDx=0;exitDy=0;entryX=0;entryY=0.5;entryDx=0;entryDy=0;" edge="1" parent="1" source="GoNkcsiwLbmAIzl6Nbj7-113" target="GoNkcsiwLbmAIzl6Nbj7-153">
          <mxGeometry relative="1" as="geometry" />
        </mxCell>
        <mxCell id="GoNkcsiwLbmAIzl6Nbj7-112" style="edgeStyle=orthogonalEdgeStyle;rounded=0;orthogonalLoop=1;jettySize=auto;html=1;exitX=1;exitY=0.5;exitDx=0;exitDy=0;entryX=0;entryY=0.5;entryDx=0;entryDy=0;" edge="1" parent="1" source="GoNkcsiwLbmAIzl6Nbj7-113" target="GoNkcsiwLbmAIzl6Nbj7-154">
          <mxGeometry relative="1" as="geometry" />
        </mxCell>
        <mxCell id="GoNkcsiwLbmAIzl6Nbj7-113" value="Caixa de seleção:" style="rounded=0;whiteSpace=wrap;html=1;" vertex="1" parent="1">
          <mxGeometry x="974" y="1425.5" width="126" height="44.5" as="geometry" />
        </mxCell>
        <mxCell id="GoNkcsiwLbmAIzl6Nbj7-114" style="edgeStyle=orthogonalEdgeStyle;rounded=0;orthogonalLoop=1;jettySize=auto;html=1;exitX=1;exitY=0.5;exitDx=0;exitDy=0;entryX=0;entryY=0.5;entryDx=0;entryDy=0;" edge="1" parent="1" source="GoNkcsiwLbmAIzl6Nbj7-124" target="GoNkcsiwLbmAIzl6Nbj7-125">
          <mxGeometry relative="1" as="geometry" />
        </mxCell>
        <mxCell id="GoNkcsiwLbmAIzl6Nbj7-115" style="edgeStyle=orthogonalEdgeStyle;rounded=0;orthogonalLoop=1;jettySize=auto;html=1;exitX=1;exitY=0.5;exitDx=0;exitDy=0;entryX=0;entryY=0.5;entryDx=0;entryDy=0;" edge="1" parent="1" source="GoNkcsiwLbmAIzl6Nbj7-124" target="GoNkcsiwLbmAIzl6Nbj7-126">
          <mxGeometry relative="1" as="geometry" />
        </mxCell>
        <mxCell id="GoNkcsiwLbmAIzl6Nbj7-116" style="edgeStyle=orthogonalEdgeStyle;rounded=0;orthogonalLoop=1;jettySize=auto;html=1;exitX=1;exitY=0.5;exitDx=0;exitDy=0;entryX=0;entryY=0.5;entryDx=0;entryDy=0;" edge="1" parent="1" source="GoNkcsiwLbmAIzl6Nbj7-124" target="GoNkcsiwLbmAIzl6Nbj7-127">
          <mxGeometry relative="1" as="geometry" />
        </mxCell>
        <mxCell id="GoNkcsiwLbmAIzl6Nbj7-117" style="edgeStyle=orthogonalEdgeStyle;rounded=0;orthogonalLoop=1;jettySize=auto;html=1;exitX=1;exitY=0.5;exitDx=0;exitDy=0;entryX=0;entryY=0.5;entryDx=0;entryDy=0;" edge="1" parent="1" source="GoNkcsiwLbmAIzl6Nbj7-124" target="GoNkcsiwLbmAIzl6Nbj7-129">
          <mxGeometry relative="1" as="geometry" />
        </mxCell>
        <mxCell id="GoNkcsiwLbmAIzl6Nbj7-118" style="edgeStyle=orthogonalEdgeStyle;rounded=0;orthogonalLoop=1;jettySize=auto;html=1;exitX=1;exitY=0.5;exitDx=0;exitDy=0;entryX=0;entryY=0.5;entryDx=0;entryDy=0;" edge="1" parent="1" source="GoNkcsiwLbmAIzl6Nbj7-124" target="GoNkcsiwLbmAIzl6Nbj7-128">
          <mxGeometry relative="1" as="geometry" />
        </mxCell>
        <mxCell id="GoNkcsiwLbmAIzl6Nbj7-119" style="edgeStyle=orthogonalEdgeStyle;rounded=0;orthogonalLoop=1;jettySize=auto;html=1;exitX=1;exitY=0.5;exitDx=0;exitDy=0;entryX=0;entryY=0.5;entryDx=0;entryDy=0;" edge="1" parent="1" source="GoNkcsiwLbmAIzl6Nbj7-124" target="GoNkcsiwLbmAIzl6Nbj7-130">
          <mxGeometry relative="1" as="geometry" />
        </mxCell>
        <mxCell id="GoNkcsiwLbmAIzl6Nbj7-120" style="edgeStyle=orthogonalEdgeStyle;rounded=0;orthogonalLoop=1;jettySize=auto;html=1;exitX=1;exitY=0.5;exitDx=0;exitDy=0;entryX=0;entryY=0.5;entryDx=0;entryDy=0;" edge="1" parent="1" source="GoNkcsiwLbmAIzl6Nbj7-124" target="GoNkcsiwLbmAIzl6Nbj7-132">
          <mxGeometry relative="1" as="geometry" />
        </mxCell>
        <mxCell id="GoNkcsiwLbmAIzl6Nbj7-121" style="edgeStyle=orthogonalEdgeStyle;rounded=0;orthogonalLoop=1;jettySize=auto;html=1;exitX=1;exitY=0.5;exitDx=0;exitDy=0;entryX=0;entryY=0.5;entryDx=0;entryDy=0;" edge="1" parent="1" source="GoNkcsiwLbmAIzl6Nbj7-124" target="GoNkcsiwLbmAIzl6Nbj7-133">
          <mxGeometry relative="1" as="geometry" />
        </mxCell>
        <mxCell id="GoNkcsiwLbmAIzl6Nbj7-122" style="edgeStyle=orthogonalEdgeStyle;rounded=0;orthogonalLoop=1;jettySize=auto;html=1;exitX=1;exitY=0.5;exitDx=0;exitDy=0;entryX=0;entryY=0.5;entryDx=0;entryDy=0;" edge="1" parent="1" source="GoNkcsiwLbmAIzl6Nbj7-124" target="GoNkcsiwLbmAIzl6Nbj7-134">
          <mxGeometry relative="1" as="geometry" />
        </mxCell>
        <mxCell id="GoNkcsiwLbmAIzl6Nbj7-123" style="edgeStyle=orthogonalEdgeStyle;rounded=0;orthogonalLoop=1;jettySize=auto;html=1;exitX=1;exitY=0.5;exitDx=0;exitDy=0;entryX=0;entryY=0.5;entryDx=0;entryDy=0;" edge="1" parent="1" source="GoNkcsiwLbmAIzl6Nbj7-124" target="GoNkcsiwLbmAIzl6Nbj7-131">
          <mxGeometry relative="1" as="geometry" />
        </mxCell>
        <mxCell id="GoNkcsiwLbmAIzl6Nbj7-124" value="Campo de texto" style="rounded=0;whiteSpace=wrap;html=1;" vertex="1" parent="1">
          <mxGeometry x="764" y="1622.5" width="110" height="30.5" as="geometry" />
        </mxCell>
        <mxCell id="idY51j--czHx6IZsuclX-66" style="edgeStyle=orthogonalEdgeStyle;rounded=0;orthogonalLoop=1;jettySize=auto;html=1;exitX=1;exitY=1;exitDx=0;exitDy=0;entryX=0.5;entryY=0;entryDx=0;entryDy=0;" edge="1" parent="1" source="GoNkcsiwLbmAIzl6Nbj7-125" target="idY51j--czHx6IZsuclX-65">
          <mxGeometry relative="1" as="geometry">
            <Array as="points">
              <mxPoint x="1085" y="1520" />
              <mxPoint x="1180" y="1520" />
            </Array>
          </mxGeometry>
        </mxCell>
        <mxCell id="GoNkcsiwLbmAIzl6Nbj7-125" value="Letra Latinas" style="rounded=0;whiteSpace=wrap;html=1;" vertex="1" parent="1">
          <mxGeometry x="974" y="1494.5" width="111" height="20" as="geometry" />
        </mxCell>
        <mxCell id="idY51j--czHx6IZsuclX-67" style="edgeStyle=orthogonalEdgeStyle;rounded=0;orthogonalLoop=1;jettySize=auto;html=1;exitX=1;exitY=0.5;exitDx=0;exitDy=0;entryX=0.5;entryY=0;entryDx=0;entryDy=0;" edge="1" parent="1" source="GoNkcsiwLbmAIzl6Nbj7-126" target="idY51j--czHx6IZsuclX-65">
          <mxGeometry relative="1" as="geometry" />
        </mxCell>
        <mxCell id="GoNkcsiwLbmAIzl6Nbj7-126" value="Espaço&lt;span style=&quot;white-space: pre;&quot;&gt;&#x9;&lt;/span&gt;" style="rounded=0;whiteSpace=wrap;html=1;" vertex="1" parent="1">
          <mxGeometry x="974" y="1524.5" width="111" height="20" as="geometry" />
        </mxCell>
        <mxCell id="idY51j--czHx6IZsuclX-68" style="edgeStyle=orthogonalEdgeStyle;rounded=0;orthogonalLoop=1;jettySize=auto;html=1;exitX=1;exitY=0.5;exitDx=0;exitDy=0;entryX=0.5;entryY=0;entryDx=0;entryDy=0;" edge="1" parent="1" source="GoNkcsiwLbmAIzl6Nbj7-127" target="idY51j--czHx6IZsuclX-65">
          <mxGeometry relative="1" as="geometry" />
        </mxCell>
        <mxCell id="GoNkcsiwLbmAIzl6Nbj7-127" value="Traço" style="rounded=0;whiteSpace=wrap;html=1;" vertex="1" parent="1">
          <mxGeometry x="974" y="1554.5" width="111" height="20" as="geometry" />
        </mxCell>
        <mxCell id="idY51j--czHx6IZsuclX-70" style="edgeStyle=orthogonalEdgeStyle;rounded=0;orthogonalLoop=1;jettySize=auto;html=1;exitX=1;exitY=0.5;exitDx=0;exitDy=0;entryX=0;entryY=0.5;entryDx=0;entryDy=0;" edge="1" parent="1" source="GoNkcsiwLbmAIzl6Nbj7-128" target="idY51j--czHx6IZsuclX-65">
          <mxGeometry relative="1" as="geometry" />
        </mxCell>
        <mxCell id="GoNkcsiwLbmAIzl6Nbj7-128" value="Números" style="rounded=0;whiteSpace=wrap;html=1;" vertex="1" parent="1">
          <mxGeometry x="974" y="1614.5" width="111" height="20" as="geometry" />
        </mxCell>
        <mxCell id="idY51j--czHx6IZsuclX-69" style="edgeStyle=orthogonalEdgeStyle;rounded=0;orthogonalLoop=1;jettySize=auto;html=1;exitX=1;exitY=0.5;exitDx=0;exitDy=0;entryX=0;entryY=0.25;entryDx=0;entryDy=0;" edge="1" parent="1" source="GoNkcsiwLbmAIzl6Nbj7-129" target="idY51j--czHx6IZsuclX-65">
          <mxGeometry relative="1" as="geometry" />
        </mxCell>
        <mxCell id="GoNkcsiwLbmAIzl6Nbj7-129" value="Barras" style="rounded=0;whiteSpace=wrap;html=1;" vertex="1" parent="1">
          <mxGeometry x="974" y="1584.5" width="111" height="20" as="geometry" />
        </mxCell>
        <mxCell id="idY51j--czHx6IZsuclX-71" style="edgeStyle=orthogonalEdgeStyle;rounded=0;orthogonalLoop=1;jettySize=auto;html=1;exitX=1;exitY=0.5;exitDx=0;exitDy=0;entryX=0.5;entryY=1;entryDx=0;entryDy=0;" edge="1" parent="1" source="GoNkcsiwLbmAIzl6Nbj7-130" target="idY51j--czHx6IZsuclX-65">
          <mxGeometry relative="1" as="geometry" />
        </mxCell>
        <mxCell id="GoNkcsiwLbmAIzl6Nbj7-130" value="Texto com 1 caractere" style="rounded=0;whiteSpace=wrap;html=1;" vertex="1" parent="1">
          <mxGeometry x="974" y="1644.5" width="140" height="20" as="geometry" />
        </mxCell>
        <mxCell id="idY51j--czHx6IZsuclX-76" style="edgeStyle=orthogonalEdgeStyle;rounded=0;orthogonalLoop=1;jettySize=auto;html=1;exitX=1;exitY=0.5;exitDx=0;exitDy=0;entryX=0.5;entryY=1;entryDx=0;entryDy=0;" edge="1" parent="1" source="GoNkcsiwLbmAIzl6Nbj7-131" target="idY51j--czHx6IZsuclX-65">
          <mxGeometry relative="1" as="geometry" />
        </mxCell>
        <mxCell id="GoNkcsiwLbmAIzl6Nbj7-131" value="Vázio" style="rounded=0;whiteSpace=wrap;html=1;" vertex="1" parent="1">
          <mxGeometry x="974" y="1744" width="110" height="20" as="geometry" />
        </mxCell>
        <mxCell id="idY51j--czHx6IZsuclX-72" style="edgeStyle=orthogonalEdgeStyle;rounded=0;orthogonalLoop=1;jettySize=auto;html=1;exitX=1;exitY=0.5;exitDx=0;exitDy=0;entryX=0.5;entryY=1;entryDx=0;entryDy=0;" edge="1" parent="1" source="GoNkcsiwLbmAIzl6Nbj7-132" target="idY51j--czHx6IZsuclX-65">
          <mxGeometry relative="1" as="geometry" />
        </mxCell>
        <mxCell id="GoNkcsiwLbmAIzl6Nbj7-132" value="Texto com 23 caracteres" style="rounded=0;whiteSpace=wrap;html=1;" vertex="1" parent="1">
          <mxGeometry x="974" y="1679.5" width="140" height="20" as="geometry" />
        </mxCell>
        <mxCell id="idY51j--czHx6IZsuclX-73" style="edgeStyle=orthogonalEdgeStyle;rounded=0;orthogonalLoop=1;jettySize=auto;html=1;exitX=1;exitY=0.5;exitDx=0;exitDy=0;entryX=0.5;entryY=1;entryDx=0;entryDy=0;" edge="1" parent="1" source="GoNkcsiwLbmAIzl6Nbj7-133" target="idY51j--czHx6IZsuclX-65">
          <mxGeometry relative="1" as="geometry" />
        </mxCell>
        <mxCell id="GoNkcsiwLbmAIzl6Nbj7-133" value="Texto com 24 caracteres" style="rounded=0;whiteSpace=wrap;html=1;" vertex="1" parent="1">
          <mxGeometry x="974" y="1714.5" width="140" height="20" as="geometry" />
        </mxCell>
        <mxCell id="idY51j--czHx6IZsuclX-75" style="edgeStyle=orthogonalEdgeStyle;rounded=0;orthogonalLoop=1;jettySize=auto;html=1;exitX=1;exitY=0.5;exitDx=0;exitDy=0;entryX=0;entryY=0.5;entryDx=0;entryDy=0;" edge="1" parent="1" source="GoNkcsiwLbmAIzl6Nbj7-134" target="idY51j--czHx6IZsuclX-74">
          <mxGeometry relative="1" as="geometry" />
        </mxCell>
        <mxCell id="GoNkcsiwLbmAIzl6Nbj7-134" value="Texto com 25 caracteres" style="rounded=0;whiteSpace=wrap;html=1;" vertex="1" parent="1">
          <mxGeometry x="974" y="1774.5" width="140" height="20" as="geometry" />
        </mxCell>
        <mxCell id="GoNkcsiwLbmAIzl6Nbj7-135" style="edgeStyle=orthogonalEdgeStyle;rounded=0;orthogonalLoop=1;jettySize=auto;html=1;exitX=1;exitY=0.5;exitDx=0;exitDy=0;entryX=0.5;entryY=0;entryDx=0;entryDy=0;" edge="1" parent="1" source="GoNkcsiwLbmAIzl6Nbj7-136" target="GoNkcsiwLbmAIzl6Nbj7-146">
          <mxGeometry relative="1" as="geometry" />
        </mxCell>
        <mxCell id="GoNkcsiwLbmAIzl6Nbj7-136" value="Botões&amp;nbsp;" style="rounded=0;whiteSpace=wrap;html=1;" vertex="1" parent="1">
          <mxGeometry x="484" y="1695.5" width="124" height="46" as="geometry" />
        </mxCell>
        <mxCell id="GoNkcsiwLbmAIzl6Nbj7-137" style="edgeStyle=orthogonalEdgeStyle;rounded=0;orthogonalLoop=1;jettySize=auto;html=1;exitX=0;exitY=0.5;exitDx=0;exitDy=0;" edge="1" parent="1" source="GoNkcsiwLbmAIzl6Nbj7-139" target="GoNkcsiwLbmAIzl6Nbj7-141">
          <mxGeometry relative="1" as="geometry" />
        </mxCell>
        <mxCell id="GoNkcsiwLbmAIzl6Nbj7-138" style="edgeStyle=orthogonalEdgeStyle;rounded=0;orthogonalLoop=1;jettySize=auto;html=1;exitX=0.5;exitY=1;exitDx=0;exitDy=0;entryX=0.5;entryY=0;entryDx=0;entryDy=0;" edge="1" parent="1" source="GoNkcsiwLbmAIzl6Nbj7-139" target="GoNkcsiwLbmAIzl6Nbj7-143">
          <mxGeometry relative="1" as="geometry" />
        </mxCell>
        <mxCell id="GoNkcsiwLbmAIzl6Nbj7-139" value="Fazer pedido" style="rounded=0;whiteSpace=wrap;html=1;" vertex="1" parent="1">
          <mxGeometry x="320" y="1748.5" width="124" height="46" as="geometry" />
        </mxCell>
        <mxCell id="GoNkcsiwLbmAIzl6Nbj7-140" style="edgeStyle=orthogonalEdgeStyle;rounded=0;orthogonalLoop=1;jettySize=auto;html=1;exitX=0.5;exitY=1;exitDx=0;exitDy=0;entryX=0.5;entryY=0;entryDx=0;entryDy=0;" edge="1" parent="1" source="GoNkcsiwLbmAIzl6Nbj7-141" target="GoNkcsiwLbmAIzl6Nbj7-149">
          <mxGeometry relative="1" as="geometry" />
        </mxCell>
        <mxCell id="GoNkcsiwLbmAIzl6Nbj7-141" value="Campos obrigatórios preenchidos" style="rounded=0;whiteSpace=wrap;html=1;" vertex="1" parent="1">
          <mxGeometry x="89" y="1748.5" width="124" height="46" as="geometry" />
        </mxCell>
        <mxCell id="GoNkcsiwLbmAIzl6Nbj7-142" style="edgeStyle=orthogonalEdgeStyle;rounded=0;orthogonalLoop=1;jettySize=auto;html=1;exitX=1;exitY=0.5;exitDx=0;exitDy=0;entryX=0;entryY=0.5;entryDx=0;entryDy=0;" edge="1" parent="1" source="GoNkcsiwLbmAIzl6Nbj7-143" target="GoNkcsiwLbmAIzl6Nbj7-144">
          <mxGeometry relative="1" as="geometry" />
        </mxCell>
        <mxCell id="GoNkcsiwLbmAIzl6Nbj7-143" value="Campos obrigatórios não preenchidos" style="rounded=0;whiteSpace=wrap;html=1;" vertex="1" parent="1">
          <mxGeometry x="307" y="1846" width="150" height="50" as="geometry" />
        </mxCell>
        <mxCell id="GoNkcsiwLbmAIzl6Nbj7-144" value="Erro &quot;Insira o &amp;lt;campos obrigatórios&amp;gt;" style="rounded=0;whiteSpace=wrap;html=1;" vertex="1" parent="1">
          <mxGeometry x="512" y="1870" width="184" height="50" as="geometry" />
        </mxCell>
        <mxCell id="GoNkcsiwLbmAIzl6Nbj7-145" style="edgeStyle=orthogonalEdgeStyle;rounded=0;orthogonalLoop=1;jettySize=auto;html=1;exitX=1;exitY=0.5;exitDx=0;exitDy=0;entryX=0;entryY=0.5;entryDx=0;entryDy=0;" edge="1" parent="1" source="GoNkcsiwLbmAIzl6Nbj7-146" target="GoNkcsiwLbmAIzl6Nbj7-148">
          <mxGeometry relative="1" as="geometry" />
        </mxCell>
        <mxCell id="GoNkcsiwLbmAIzl6Nbj7-146" value="Voltar" style="rounded=0;whiteSpace=wrap;html=1;" vertex="1" parent="1">
          <mxGeometry x="572" y="1800" width="124" height="46" as="geometry" />
        </mxCell>
        <mxCell id="GoNkcsiwLbmAIzl6Nbj7-147" style="edgeStyle=orthogonalEdgeStyle;rounded=0;orthogonalLoop=1;jettySize=auto;html=1;exitX=0;exitY=0.5;exitDx=0;exitDy=0;entryX=0.447;entryY=0.021;entryDx=0;entryDy=0;entryPerimeter=0;" edge="1" parent="1" source="GoNkcsiwLbmAIzl6Nbj7-136" target="GoNkcsiwLbmAIzl6Nbj7-139">
          <mxGeometry relative="1" as="geometry" />
        </mxCell>
        <mxCell id="GoNkcsiwLbmAIzl6Nbj7-148" value="Volta a página anterior" style="rounded=0;whiteSpace=wrap;html=1;" vertex="1" parent="1">
          <mxGeometry x="727" y="1800" width="124" height="46" as="geometry" />
        </mxCell>
        <mxCell id="idY51j--czHx6IZsuclX-80" style="edgeStyle=orthogonalEdgeStyle;rounded=0;orthogonalLoop=1;jettySize=auto;html=1;exitX=0;exitY=0.5;exitDx=0;exitDy=0;entryX=0.5;entryY=0;entryDx=0;entryDy=0;" edge="1" parent="1" source="GoNkcsiwLbmAIzl6Nbj7-149" target="idY51j--czHx6IZsuclX-78">
          <mxGeometry relative="1" as="geometry" />
        </mxCell>
        <mxCell id="idY51j--czHx6IZsuclX-81" style="edgeStyle=orthogonalEdgeStyle;rounded=0;orthogonalLoop=1;jettySize=auto;html=1;exitX=1;exitY=0.5;exitDx=0;exitDy=0;entryX=0.5;entryY=0;entryDx=0;entryDy=0;" edge="1" parent="1" source="GoNkcsiwLbmAIzl6Nbj7-149" target="idY51j--czHx6IZsuclX-79">
          <mxGeometry relative="1" as="geometry" />
        </mxCell>
        <mxCell id="GoNkcsiwLbmAIzl6Nbj7-149" value="Abre pop-up&amp;nbsp;&lt;br&gt;Gostaria de fazer o pedido?&amp;nbsp;" style="rounded=0;whiteSpace=wrap;html=1;" vertex="1" parent="1">
          <mxGeometry x="69" y="1826.5" width="164" height="53.5" as="geometry" />
        </mxCell>
        <mxCell id="idY51j--czHx6IZsuclX-56" style="edgeStyle=orthogonalEdgeStyle;rounded=0;orthogonalLoop=1;jettySize=auto;html=1;exitX=1;exitY=0.5;exitDx=0;exitDy=0;entryX=0.5;entryY=1;entryDx=0;entryDy=0;" edge="1" parent="1" source="GoNkcsiwLbmAIzl6Nbj7-150" target="idY51j--czHx6IZsuclX-52">
          <mxGeometry relative="1" as="geometry" />
        </mxCell>
        <mxCell id="GoNkcsiwLbmAIzl6Nbj7-150" value="Calendário Vázio" style="rounded=0;whiteSpace=wrap;html=1;" vertex="1" parent="1">
          <mxGeometry x="1184.5" y="1305" width="160" height="30" as="geometry" />
        </mxCell>
        <mxCell id="GoNkcsiwLbmAIzl6Nbj7-151" value="Preto" style="rounded=0;whiteSpace=wrap;html=1;" vertex="1" parent="1">
          <mxGeometry x="1144" y="1397" width="60" height="21" as="geometry" />
        </mxCell>
        <mxCell id="GoNkcsiwLbmAIzl6Nbj7-152" value="Cinza" style="rounded=0;whiteSpace=wrap;html=1;" vertex="1" parent="1">
          <mxGeometry x="1144" y="1425.5" width="60" height="21" as="geometry" />
        </mxCell>
        <mxCell id="GoNkcsiwLbmAIzl6Nbj7-153" value="Ambas" style="rounded=0;whiteSpace=wrap;html=1;" vertex="1" parent="1">
          <mxGeometry x="1144" y="1454.5" width="60" height="21" as="geometry" />
        </mxCell>
        <mxCell id="GoNkcsiwLbmAIzl6Nbj7-154" value="Vázio" style="rounded=0;whiteSpace=wrap;html=1;" vertex="1" parent="1">
          <mxGeometry x="1144" y="1482.5" width="60" height="21" as="geometry" />
        </mxCell>
        <mxCell id="GoNkcsiwLbmAIzl6Nbj7-155" style="edgeStyle=orthogonalEdgeStyle;rounded=0;orthogonalLoop=1;jettySize=auto;html=1;exitX=0.5;exitY=1;exitDx=0;exitDy=0;" edge="1" parent="1" source="GoNkcsiwLbmAIzl6Nbj7-156" target="GoNkcsiwLbmAIzl6Nbj7-157">
          <mxGeometry relative="1" as="geometry" />
        </mxCell>
        <mxCell id="GoNkcsiwLbmAIzl6Nbj7-156" value="Quando o uuário seleciona uma data, o valor aparece imediatamente no campo.&amp;nbsp;" style="rounded=0;whiteSpace=wrap;html=1;" vertex="1" parent="1">
          <mxGeometry x="-790" y="1235" width="200" height="70" as="geometry" />
        </mxCell>
        <mxCell id="GoNkcsiwLbmAIzl6Nbj7-157" value="O&lt;br/&gt;usuário pode selecionar uma data&lt;br/&gt;diferente, o campo será destacado&lt;br/&gt;em azul." style="rounded=0;whiteSpace=wrap;html=1;" vertex="1" parent="1">
          <mxGeometry x="-790" y="1340" width="200" height="70" as="geometry" />
        </mxCell>
        <mxCell id="GoNkcsiwLbmAIzl6Nbj7-160" value="&amp;nbsp;o número, a cor e o nome da estação devem&lt;br/&gt;ser retornados" style="rounded=0;whiteSpace=wrap;html=1;" vertex="1" parent="1">
          <mxGeometry x="-670" y="350" width="170" height="60" as="geometry" />
        </mxCell>
        <mxCell id="SS5qdlX40lLjJLnyB3h--1" style="edgeStyle=orthogonalEdgeStyle;rounded=0;orthogonalLoop=1;jettySize=auto;html=1;exitX=0;exitY=0.5;exitDx=0;exitDy=0;entryX=0.682;entryY=1;entryDx=0;entryDy=0;entryPerimeter=0;" edge="1" parent="1" source="ubrNMbJERg0ZYu2FDz6m-1" target="ubrNMbJERg0ZYu2FDz6m-3">
          <mxGeometry relative="1" as="geometry" />
        </mxCell>
        <mxCell id="idY51j--czHx6IZsuclX-2" value="Testes Positivos" style="rounded=0;whiteSpace=wrap;html=1;" vertex="1" parent="1">
          <mxGeometry x="800" y="-360" width="120" height="60" as="geometry" />
        </mxCell>
        <mxCell id="idY51j--czHx6IZsuclX-12" value="Testes Positivos" style="rounded=0;whiteSpace=wrap;html=1;" vertex="1" parent="1">
          <mxGeometry x="1470" y="-360" width="120" height="60" as="geometry" />
        </mxCell>
        <mxCell id="idY51j--czHx6IZsuclX-21" value="Testes Positivos" style="rounded=0;whiteSpace=wrap;html=1;" vertex="1" parent="1">
          <mxGeometry x="1490" y="205" width="120" height="60" as="geometry" />
        </mxCell>
        <mxCell id="idY51j--czHx6IZsuclX-34" value="Testes Positivos" style="rounded=0;whiteSpace=wrap;html=1;" vertex="1" parent="1">
          <mxGeometry x="899.5" y="479" width="120" height="60" as="geometry" />
        </mxCell>
        <mxCell id="idY51j--czHx6IZsuclX-49" style="edgeStyle=orthogonalEdgeStyle;rounded=0;orthogonalLoop=1;jettySize=auto;html=1;exitX=1;exitY=0.5;exitDx=0;exitDy=0;entryX=0.5;entryY=0;entryDx=0;entryDy=0;" edge="1" parent="1" source="idY51j--czHx6IZsuclX-42" target="idY51j--czHx6IZsuclX-48">
          <mxGeometry relative="1" as="geometry" />
        </mxCell>
        <mxCell id="idY51j--czHx6IZsuclX-42" value="&lt;span style=&quot;text-align: start; font-family: Helvetica, Arial;&quot; data-sheets-userformat=&quot;{&amp;quot;2&amp;quot;:15357,&amp;quot;3&amp;quot;:{&amp;quot;1&amp;quot;:0},&amp;quot;5&amp;quot;:{&amp;quot;1&amp;quot;:[{&amp;quot;1&amp;quot;:2,&amp;quot;2&amp;quot;:0,&amp;quot;5&amp;quot;:{&amp;quot;1&amp;quot;:2,&amp;quot;2&amp;quot;:10066329}},{&amp;quot;1&amp;quot;:0,&amp;quot;2&amp;quot;:0,&amp;quot;3&amp;quot;:3},{&amp;quot;1&amp;quot;:1,&amp;quot;2&amp;quot;:0,&amp;quot;4&amp;quot;:1}]},&amp;quot;6&amp;quot;:{&amp;quot;1&amp;quot;:[{&amp;quot;1&amp;quot;:2,&amp;quot;2&amp;quot;:0,&amp;quot;5&amp;quot;:{&amp;quot;1&amp;quot;:2,&amp;quot;2&amp;quot;:10066329}},{&amp;quot;1&amp;quot;:0,&amp;quot;2&amp;quot;:0,&amp;quot;3&amp;quot;:3},{&amp;quot;1&amp;quot;:1,&amp;quot;2&amp;quot;:0,&amp;quot;4&amp;quot;:1}]},&amp;quot;7&amp;quot;:{&amp;quot;1&amp;quot;:[{&amp;quot;1&amp;quot;:2,&amp;quot;2&amp;quot;:0,&amp;quot;5&amp;quot;:{&amp;quot;1&amp;quot;:2,&amp;quot;2&amp;quot;:10066329}},{&amp;quot;1&amp;quot;:0,&amp;quot;2&amp;quot;:0,&amp;quot;3&amp;quot;:3},{&amp;quot;1&amp;quot;:1,&amp;quot;2&amp;quot;:0,&amp;quot;4&amp;quot;:1}]},&amp;quot;8&amp;quot;:{&amp;quot;1&amp;quot;:[{&amp;quot;1&amp;quot;:2,&amp;quot;2&amp;quot;:0,&amp;quot;5&amp;quot;:{&amp;quot;1&amp;quot;:2,&amp;quot;2&amp;quot;:10066329}},{&amp;quot;1&amp;quot;:0,&amp;quot;2&amp;quot;:0,&amp;quot;3&amp;quot;:3},{&amp;quot;1&amp;quot;:1,&amp;quot;2&amp;quot;:0,&amp;quot;4&amp;quot;:1}]},&amp;quot;9&amp;quot;:0,&amp;quot;10&amp;quot;:1,&amp;quot;11&amp;quot;:4,&amp;quot;12&amp;quot;:0,&amp;quot;14&amp;quot;:{&amp;quot;1&amp;quot;:3,&amp;quot;3&amp;quot;:1},&amp;quot;15&amp;quot;:&amp;quot;Helvetica&amp;quot;,&amp;quot;16&amp;quot;:10}&quot; data-sheets-value=&quot;{&amp;quot;1&amp;quot;:2,&amp;quot;2&amp;quot;:&amp;quot;Ao clicar abre calendário mensal&amp;quot;}&quot; data-sheets-root=&quot;1&quot;&gt;&lt;font style=&quot;font-size: 12px;&quot;&gt;Ao clicar abre calendário mensal&lt;/font&gt;&lt;/span&gt;" style="rounded=0;whiteSpace=wrap;html=1;" vertex="1" parent="1">
          <mxGeometry x="1184.5" y="1000" width="195.5" height="30" as="geometry" />
        </mxCell>
        <mxCell id="idY51j--czHx6IZsuclX-50" style="edgeStyle=orthogonalEdgeStyle;rounded=0;orthogonalLoop=1;jettySize=auto;html=1;exitX=1;exitY=0.5;exitDx=0;exitDy=0;entryX=0;entryY=0.5;entryDx=0;entryDy=0;" edge="1" parent="1" source="idY51j--czHx6IZsuclX-44" target="idY51j--czHx6IZsuclX-48">
          <mxGeometry relative="1" as="geometry" />
        </mxCell>
        <mxCell id="idY51j--czHx6IZsuclX-44" value="&lt;span style=&quot;font-family: docs-Helvetica; font-size: 13px; text-align: left; white-space-collapse: preserve;&quot;&gt;Quando o usuário seleciona uma data, o valor aparece imediatamente no campo. O usuário pode selecionar uma data diferente, o campo será destacado em azul&lt;/span&gt;" style="rounded=0;whiteSpace=wrap;html=1;" vertex="1" parent="1">
          <mxGeometry x="1184.5" y="1040" width="295.5" height="80" as="geometry" />
        </mxCell>
        <mxCell id="idY51j--czHx6IZsuclX-48" value="Testes Positivos" style="rounded=0;whiteSpace=wrap;html=1;" vertex="1" parent="1">
          <mxGeometry x="1530" y="1060" width="120" height="60" as="geometry" />
        </mxCell>
        <mxCell id="idY51j--czHx6IZsuclX-52" value="Testes Negativos" style="rounded=0;whiteSpace=wrap;html=1;" vertex="1" parent="1">
          <mxGeometry x="1470" y="1212.5" width="120" height="60" as="geometry" />
        </mxCell>
        <mxCell id="idY51j--czHx6IZsuclX-57" value="Testes Positivos" style="rounded=0;whiteSpace=wrap;html=1;" vertex="1" parent="1">
          <mxGeometry x="1570" y="1464.5" width="80" height="60" as="geometry" />
        </mxCell>
        <mxCell id="idY51j--czHx6IZsuclX-65" value="Testes Positivos" style="rounded=0;whiteSpace=wrap;html=1;" vertex="1" parent="1">
          <mxGeometry x="1139.5" y="1590" width="80" height="60" as="geometry" />
        </mxCell>
        <mxCell id="idY51j--czHx6IZsuclX-74" value="Testes Negativos" style="rounded=0;whiteSpace=wrap;html=1;" vertex="1" parent="1">
          <mxGeometry x="1180" y="1766.5" width="110" height="60" as="geometry" />
        </mxCell>
        <mxCell id="idY51j--czHx6IZsuclX-88" style="edgeStyle=orthogonalEdgeStyle;rounded=0;orthogonalLoop=1;jettySize=auto;html=1;exitX=0;exitY=0.5;exitDx=0;exitDy=0;entryX=1;entryY=0.5;entryDx=0;entryDy=0;" edge="1" parent="1" source="idY51j--czHx6IZsuclX-78" target="idY51j--czHx6IZsuclX-87">
          <mxGeometry relative="1" as="geometry" />
        </mxCell>
        <mxCell id="idY51j--czHx6IZsuclX-90" style="edgeStyle=orthogonalEdgeStyle;rounded=0;orthogonalLoop=1;jettySize=auto;html=1;exitX=0.5;exitY=1;exitDx=0;exitDy=0;entryX=0.5;entryY=0;entryDx=0;entryDy=0;" edge="1" parent="1" source="idY51j--czHx6IZsuclX-78" target="idY51j--czHx6IZsuclX-89">
          <mxGeometry relative="1" as="geometry" />
        </mxCell>
        <mxCell id="idY51j--czHx6IZsuclX-78" value="Botão Não" style="rounded=0;whiteSpace=wrap;html=1;" vertex="1" parent="1">
          <mxGeometry x="-18" y="1910" width="124" height="46" as="geometry" />
        </mxCell>
        <mxCell id="idY51j--czHx6IZsuclX-83" style="edgeStyle=orthogonalEdgeStyle;rounded=0;orthogonalLoop=1;jettySize=auto;html=1;exitX=0.5;exitY=1;exitDx=0;exitDy=0;entryX=0.5;entryY=0;entryDx=0;entryDy=0;" edge="1" parent="1" source="idY51j--czHx6IZsuclX-79" target="idY51j--czHx6IZsuclX-82">
          <mxGeometry relative="1" as="geometry" />
        </mxCell>
        <mxCell id="idY51j--czHx6IZsuclX-86" style="edgeStyle=orthogonalEdgeStyle;rounded=0;orthogonalLoop=1;jettySize=auto;html=1;exitX=1;exitY=0.5;exitDx=0;exitDy=0;entryX=0;entryY=0.5;entryDx=0;entryDy=0;" edge="1" parent="1" source="idY51j--czHx6IZsuclX-79" target="idY51j--czHx6IZsuclX-84">
          <mxGeometry relative="1" as="geometry" />
        </mxCell>
        <mxCell id="idY51j--czHx6IZsuclX-79" value="Botão Sim" style="rounded=0;whiteSpace=wrap;html=1;" vertex="1" parent="1">
          <mxGeometry x="194" y="1910" width="124" height="46" as="geometry" />
        </mxCell>
        <mxCell id="idY51j--czHx6IZsuclX-93" style="edgeStyle=orthogonalEdgeStyle;rounded=0;orthogonalLoop=1;jettySize=auto;html=1;exitX=1;exitY=0.5;exitDx=0;exitDy=0;entryX=0;entryY=0.5;entryDx=0;entryDy=0;" edge="1" parent="1" source="idY51j--czHx6IZsuclX-82" target="idY51j--czHx6IZsuclX-92">
          <mxGeometry relative="1" as="geometry" />
        </mxCell>
        <mxCell id="idY51j--czHx6IZsuclX-96" style="edgeStyle=orthogonalEdgeStyle;rounded=0;orthogonalLoop=1;jettySize=auto;html=1;exitX=0.5;exitY=1;exitDx=0;exitDy=0;entryX=0.5;entryY=0;entryDx=0;entryDy=0;" edge="1" parent="1" source="idY51j--czHx6IZsuclX-82" target="idY51j--czHx6IZsuclX-95">
          <mxGeometry relative="1" as="geometry" />
        </mxCell>
        <mxCell id="idY51j--czHx6IZsuclX-82" value="Clicar abre o poup-up&amp;nbsp;&amp;nbsp;&lt;div&gt;O pedido fio feito&amp;nbsp;&lt;/div&gt;" style="rounded=0;whiteSpace=wrap;html=1;" vertex="1" parent="1">
          <mxGeometry x="181.75" y="2001" width="148.5" height="50" as="geometry" />
        </mxCell>
        <mxCell id="idY51j--czHx6IZsuclX-84" value="Fundo Preto&amp;nbsp;&lt;br&gt;Letra cor Branco" style="rounded=0;whiteSpace=wrap;html=1;" vertex="1" parent="1">
          <mxGeometry x="358.5" y="1911" width="110" height="44" as="geometry" />
        </mxCell>
        <mxCell id="idY51j--czHx6IZsuclX-87" value="Fundo branco&amp;nbsp;&lt;br&gt;Letra cor Preta&lt;br&gt;Borda preta" style="rounded=0;whiteSpace=wrap;html=1;" vertex="1" parent="1">
          <mxGeometry x="-181" y="1906.75" width="110" height="52.5" as="geometry" />
        </mxCell>
        <mxCell id="idY51j--czHx6IZsuclX-89" value="Clicar leva de volta a pagina Locação" style="rounded=0;whiteSpace=wrap;html=1;" vertex="1" parent="1">
          <mxGeometry x="-29" y="1992" width="146" height="60" as="geometry" />
        </mxCell>
        <mxCell id="idY51j--czHx6IZsuclX-94" style="edgeStyle=orthogonalEdgeStyle;rounded=0;orthogonalLoop=1;jettySize=auto;html=1;exitX=0.5;exitY=0;exitDx=0;exitDy=0;entryX=0.5;entryY=1;entryDx=0;entryDy=0;" edge="1" parent="1" source="idY51j--czHx6IZsuclX-92" target="idY51j--czHx6IZsuclX-84">
          <mxGeometry relative="1" as="geometry" />
        </mxCell>
        <mxCell id="idY51j--czHx6IZsuclX-92" value="O pedido foi Feito&lt;div&gt;Número: xxxx. Anote será útil para acompanhar o status&lt;/div&gt;" style="rounded=0;whiteSpace=wrap;html=1;" vertex="1" parent="1">
          <mxGeometry x="381" y="1997" width="191" height="58" as="geometry" />
        </mxCell>
        <mxCell id="idY51j--czHx6IZsuclX-98" style="edgeStyle=orthogonalEdgeStyle;rounded=0;orthogonalLoop=1;jettySize=auto;html=1;exitX=0.5;exitY=1;exitDx=0;exitDy=0;entryX=0.5;entryY=0;entryDx=0;entryDy=0;" edge="1" parent="1" source="idY51j--czHx6IZsuclX-95" target="idY51j--czHx6IZsuclX-97">
          <mxGeometry relative="1" as="geometry" />
        </mxCell>
        <mxCell id="idY51j--czHx6IZsuclX-100" style="edgeStyle=orthogonalEdgeStyle;rounded=0;orthogonalLoop=1;jettySize=auto;html=1;exitX=1;exitY=0.5;exitDx=0;exitDy=0;entryX=0;entryY=0.5;entryDx=0;entryDy=0;" edge="1" parent="1" source="idY51j--czHx6IZsuclX-95" target="idY51j--czHx6IZsuclX-99">
          <mxGeometry relative="1" as="geometry" />
        </mxCell>
        <mxCell id="idY51j--czHx6IZsuclX-95" value="Botão Verificar o status&amp;nbsp;" style="rounded=0;whiteSpace=wrap;html=1;" vertex="1" parent="1">
          <mxGeometry x="194" y="2080" width="146" height="50" as="geometry" />
        </mxCell>
        <mxCell id="idY51j--czHx6IZsuclX-97" value="Fundo Preto&amp;nbsp;&lt;br&gt;Letra cor Branco" style="rounded=0;whiteSpace=wrap;html=1;" vertex="1" parent="1">
          <mxGeometry x="210" y="2160" width="110" height="44" as="geometry" />
        </mxCell>
        <mxCell id="idY51j--czHx6IZsuclX-99" value="Leva para a página&lt;div&gt;&amp;nbsp;Status do pedido&amp;nbsp;&lt;/div&gt;" style="rounded=0;whiteSpace=wrap;html=1;" vertex="1" parent="1">
          <mxGeometry x="403.5" y="2080" width="146" height="50" as="geometry" />
        </mxCell>
      </root>
    </mxGraphModel>
  </diagram>
</mxfile>
